<svg width="70" height="70" viewBox="0 0 70 70" fill="none" xmlns="http://www.w3.org/2000/svg">
<circle cx="35" cy="35" r="33.5" stroke="#3D600A" stroke-opacity="0.2" stroke-width="3"/>
<path fill-rule="evenodd" clip-rule="evenodd" d="M45.5001 34V49.5H42.374C42.4563 49.1804 42.5001 48.8453 42.5001 48.5V41C42.5001 38.7909 40.7092 37 38.5001 37H31.5001C29.2909 37 27.5001 38.7909 27.5001 41V48.5C27.5001 48.8453 27.5438 49.1804 27.6261 49.5H24.5001V34H45.5001ZM21.5001 49.5V34H21.4771C18.6472 34 16.7122 31.1419 17.7632 28.5144L20.5486 29.6286C20.2859 30.2855 20.7696 31 21.4771 31H48.523C49.2305 31 49.7142 30.2855 49.4515 29.6286L52.2369 28.5144C53.2879 31.1419 51.3529 34 48.523 34H48.5001V49.5H51.0001C51.8285 49.5 52.5001 50.1716 52.5001 51C52.5001 51.8284 51.8285 52.5 51.0001 52.5H19.0001C18.1716 52.5 17.5001 51.8284 17.5001 51C17.5001 50.1716 18.1716 49.5 19.0001 49.5H21.5001ZM45.323 21C45.7319 21 46.0996 21.249 46.2515 21.6286L49.4515 29.6286L52.2369 28.5144L49.0369 20.5144C48.4295 18.9958 46.9586 18 45.323 18H24.6771C23.0415 18 21.5706 18.9958 20.9632 20.5144L17.7632 28.5144L20.5486 29.6286L23.7486 21.6286C23.9005 21.249 24.2682 21 24.6771 21H45.323ZM31.5001 40C30.9478 40 30.5001 40.4477 30.5001 41V48.5C30.5001 49.0523 30.9478 49.5 31.5001 49.5H38.5001C39.0523 49.5 39.5001 49.0523 39.5001 48.5V41C39.5001 40.4477 39.0523 40 38.5001 40H31.5001Z" fill="#3D600A"/>
</svg>
