<svg width="70" height="70" viewBox="0 0 70 70" fill="none" xmlns="http://www.w3.org/2000/svg">
<path fill-rule="evenodd" clip-rule="evenodd" d="M22.1472 18.9631C23.1442 15.636 27.8557 15.636 28.8527 18.9631L34.1565 36.6635C35.1033 39.8229 34.2535 43.2472 31.9395 45.5975C30.5499 47.0089 28.8124 47.8663 27 48.1697V52.0001C27 52.8285 26.3284 53.5001 25.5 53.5001C24.6715 53.5001 24 52.8285 24 52.0001V48.1697C22.1876 47.8663 20.45 47.0089 19.0604 45.5975C16.7464 43.2472 15.8967 39.8229 16.8434 36.6635L22.1472 18.9631ZM27 45.106V38.0001C27 37.1716 26.3284 36.5001 25.5 36.5001C24.6715 36.5001 24 37.1716 24 38.0001V45.106C22.9712 44.8432 21.9983 44.3055 21.1982 43.4928C19.6524 41.9227 19.0847 39.6352 19.7171 37.5246L25.021 19.8243C25.0658 19.6747 25.136 19.6 25.2 19.5554C25.2745 19.5035 25.3792 19.4678 25.5 19.4678C25.6207 19.4678 25.7255 19.5035 25.7999 19.5554C25.864 19.6 25.9341 19.6747 25.9789 19.8243L31.2828 37.5246C31.9152 39.6352 31.3476 41.9227 29.8018 43.4928C29.0016 44.3055 28.0287 44.8432 27 45.106ZM42.1836 19.1385C43.2546 15.9634 47.7453 15.9634 48.8164 19.1385L53.0612 31.722C54.078 34.7363 53.2074 38.0665 50.8455 40.1975C49.7256 41.2078 48.391 41.8456 47 42.1109V45.1711C48.9412 44.8418 50.9224 44.6303 52.9359 44.5441C53.7635 44.5087 54.4632 45.151 54.4986 45.9786C54.534 46.8063 53.8918 47.506 53.0641 47.5414C50.6641 47.644 48.3137 47.9367 46.0273 48.4047C45.8884 48.4569 45.7396 48.4891 45.5846 48.4977C41.7878 49.3154 38.1716 50.6176 34.8035 52.3362C34.0656 52.7127 33.1621 52.4197 32.7856 51.6818C32.4091 50.9439 32.7021 50.0405 33.44 49.6639C36.7542 47.9729 40.2933 46.6595 44 45.7805V42.1109C42.6089 41.8456 41.2743 41.2078 40.1545 40.1975C37.7926 38.0665 36.9219 34.7363 37.9387 31.722L42.1836 19.1385ZM47 39.022V34.0001C47 33.1716 46.3284 32.5001 45.5 32.5001C44.6715 32.5001 44 33.1716 44 34.0001V39.022C43.3376 38.8132 42.71 38.4626 42.1641 37.9701C40.6901 36.6402 40.1468 34.562 40.7814 32.6809L45.0262 20.0974C45.1792 19.6438 45.8207 19.6438 45.9737 20.0974L50.2186 32.6809C50.8531 34.562 50.3098 36.6402 48.8358 37.9701C48.29 38.4626 47.6623 38.8132 47 39.022Z" fill="#3D600A"/>
</svg>
