<svg width="70" height="70" viewBox="0 0 70 70" fill="none" xmlns="http://www.w3.org/2000/svg">
<path fill-rule="evenodd" clip-rule="evenodd" d="M35 18.5C30.8579 18.5 27.5 21.8579 27.5 26C27.5 30.1421 30.8579 33.5 35 33.5C39.1421 33.5 42.5 30.1421 42.5 26C42.5 21.8579 39.1421 18.5 35 18.5ZM24.5 26C24.5 20.201 29.201 15.5 35 15.5C40.799 15.5 45.5 20.201 45.5 26C45.5 31.799 40.799 36.5 35 36.5C29.201 36.5 24.5 31.799 24.5 26Z" fill="#3D600A"/>
<path d="M35 45L33 52.5H37L35 45Z" fill="#3D600A"/>
<path d="M35 40C33.9726 40 32.9693 40.0861 32 40.25L35 45L38 40.25C37.0307 40.0861 36.0274 40 35 40Z" fill="#3D600A"/>
<path fill-rule="evenodd" clip-rule="evenodd" d="M34.5671 41.5056L35 42.191L35.4329 41.5056C35.2892 41.5019 35.1449 41.5 35 41.5C34.8551 41.5 34.7108 41.5019 34.5671 41.5056ZM38.7174 41.9231L36.6182 45.2468L38.1524 51H48.3729C47.6525 46.7685 43.9275 43.1355 38.7174 41.9231ZM35.0476 51L35 50.8216L34.9524 51H35.0476ZM31.8476 51L33.3818 45.2468L31.2826 41.9231C26.0725 43.1355 22.3475 46.7685 21.6271 51H31.8476ZM31.7498 38.7711C32.8018 38.5931 33.8888 38.5 35 38.5C36.1112 38.5 37.1982 38.5931 38.2502 38.7711C45.6033 40.0149 51.5 45.5221 51.5 52.5C51.5 53.3284 50.8284 54 50 54H20C19.1716 54 18.5 53.3284 18.5 52.5C18.5 45.5221 24.3967 40.0149 31.7498 38.7711Z" fill="#3D600A"/>
</svg>
