<svg width="70" height="70" viewBox="0 0 70 70" fill="none" xmlns="http://www.w3.org/2000/svg">
<circle cx="35" cy="35" r="33.5" stroke="#3D600A" stroke-opacity="0.2" stroke-width="3"/>
<path fill-rule="evenodd" clip-rule="evenodd" d="M53.5 52C53.5 52.8284 52.8284 53.5 52 53.5H19C17.6193 53.5 16.5 52.3807 16.5 51V18C16.5 17.1716 17.1716 16.5 18 16.5C18.8284 16.5 19.5 17.1716 19.5 18V50.5H52C52.8284 50.5 53.5 51.1716 53.5 52ZM24 36C24 33.7909 25.7909 32 28 32H31C33.2091 32 35 33.7909 35 36V43C35 45.2091 33.2091 47 31 47H28C25.7909 47 24 45.2091 24 43V36ZM38 22C38 19.7909 39.7909 18 42 18H45C47.2091 18 49 19.7909 49 22V43C49 45.2091 47.2091 47 45 47H42C39.7909 47 38 45.2091 38 43V22ZM42 21C41.4477 21 41 21.4477 41 22V43C41 43.5523 41.4477 44 42 44H45C45.5523 44 46 43.5523 46 43V22C46 21.4477 45.5523 21 45 21H42ZM28 35C27.4477 35 27 35.4477 27 36V43C27 43.5523 27.4477 44 28 44H31C31.5523 44 32 43.5523 32 43V36C32 35.4477 31.5523 35 31 35H28Z" fill="#3D600A"/>
</svg>
