<svg width="70" height="70" viewBox="0 0 70 70" fill="none" xmlns="http://www.w3.org/2000/svg">
<circle cx="35" cy="35" r="33.5" stroke="#3D600A" stroke-opacity="0.2" stroke-width="3"/>
<path fill-rule="evenodd" clip-rule="evenodd" d="M32.8268 23.4955C29.0999 20.5943 23.7084 20.8566 20.2825 24.2825C16.5725 27.9925 16.5725 34.0075 20.2825 37.7175L33.2322 50.6673C34.2085 51.6436 35.7915 51.6436 36.7678 50.6673L38.638 48.797L35.9016 46.0607C35.3158 45.4749 35.3158 44.5251 35.9016 43.9393C36.4874 43.3536 37.4371 43.3536 38.0229 43.9393L40.7593 46.6757L43.935 43.5L40.9957 40.5607C40.4099 39.9749 40.4099 39.0251 40.9957 38.4393C41.5815 37.8536 42.5312 37.8536 43.117 38.4393L46.0564 41.3787L48.6569 38.7782L45.0418 35.1631C43.326 33.4474 40.5589 33.4009 38.7865 35.0581L37.769 36.0094C35.3375 38.2828 31.5414 38.219 29.1876 35.8652C26.7767 33.4544 26.7767 29.5456 29.1876 27.1347L32.8268 23.4955ZM34.9664 25.5985L35.0001 25.6341L36.0903 24.4802C36.1532 24.4136 36.2173 24.3477 36.2825 24.2825C39.9925 20.5725 46.0075 20.5725 49.7175 24.2825C53.0666 27.6316 53.3924 32.8591 50.6949 36.5736L47.1631 33.0418C44.3035 30.1822 39.6917 30.1047 36.7376 32.8667L35.7201 33.818C34.4702 34.9867 32.5189 34.9539 31.3089 33.7439C30.0696 32.5046 30.0696 30.4954 31.3089 29.2561L34.9664 25.5985ZM35 21.3943C39.911 17.2946 47.2279 17.5502 51.8388 22.1612C56.7204 27.0427 56.7204 34.9573 51.8388 39.8388L38.8891 52.7886C36.7412 54.9365 33.2588 54.9365 31.1109 52.7886L18.1612 39.8388C13.2796 34.9573 13.2796 27.0427 18.1612 22.1612C22.7721 17.5502 30.089 17.2946 35 21.3943Z" fill="#3D600A"/>
</svg>
