<svg width="70" height="70" viewBox="0 0 70 70" fill="none" xmlns="http://www.w3.org/2000/svg">
<circle cx="35" cy="35" r="33.5" stroke="#3D600A" stroke-opacity="0.2" stroke-width="3"/>
<path fill-rule="evenodd" clip-rule="evenodd" d="M41 33C41 36.3137 38.3137 39 35 39C31.6863 39 29 36.3137 29 33C29 29.6863 31.6863 27 35 27C38.3137 27 41 29.6863 41 33ZM55 23C55 26.866 51.866 30 48 30C44.134 30 41 26.866 41 23C41 19.134 44.134 16 48 16C51.866 16 55 19.134 55 23ZM29 23C29 26.866 25.866 30 22 30C18.134 30 15 26.866 15 23C15 19.134 18.134 16 22 16C25.866 16 29 19.134 29 23ZM21 32H23C25.2091 32 27 33.7909 27 36V49C27 51.2091 25.2091 53 23 53H21C18.7909 53 17 51.2091 17 49V36C17 33.7909 18.7909 32 21 32ZM34 41H36C38.2091 41 40 42.7909 40 45V49C40 51.2091 38.2091 53 36 53H34C31.7909 53 30 51.2091 30 49V45C30 42.7909 31.7909 41 34 41ZM44.2392 48.8039C44.1155 49.4227 44.5888 50 45.2198 50H50.7802C51.4112 50 51.8845 49.4227 51.7608 48.8039L49.1608 35.8039C49.0673 35.3365 48.6569 35 48.1802 35H47.8198C47.3431 35 46.9327 35.3365 46.8392 35.8039L44.2392 48.8039ZM47.8198 32H48.1802C50.0869 32 51.7286 33.3458 52.1025 35.2155L54.7025 48.2155C55.1976 50.6907 53.3044 53 50.7802 53H45.2198C42.6956 53 40.8024 50.6907 41.2975 48.2155L43.8975 35.2155C44.2714 33.3458 45.9131 32 47.8198 32ZM26 23C26 25.2091 24.2091 27 22 27C19.7909 27 18 25.2091 18 23C18 20.7909 19.7909 19 22 19C24.2091 19 26 20.7909 26 23ZM48 27C50.2091 27 52 25.2091 52 23C52 20.7909 50.2091 19 48 19C45.7909 19 44 20.7909 44 23C44 25.2091 45.7909 27 48 27ZM35 36C36.6569 36 38 34.6569 38 33C38 31.3431 36.6569 30 35 30C33.3431 30 32 31.3431 32 33C32 34.6569 33.3431 36 35 36ZM21 35C20.4477 35 20 35.4477 20 36V49C20 49.5523 20.4477 50 21 50H23C23.5523 50 24 49.5523 24 49V36C24 35.4477 23.5523 35 23 35H21ZM33 45C33 44.4477 33.4477 44 34 44H36C36.5523 44 37 44.4477 37 45V49C37 49.5523 36.5523 50 36 50H34C33.4477 50 33 49.5523 33 49V45Z" fill="#3D600A"/>
</svg>
