<svg width="20" height="20" viewBox="0 0 20 20" fill="none" xmlns="http://www.w3.org/2000/svg">
<path d="M3.4 17.5923C2.65 16.8423 2.0625 15.9756 1.6375 14.9923C1.2125 14.009 1 12.9923 1 11.9423C1 10.8923 1.2 9.85481 1.6 8.82981C2 7.80481 2.65 6.84231 3.55 5.94231C4.13333 5.35897 4.85417 4.85897 5.7125 4.44231C6.57083 4.02564 7.5875 3.69647 8.7625 3.45481C9.9375 3.21314 11.2792 3.06731 12.7875 3.01731C14.2958 2.96731 15.9833 3.02564 17.85 3.19231C17.9833 4.95897 18.025 6.58397 17.975 8.06731C17.925 9.55064 17.7875 10.8881 17.5625 12.0798C17.3375 13.2715 17.0208 14.3131 16.6125 15.2048C16.2042 16.0965 15.7 16.8423 15.1 17.4423C14.2167 18.3256 13.2792 18.9715 12.2875 19.3798C11.2958 19.7881 10.2833 19.9923 9.25 19.9923C8.16667 19.9923 7.10833 19.7798 6.075 19.3548C5.04167 18.9298 4.15 18.3423 3.4 17.5923ZM6.2 17.1923C6.68333 17.4756 7.17917 17.6798 7.6875 17.8048C8.19583 17.9298 8.71667 17.9923 9.25 17.9923C10.0167 17.9923 10.775 17.8381 11.525 17.5298C12.275 17.2215 12.9917 16.7256 13.675 16.0423C13.975 15.7423 14.2792 15.3215 14.5875 14.7798C14.8958 14.2381 15.1625 13.5298 15.3875 12.6548C15.6125 11.7798 15.7833 10.7215 15.9 9.47981C16.0167 8.23814 16.0333 6.75897 15.95 5.04231C15.1333 5.00897 14.2125 4.99647 13.1875 5.00481C12.1625 5.01314 11.1417 5.09231 10.125 5.24231C9.10833 5.39231 8.14167 5.63397 7.225 5.96731C6.30833 6.30064 5.55833 6.75897 4.975 7.34231C4.225 8.09231 3.70833 8.83397 3.425 9.56731C3.14167 10.3006 3 11.009 3 11.6923C3 12.6756 3.1875 13.5381 3.5625 14.2798C3.9375 15.0215 4.26667 15.5423 4.55 15.8423C5.25 14.509 6.175 13.2298 7.325 12.0048C8.475 10.7798 9.81667 9.77564 11.35 8.99231C10.15 10.0423 9.10417 11.2298 8.2125 12.5548C7.32083 13.8798 6.65 15.4256 6.2 17.1923Z" fill="#3D600A"/>
</svg>
