<svg width="365" height="70" viewBox="0 0 365 70" fill="none" xmlns="http://www.w3.org/2000/svg">
<g clip-path="url(#clip0_30_1952)">
<path d="M83.5494 23.3333H90.463V25.3086H86.0185V29.0123H90.2161V30.9876H86.0185V37.037H83.5494V23.3333ZM96.0185 26.7901C98.1173 26.7901 100.463 27.9012 100.463 31.9753C100.463 36.2962 98.1173 37.2839 96.0185 37.2839C93.9198 37.2839 91.4506 36.2962 91.4506 31.9753C91.4506 27.7777 93.9198 26.7901 96.0185 26.7901ZM96.0185 35.432C97.6235 35.432 97.9938 33.5802 97.9938 31.9753C97.9938 30.3703 97.6235 28.5185 96.0185 28.5185C94.4136 28.5185 94.0432 30.3703 94.0432 31.9753C94.0432 33.5802 94.4136 35.432 96.0185 35.432ZM106.636 26.7901C108.735 26.7901 111.08 27.9012 111.08 31.9753C111.08 36.2962 108.735 37.2839 106.636 37.2839C104.537 37.2839 102.191 36.2962 102.191 31.9753C102.068 27.7777 104.537 26.7901 106.636 26.7901ZM106.636 35.432C108.241 35.432 108.611 33.5802 108.611 31.9753C108.611 30.3703 108.241 28.5185 106.636 28.5185C105.031 28.5185 104.661 30.3703 104.661 31.9753C104.661 33.5802 105.031 35.432 106.636 35.432ZM121.327 22.2222V35.3086C121.327 36.0493 121.327 36.6666 121.451 37.037H119.105C119.105 36.7901 118.981 36.1728 118.981 35.432C118.611 36.2962 117.87 37.1604 116.265 37.1604C113.796 37.1604 112.685 34.6913 112.685 31.9753C112.685 28.6419 114.043 26.6666 116.142 26.6666C117.623 26.6666 118.364 27.5308 118.735 28.2716V22.2222H121.327ZM117.006 35.432C118.488 35.432 118.981 33.8271 118.981 31.9753C118.981 29.9999 118.488 28.5185 117.13 28.5185C115.772 28.5185 115.278 29.8765 115.278 31.8518C115.154 34.1975 115.525 35.432 117.006 35.432ZM129.228 27.5308C129.969 27.1604 130.833 26.7901 132.438 26.7901C135.648 26.7901 136.389 28.2716 136.389 30.8641V35.3086C136.389 36.0493 136.512 36.6666 136.512 37.1604H134.29C134.167 36.7901 134.167 36.2962 134.167 35.8024C133.549 36.6666 132.809 37.2839 131.327 37.2839C129.722 37.2839 128.241 36.1728 128.241 34.3209C128.241 31.6049 130.463 30.8641 133.549 30.8641H134.043V30.4938C134.043 29.5061 133.549 28.5185 132.191 28.5185C130.957 28.5185 129.846 29.1357 129.352 29.5061L129.228 27.5308ZM134.043 32.0987H133.796C131.698 32.0987 130.463 32.5925 130.463 34.074C130.463 35.0617 131.08 35.679 132.068 35.679C133.549 35.679 134.043 34.5678 134.043 32.716V32.0987ZM138.611 28.5185C138.611 27.9012 138.611 27.2839 138.488 26.7901H140.833C140.833 27.2839 140.957 27.7777 140.957 28.395C141.327 27.7777 141.944 26.6666 143.673 26.6666C146.019 26.6666 146.636 28.395 146.636 30.4938V37.037H144.167V30.9876C144.167 29.3827 143.796 28.7654 142.809 28.7654C141.574 28.7654 141.08 29.8765 141.08 31.1111V37.037H138.611V28.5185ZM157.13 22.2222V35.3086C157.13 36.0493 157.13 36.6666 157.253 37.037H154.907C154.907 36.7901 154.784 36.1728 154.784 35.432C154.414 36.2962 153.673 37.1604 152.068 37.1604C149.599 37.1604 148.488 34.6913 148.488 31.9753C148.488 28.6419 149.846 26.6666 151.944 26.6666C153.426 26.6666 154.167 27.5308 154.537 28.2716V22.2222H157.13ZM152.809 35.432C154.29 35.432 154.784 33.8271 154.784 31.9753C154.784 29.9999 154.29 28.5185 152.932 28.5185C151.574 28.5185 151.08 29.8765 151.08 31.8518C150.957 34.1975 151.327 35.432 152.809 35.432ZM170.71 33.7036H166.019L165.031 37.037H162.562L167.13 23.2098H169.846L174.29 37.037H171.698L170.71 33.7036ZM170.216 31.8518L168.488 25.432L166.636 31.8518H170.216ZM175.772 38.6419C176.389 39.0123 177.5 39.5061 178.735 39.5061C181.08 39.5061 181.451 37.9012 181.451 36.2962V35.3086C181.08 36.0493 180.34 37.037 178.735 37.037C177.377 37.037 175.154 36.0493 175.154 31.9753C175.154 29.1357 176.142 26.6666 178.858 26.6666C180.34 26.6666 181.08 27.5308 181.574 28.395H181.698C181.698 27.9012 181.698 27.4074 181.821 26.7901H184.043C184.043 27.2839 183.92 27.9012 183.92 28.395V35.9259C183.92 39.1357 182.932 41.358 179.228 41.358C177.623 41.358 176.265 40.9876 175.772 40.7407V38.6419ZM179.352 35.3086C180.833 35.3086 181.451 34.1975 181.451 31.8518C181.451 29.753 180.586 28.5185 179.475 28.6419C178.241 28.6419 177.747 29.8765 177.747 31.9753C177.747 34.3209 178.488 35.3086 179.352 35.3086ZM186.142 28.5185C186.142 27.9012 186.142 27.2839 186.019 26.7901H188.241C188.241 27.4074 188.364 28.0246 188.364 28.6419C188.611 27.9012 189.475 26.6666 190.957 26.6666H191.327V29.0123C191.08 29.0123 190.833 28.8888 190.586 28.8888C189.599 28.8888 188.488 29.5061 188.488 31.358V37.037H186.019L186.142 28.5185ZM193.302 22.5925H195.772V25.0617H193.302V22.5925ZM193.302 26.9135H195.772V37.037H193.302V26.9135ZM205.031 36.7901C204.414 37.037 203.549 37.1604 202.562 37.1604C199.228 37.1604 197.747 34.8148 197.747 31.9753C197.747 29.0123 199.228 26.6666 202.685 26.6666C203.426 26.6666 204.414 26.9135 204.784 27.037L204.66 29.0123C204.167 28.7654 203.673 28.5185 202.932 28.5185C201.08 28.5185 200.216 29.753 200.216 31.9753C200.216 33.8271 201.08 35.3086 203.056 35.3086C203.673 35.3086 204.414 35.0617 204.784 34.8148L205.031 36.7901ZM214.661 35.432C214.661 36.0493 214.66 36.6666 214.784 37.1604H212.438C212.438 36.6666 212.315 36.1728 212.315 35.5555C211.821 36.2962 211.204 37.2839 209.599 37.2839C207.253 37.2839 206.636 35.5555 206.636 33.4567V26.9135H209.105V32.9629C209.105 34.5678 209.599 35.1851 210.586 35.1851C211.944 35.1851 212.315 33.9506 212.315 32.716V26.9135H214.784L214.661 35.432ZM217.13 22.2222H219.599V37.037H217.13V22.2222ZM222.809 24.8148L225.278 24.074V26.9135H227.253V28.7654H225.278V34.074C225.278 35.1851 225.648 35.432 226.389 35.432C226.883 35.432 227.13 35.3086 227.377 35.1851V36.9135C227.006 37.037 226.512 37.2839 225.772 37.2839C223.92 37.2839 222.932 36.4197 222.932 34.3209V28.7654H221.327V26.9135H222.932L222.809 24.8148ZM236.883 35.432C236.883 36.0493 236.883 36.6666 237.006 37.1604H234.661C234.661 36.6666 234.537 36.1728 234.537 35.5555C234.043 36.2962 233.426 37.2839 231.821 37.2839C229.475 37.2839 228.858 35.5555 228.858 33.4567V26.9135H231.327V32.9629C231.327 34.5678 231.821 35.1851 232.809 35.1851C234.167 35.1851 234.537 33.9506 234.537 32.716V26.9135H237.006L236.883 35.432ZM239.228 28.5185C239.228 27.9012 239.228 27.2839 239.105 26.7901H241.327C241.327 27.4074 241.451 28.0246 241.451 28.6419C241.698 27.9012 242.562 26.6666 244.043 26.6666H244.414V29.0123C244.167 29.0123 243.92 28.8888 243.673 28.8888C242.685 28.8888 241.574 29.5061 241.574 31.358V37.037H239.105L239.228 28.5185ZM253.302 36.5432C252.809 36.7901 251.698 37.1604 250.216 37.1604C246.883 37.1604 245.525 34.8148 245.525 32.0987C245.525 29.0123 247.13 26.6666 249.722 26.6666C251.944 26.6666 253.796 27.9012 253.796 32.0987V32.5925H247.87C247.87 34.3209 248.611 35.432 250.463 35.432C251.944 35.432 252.685 34.9382 253.179 34.6913L253.302 36.5432ZM251.451 31.1111C251.451 29.2592 250.833 28.395 249.722 28.395C248.488 28.395 247.87 29.753 247.87 31.1111H251.451ZM266.142 23.0864C268.981 23.0864 271.574 25.1851 271.574 30.1234C271.574 35.0617 268.981 37.1604 266.142 37.1604C263.302 37.1604 260.71 35.0617 260.71 30.1234C260.71 25.1851 263.302 23.0864 266.142 23.0864ZM266.142 35.3086C267.747 35.3086 268.981 33.9506 268.981 30.1234C268.981 26.2962 267.747 24.9382 266.142 24.9382C264.537 24.9382 263.302 26.2962 263.302 30.1234C263.302 33.9506 264.537 35.3086 266.142 35.3086ZM273.796 28.5185C273.796 27.9012 273.796 27.2839 273.673 26.7901H275.895C275.895 27.4074 276.019 28.0246 276.019 28.6419C276.265 27.9012 277.13 26.6666 278.611 26.6666H278.981V29.0123C278.735 29.0123 278.488 28.8888 278.241 28.8888C277.253 28.8888 276.142 29.5061 276.142 31.358V37.037H273.673L273.796 28.5185ZM280.71 38.6419C281.327 39.0123 282.438 39.5061 283.673 39.5061C286.019 39.5061 286.389 37.9012 286.389 36.2962V35.3086C286.019 36.0493 285.278 37.037 283.673 37.037C282.191 37.037 280.093 36.0493 280.093 31.9753C280.093 29.1357 281.08 26.6666 283.796 26.6666C285.278 26.6666 286.019 27.5308 286.512 28.395H286.636C286.636 27.9012 286.636 27.4074 286.759 26.7901H288.981C288.981 27.2839 288.858 27.9012 288.858 28.395V35.9259C288.858 39.1357 287.87 41.358 284.167 41.358C282.562 41.358 281.204 40.9876 280.71 40.7407V38.6419ZM284.29 35.3086C285.772 35.3086 286.389 34.1975 286.389 31.8518C286.389 29.753 285.525 28.5185 284.414 28.6419C283.179 28.6419 282.685 29.8765 282.685 31.9753C282.685 34.3209 283.426 35.3086 284.29 35.3086ZM291.574 27.5308C292.315 27.1604 293.179 26.7901 294.784 26.7901C297.994 26.7901 298.611 28.2716 298.611 30.8641V35.3086C298.611 36.0493 298.735 36.6666 298.735 37.1604H296.512C296.389 36.7901 296.389 36.2962 296.389 35.8024C295.772 36.6666 295.031 37.2839 293.549 37.2839C291.944 37.2839 290.463 36.1728 290.463 34.3209C290.463 31.6049 292.685 30.8641 295.772 30.8641H296.265V30.4938C296.265 29.5061 295.772 28.5185 294.414 28.5185C293.179 28.5185 292.068 29.1357 291.574 29.5061V27.5308ZM296.389 32.0987H296.142C294.043 32.0987 292.809 32.5925 292.809 34.074C292.809 35.0617 293.426 35.679 294.414 35.679C295.895 35.679 296.389 34.5678 296.389 32.716V32.0987ZM300.833 28.5185C300.833 27.9012 300.833 27.2839 300.71 26.7901H303.056C303.056 27.2839 303.179 27.7777 303.179 28.395C303.549 27.7777 304.167 26.6666 305.895 26.6666C308.241 26.6666 308.858 28.395 308.858 30.4938V37.037H306.389V30.9876C306.389 29.3827 306.019 28.7654 305.031 28.7654C303.796 28.7654 303.302 29.8765 303.302 31.1111V37.037H300.833V28.5185ZM311.327 22.5925H313.796V25.0617H311.327V22.5925ZM311.327 26.9135H313.796V37.037H311.327V26.9135ZM315.772 34.9382L320.093 28.7654H315.895V26.9135H322.562V29.0123L318.241 35.1851H322.685V37.037H315.772V34.9382ZM324.784 27.5308C325.525 27.1604 326.389 26.7901 327.994 26.7901C331.204 26.7901 331.821 28.2716 331.821 30.8641V35.3086C331.821 36.0493 331.944 36.6666 331.944 37.1604H329.722C329.599 36.7901 329.599 36.2962 329.599 35.8024C328.981 36.6666 328.241 37.2839 326.759 37.2839C325.154 37.2839 323.673 36.1728 323.673 34.3209C323.673 31.6049 325.895 30.8641 328.981 30.8641H329.475V30.4938C329.475 29.5061 328.981 28.5185 327.623 28.5185C326.389 28.5185 325.278 29.1357 324.784 29.5061V27.5308ZM329.599 32.0987H329.352C327.253 32.0987 326.019 32.5925 326.019 34.074C326.019 35.0617 326.636 35.679 327.623 35.679C329.105 35.679 329.599 34.5678 329.599 32.716V32.0987ZM335.031 24.8148L337.5 24.074V26.9135H339.475V28.7654H337.5V34.074C337.5 35.1851 337.87 35.432 338.611 35.432C339.105 35.432 339.352 35.3086 339.599 35.1851V36.9135C339.228 37.037 338.735 37.2839 337.994 37.2839C336.142 37.2839 335.154 36.4197 335.154 34.3209V28.7654H333.426V26.9135H335.031V24.8148ZM341.327 22.5925H343.796V25.0617H341.327V22.5925ZM341.327 26.9135H343.796V37.037H341.327V26.9135ZM350.463 26.7901C352.562 26.7901 354.907 27.9012 354.907 31.9753C354.907 36.2962 352.562 37.2839 350.463 37.2839C348.364 37.2839 346.019 36.2962 346.019 31.9753C346.019 27.7777 348.364 26.7901 350.463 26.7901ZM350.463 35.432C352.068 35.432 352.438 33.5802 352.438 31.9753C352.438 30.3703 352.068 28.5185 350.463 28.5185C348.858 28.5185 348.488 30.3703 348.488 31.9753C348.488 33.5802 348.858 35.432 350.463 35.432ZM356.883 28.5185C356.883 27.9012 356.883 27.2839 356.759 26.7901H359.105C359.105 27.2839 359.228 27.7777 359.228 28.395C359.599 27.7777 360.216 26.6666 361.944 26.6666C364.29 26.6666 364.907 28.395 364.907 30.4938V37.037H362.438V30.9876C362.438 29.3827 362.068 28.7654 361.08 28.7654C359.846 28.7654 359.352 29.8765 359.352 31.1111V37.037H356.883V28.5185ZM87.3766 49.0123C89.4753 49.0123 91.821 50.1234 91.821 54.1975C91.821 58.5185 89.4753 59.5061 87.3766 59.5061C85.2778 59.5061 82.8087 58.5185 82.8087 54.3209C82.8087 50.1234 85.2778 49.0123 87.3766 49.0123ZM87.3766 57.7777C88.9815 57.7777 89.3519 55.9259 89.3519 54.3209C89.3519 52.716 88.9815 50.8641 87.3766 50.8641C85.7716 50.8641 85.4012 52.716 85.4012 54.3209C85.4012 55.9259 85.7716 57.7777 87.3766 57.7777ZM94.537 50.9876H92.8087V49.1357H94.537V47.037C94.537 45.5555 95.2778 44.1975 97.5 44.1975C98.1173 44.1975 98.7346 44.3209 99.2284 44.4444L99.1049 46.1728C98.858 46.0493 98.4877 46.0493 98.1173 46.0493C97.3766 46.0493 97.0062 46.5432 97.0062 47.2839V49.0123H98.858V50.8641H97.0062V59.2592H94.537V50.9876ZM106.389 47.1604L108.858 46.4197V49.2592H110.833V51.1111H108.735V56.4197C108.735 57.5308 109.105 57.7777 109.846 57.7777C110.34 57.7777 110.586 57.6543 110.833 57.5308V59.2592C110.463 59.3827 109.969 59.6296 109.228 59.6296C107.377 59.6296 106.389 58.7654 106.389 56.6666V51.1111H104.784V49.2592H106.389V47.1604ZM112.438 44.5678H114.907V50.4938C115.401 49.8765 115.895 49.0123 117.377 49.0123C119.722 49.0123 120.34 50.7407 120.34 52.8395V59.3827H117.87V53.3333C117.87 51.7283 117.5 51.1111 116.512 51.1111C115.278 51.1111 114.784 52.2222 114.784 53.4567V59.3827H112.315L112.438 44.5678ZM130.093 58.8888C129.599 59.1357 128.488 59.5061 127.006 59.5061C123.673 59.5061 122.315 57.1604 122.315 54.4444C122.315 51.358 123.92 49.0123 126.512 49.0123C128.735 49.0123 130.586 50.2469 130.586 54.4444V54.9382H124.661C124.661 56.6666 125.401 57.7777 127.253 57.7777C128.735 57.7777 129.475 57.2839 129.969 57.037L130.093 58.8888ZM128.241 53.4567C128.241 51.6049 127.623 50.7407 126.512 50.7407C125.278 50.7407 124.661 52.0987 124.661 53.4567H128.241ZM140.34 45.5555V54.4444C140.34 56.7901 141.08 57.5308 142.562 57.5308C144.043 57.5308 144.661 56.7901 144.661 54.4444V45.5555H147.13V54.4444C147.13 58.0246 145.031 59.5061 142.438 59.5061C139.846 59.5061 137.747 58.0246 137.747 54.4444V45.5555H140.34ZM149.722 50.8641C149.722 50.2469 149.722 49.6296 149.599 49.1357H151.944C151.944 49.6296 152.068 50.1234 152.068 50.7407C152.438 50.1234 153.056 49.0123 154.784 49.0123C157.13 49.0123 157.747 50.7407 157.747 52.8395V59.3827H155.278V53.3333C155.278 51.7283 154.907 51.1111 153.92 51.1111C152.685 51.1111 152.191 52.2222 152.191 53.4567V59.3827H149.722V50.8641ZM160.093 44.9382H162.562V47.4074H160.093V44.9382ZM160.216 49.2592H162.685V59.3827H160.216V49.2592ZM166.019 47.1604L168.488 46.4197V49.2592H170.463V51.1111H168.488V56.4197C168.488 57.5308 168.858 57.7777 169.599 57.7777C170.093 57.7777 170.34 57.6543 170.586 57.5308V59.2592C170.216 59.3827 169.722 59.6296 168.981 59.6296C167.13 59.6296 166.142 58.7654 166.142 56.6666V51.1111H164.29V49.2592H165.895L166.019 47.1604ZM179.475 58.8888C178.981 59.1357 177.87 59.5061 176.389 59.5061C173.056 59.5061 171.698 57.1604 171.698 54.4444C171.698 51.358 173.302 49.0123 175.895 49.0123C178.117 49.0123 179.969 50.2469 179.969 54.4444V54.9382H174.043C174.043 56.6666 174.784 57.7777 176.636 57.7777C178.117 57.7777 178.858 57.2839 179.352 57.037L179.475 58.8888ZM177.623 53.4567C177.623 51.6049 177.006 50.7407 175.895 50.7407C174.66 50.7407 174.043 52.0987 174.043 53.4567H177.623ZM190.216 44.5678V57.6543C190.216 58.395 190.216 59.0123 190.34 59.3827H187.994C187.994 59.1357 187.87 58.5185 187.87 57.7777C187.5 58.6419 186.759 59.5061 185.154 59.5061C182.685 59.5061 181.574 57.037 181.574 54.3209C181.574 50.9876 182.932 49.0123 185.031 49.0123C186.512 49.0123 187.253 49.8765 187.623 50.6172V44.5678H190.216ZM185.772 57.7777C187.253 57.7777 187.747 56.1728 187.747 54.3209C187.747 52.3456 187.253 50.8641 185.895 50.8641C184.537 50.8641 184.043 52.2222 184.043 54.1975C184.043 56.5432 184.414 57.7777 185.772 57.7777ZM197.87 45.5555H200.833L205.401 56.4197V45.5555H207.747V59.3827H204.784L200.216 48.6419V59.3827H197.87V45.5555ZM210.833 49.753C211.574 49.3827 212.438 49.0123 214.043 49.0123C217.253 49.0123 217.87 50.4938 217.87 53.0864V57.5308C217.87 58.2715 217.994 58.8888 217.994 59.3827H215.772C215.648 59.0123 215.648 58.5185 215.648 58.0246C215.031 58.8888 214.29 59.5061 212.809 59.5061C211.204 59.5061 209.722 58.395 209.722 56.5432C209.722 53.8271 211.944 53.0864 215.031 53.0864H215.525V52.716C215.525 51.7283 215.031 50.7407 213.673 50.7407C212.438 50.7407 211.327 51.358 210.833 51.7283V49.753ZM215.648 54.4444H215.401C213.302 54.4444 212.068 54.9382 212.068 56.4197C212.068 57.4074 212.685 58.0246 213.673 58.0246C215.154 58.0246 215.648 56.9135 215.648 55.1851V54.4444ZM221.204 47.1604L223.673 46.4197V49.2592H225.648V51.1111H223.549V56.4197C223.549 57.5308 223.92 57.7777 224.66 57.7777C225.154 57.7777 225.401 57.6543 225.648 57.5308V59.2592C225.278 59.3827 224.784 59.6296 224.043 59.6296C222.191 59.6296 221.204 58.7654 221.204 56.6666V51.1111H219.599V49.2592H221.204V47.1604ZM227.377 44.9382H229.846V47.4074H227.377V44.9382ZM227.377 49.2592H229.846V59.3827H227.377V49.2592ZM236.512 49.0123C238.611 49.0123 240.957 50.1234 240.957 54.1975C240.957 58.5185 238.611 59.5061 236.512 59.5061C234.414 59.5061 232.068 58.5185 232.068 54.1975C232.068 50.1234 234.414 49.0123 236.512 49.0123ZM236.512 57.7777C238.117 57.7777 238.488 55.9259 238.488 54.3209C238.488 52.716 238.117 50.8641 236.512 50.8641C234.907 50.8641 234.537 52.716 234.537 54.3209C234.537 55.9259 234.907 57.7777 236.512 57.7777ZM242.932 50.8641C242.932 50.2469 242.932 49.6296 242.809 49.1357H245.154C245.154 49.6296 245.278 50.1234 245.278 50.7407C245.648 50.1234 246.265 49.0123 247.994 49.0123C250.34 49.0123 250.957 50.7407 250.957 52.8395V59.3827H248.488V53.3333C248.488 51.7283 248.117 51.1111 247.13 51.1111C245.895 51.1111 245.401 52.2222 245.401 53.4567V59.3827H242.932V50.8641ZM252.932 57.037C253.302 57.1604 254.29 57.6543 255.525 57.6543C256.389 57.6543 257.13 57.4074 257.13 56.6666C257.13 56.2962 256.883 55.9259 256.019 55.432L255.031 54.8148C254.043 54.1975 252.932 53.5802 252.932 51.9753C252.932 50.6172 254.29 49.1357 256.389 49.1357C257.747 49.1357 258.735 49.5061 258.981 49.5061L258.858 51.358C258.241 51.1111 257.623 50.8641 256.759 50.8641C255.772 50.8641 255.401 51.2345 255.401 51.8518C255.401 52.3456 255.895 52.716 256.512 53.2098L257.747 53.9506C258.981 54.8148 259.599 55.3086 259.599 56.5432C259.599 58.395 257.994 59.5061 255.772 59.5061C254.537 59.5061 253.426 59.2592 252.932 59.0123V57.037Z" fill="black"/>
<path d="M35.0309 70C15.7716 70 0.0925903 54.321 0.0925903 34.9383C0.0925903 15.5556 15.7716 0 35.0309 0C54.4136 0 70.0926 15.679 70.0926 34.9383C70.0926 54.1975 54.4136 70 35.0309 70ZM34.9074 21.2346C34.9074 21.2346 37.7469 24.1975 37.7469 26.6667C37.7469 29.2593 35.7716 29.8765 35.0309 29.8765H34.7839C34.0432 29.8765 32.0679 29.2593 32.0679 26.6667C32.0679 24.1975 34.9074 21.2346 34.9074 21.2346ZM8.61111 36.9136H11.821V30.9877H17.1296V28.5185H11.821V25.1852H17.3765V22.716H8.61111V36.9136ZM37.8704 21.6049H41.2037L37.2531 7.53086H32.9321L28.858 21.6049H31.9444L32.8086 18.3951H36.8827L37.8704 21.6049ZM36.3889 16.0494H33.4259L34.7839 9.87654H35.0309L36.3889 16.0494ZM51.2037 29.8765C51.2037 34.0741 53.179 37.1605 57.1296 37.1605C61.2037 37.1605 63.179 33.9506 63.179 29.8765C63.179 25.679 61.2037 22.5926 57.1296 22.5926C53.179 22.5926 51.2037 25.8025 51.2037 29.8765ZM54.6605 29.8765C54.6605 27.1605 55.2778 24.9383 57.2531 24.9383C59.2284 24.9383 59.8457 27.1605 59.8457 29.8765C59.8457 32.5926 59.1049 34.8148 57.2531 34.8148C55.2778 34.8148 54.6605 32.5926 54.6605 29.8765ZM33.5494 66.0494C33.7963 64.6914 33.9198 62.4691 33.9198 59.8765V59.5062C33.9198 55.9259 33.7963 54.6914 31.3272 53.8272C27.6235 52.5926 26.0185 48.3951 26.8827 43.2099L14.537 11.6049C8.11728 17.2839 3.91975 25.679 3.91975 34.9383C3.91975 51.6049 17.1296 65.3086 33.5494 66.0494ZM35.0309 45.9259C30.0926 44.8148 28.2407 40.2469 28.2407 36.2963L17.3765 9.38272C16.6358 9.87654 16.0185 10.3704 15.2778 10.9877C17.7469 16.6667 28.4877 42.2222 28.4877 42.2222C30.3395 46.7901 33.9198 45.3086 34.6605 49.1358C34.9074 50 34.9074 50.4938 34.9074 50.4938H35.2778C35.2778 50.4938 35.2778 50.1235 35.5247 49.1358C36.3889 45.3086 39.8457 46.9136 41.6975 42.2222C41.6975 42.2222 52.4383 16.6667 54.9074 10.9877C54.2901 10.4938 53.5494 9.87654 52.8086 9.38272L41.9444 36.1728C41.9444 40.2469 40.0926 44.6914 35.0309 45.9259ZM35.0309 37.7778C32.9321 37.284 30.3395 35.1852 29.9691 32.5926C29.8457 31.6049 29.7222 31.2346 29.8457 29.2593L20.3395 7.53086C19.5988 7.90123 18.858 8.39506 18.1173 8.88889C20.9568 15.3086 29.7222 34.9383 29.7222 34.9383C31.0802 37.9012 33.5494 37.9012 34.4136 39.6296C34.9074 40.6173 34.9074 41.6049 35.0309 41.6049H35.4012C35.4012 41.4815 35.4012 40.6173 36.0185 39.6296C36.8827 37.9012 39.2284 37.7778 40.7099 34.9383C40.7099 34.9383 49.4753 15.3086 52.3148 8.88889C51.5741 8.39506 50.8333 7.90123 50.0926 7.53086L40.5864 29.1358C40.7099 31.1111 40.5864 31.4815 40.463 32.4691C39.8457 35.1852 37.2531 37.284 35.0309 37.7778ZM35.1543 34.0741L35.2778 32.8395C35.8951 30.1235 37.8704 30.4938 39.2284 27.7778C39.2284 27.6543 46.0185 13.2099 48.858 7.16049C44.6605 5.06173 39.9691 3.82716 35.0309 3.82716C30.0926 3.82716 25.2778 5.06173 21.2037 7.16049C24.0432 13.2099 30.8333 27.7778 30.8333 27.7778C32.1914 30.4938 34.1667 30.1235 34.7839 32.8395L34.9074 34.0741H35.1543ZM66.2654 34.9383C66.2654 25.679 62.1914 17.2839 55.6481 11.6049L43.179 43.3333C44.0432 48.5185 42.4383 52.716 38.7346 53.9506C36.2654 54.6914 36.142 55.9259 36.142 59.6296V60C36.142 62.5926 36.3889 64.8148 36.5123 66.1728C53.0556 65.3086 66.2654 51.6049 66.2654 34.9383ZM13.7963 44.1975L14.6605 45.9259C15.0309 46.6667 15.5247 47.4074 15.5247 47.4074L14.6605 47.9012C14.6605 47.9012 14.0432 46.9136 13.4259 45.679C13.3025 45.8025 12.3148 46.2963 12.0679 46.2963C12.1914 46.4198 13.179 48.3951 13.179 48.3951L12.4383 48.8889C12.4383 48.8889 11.4506 46.9136 11.3272 46.7901C11.2037 46.9136 8.98148 48.0247 8.98148 48.0247L8.48765 46.9136L13.7963 44.1975ZM17.1296 49.5062L17.8704 50.3704L13.3025 54.1975L12.5617 53.3333L17.1296 49.5062ZM21.3272 53.4568L22.1914 54.0741L21.0802 60.3704L20.0926 59.7531C20.0926 59.7531 20.3395 58.5185 20.3395 58.3951C20.3395 58.3951 19.7222 58.0247 19.1049 57.5309C18.4877 57.1605 17.9938 56.6667 17.8704 56.5432C17.7469 56.6667 16.6358 57.284 16.6358 57.284L15.7716 56.5432L21.3272 53.4568ZM18.6111 56.1728C18.7346 56.2963 19.1049 56.5432 19.4753 56.9136C19.8457 57.1605 20.3395 57.4074 20.463 57.5309C20.463 57.2839 20.9568 55.1852 21.0802 54.8148C20.7099 54.9383 18.858 56.0494 18.6111 56.1728ZM25.0309 55.8025C25.0309 55.8025 26.0185 56.2963 27.3765 56.7901C28.3642 57.1605 29.1049 57.4074 29.8457 57.5309L29.5988 58.3951C29.5988 58.3951 28.858 58.2716 27.6235 57.9012C27.5 58.1481 26.0185 62.5926 26.0185 62.5926L24.9074 62.2222C24.9074 62.2222 26.5123 57.7778 26.5123 57.5309C25.4012 57.1605 24.6605 56.6667 24.6605 56.6667L25.0309 55.8025ZM43.7963 57.037C44.1667 57.284 44.4136 57.6543 44.6605 58.1481C44.7839 58.3951 44.7839 58.5185 44.7839 58.7654C44.7839 59.6296 44.1667 60.2469 43.179 60.6173C43.179 60.6173 42.6852 60.7407 42.4383 60.8642C42.4383 61.1111 43.179 63.0864 43.179 63.0864L42.0679 63.2099L40.3395 57.5309L41.9444 57.037C42.6852 56.7901 43.3025 56.7901 43.7963 57.037ZM41.5741 58.0247C41.5741 58.1481 42.0679 59.6296 42.0679 59.7531C42.3148 59.6296 42.8086 59.5062 42.8086 59.5062C42.9321 59.5062 43.3025 59.2593 43.5494 59.0123C43.5494 58.8889 43.6728 58.7654 43.6728 58.642V58.3951C43.5494 58.1481 43.4259 58.0247 43.3025 57.9012C42.9321 57.7778 42.5617 57.7778 42.3148 57.9012C42.1914 57.9012 41.6975 58.0247 41.5741 58.0247ZM47.2531 54.5679L52.4383 58.2716L51.5741 58.8889C51.5741 58.8889 50.5864 58.1481 50.463 58.0247C50.463 58.0247 49.8457 58.3951 49.3519 58.7654C48.858 59.1358 48.2407 59.3827 48.1173 59.3827C48.1173 59.5062 48.3642 60.7407 48.3642 60.7407L47.3765 61.2346L46.5123 54.9383L47.2531 54.5679ZM47.8704 58.5185C47.9938 58.3951 48.3642 58.2716 48.858 58.0247C49.2284 57.7778 49.4753 57.6543 49.5988 57.5309C49.3518 57.4074 47.7469 56.1728 47.5 55.9259C47.5 56.2963 47.8704 58.2716 47.8704 58.5185ZM53.179 49.3827L57.6235 53.3333L56.8827 54.321C56.8827 54.321 52.6852 53.0864 52.0679 52.963C52.5617 53.4568 55.1543 56.1728 55.1543 56.1728L54.2901 56.7901L50.0926 52.4691L51.0802 51.6049C51.0802 51.6049 55.1543 52.8395 55.7716 52.963C55.2778 52.4691 52.4383 50.1235 52.4383 50.1235L53.179 49.3827ZM55.1543 46.2963L60.3395 49.2593L59.8457 50.1235L54.6605 47.1605L55.1543 46.2963ZM57.5 41.358L58.3642 41.8519L58.2407 41.9753C57.9938 42.3457 57.8704 42.4691 57.6235 42.963C57.5 43.0864 57.5 43.4568 57.6235 43.7037C57.7469 43.8272 57.8704 43.9506 57.9938 43.9506C58.3642 44.0741 58.7346 43.7037 59.1049 43.3333C59.5988 42.716 60.3395 42.0988 61.4506 42.4691C62.5617 42.8395 62.9321 43.8272 62.4383 45.1852C62.3148 45.5556 62.0679 45.9259 61.821 46.2963V46.4198L60.9568 46.0494L61.0802 45.9259C61.2037 45.8025 61.5741 45.3086 61.6975 44.9383C61.821 44.5679 61.821 43.8272 61.2037 43.7037C60.7099 43.5802 60.3395 43.9506 59.8457 44.321C59.3518 44.8148 58.7346 45.5556 57.7469 45.1852C57.2531 45.0617 57.0062 44.8148 56.7593 44.4444C56.5123 43.9506 56.5123 43.4568 56.7593 42.8395C56.8827 42.2222 57.1296 41.7284 57.5 41.358Z" fill="black"/>
</g>
<defs>
<clipPath id="clip0_30_1952">
<rect width="365" height="70" fill="white"/>
</clipPath>
</defs>
</svg>
