<svg width="532" height="298" viewBox="0 0 532 298" fill="none" xmlns="http://www.w3.org/2000/svg">
<g clip-path="url(#clip0_237_569)">
<path d="M70.045 50.281C70.045 74.404 57.257 87.193 35.168 87.193C13.079 87.193 0.291016 74.4 0.291016 50.281V0H13.079V48.537C13.079 65.104 18.601 76.148 35.168 76.148C51.735 76.148 57.257 64.813 57.257 48.537V0H70.045V50.281Z" fill="#5494CF"/>
<path d="M90.3896 0H107.829L147.647 69.173H147.938V0H160.726V85.74H144.45L103.469 15.4H103.178V85.74H90.3896V0Z" fill="#5494CF"/>
<path d="M174.386 47.9561H207.519V57.2561H174.386V47.9561Z" fill="#5494CF"/>
<path d="M220.599 0H242.688C260.417 0 277.565 2.616 277.565 23.251C277.565 33.714 269.427 40.98 258.965 42.724V43.015C263.034 44.468 264.778 46.215 267.684 51.734L284.831 85.74H270.008L256.057 56.094C251.988 47.665 247.919 47.665 240.944 47.665H233.096V85.74H220.308V0H220.599ZM233.678 36.912H244.722C256.929 36.912 264.195 31.68 264.195 23.542C264.195 15.695 258.095 11.042 246.175 11.042H233.678V36.912Z" fill="#F04123"/>
<path d="M298.49 0H348.771V11.044H311.278V36.044H345.578V46.794H311.278V74.986H348.771V85.74H298.49V0Z" fill="#F04123"/>
<path d="M366.21 0H392.659C419.398 0 440.61 15.695 440.61 42.143C440.61 70.917 422.299 85.743 392.654 85.743H366.21V0ZM378.998 74.986H392.658C414.747 74.986 427.245 64.813 427.245 42.725C427.245 22.671 413.004 11.045 394.402 11.045H379.289V74.986H378.998Z" fill="#F04123"/>
<path d="M456.6 0H483.049C509.788 0 531 15.695 531 42.143C531 70.917 512.689 85.743 483.044 85.743H456.6V0ZM469.679 74.986H483.339C505.428 74.986 517.926 64.813 517.926 42.725C517.926 22.671 503.685 11.045 485.083 11.045H469.683L469.679 74.986Z" fill="#F04123"/>
<path d="M0 107.828H8.719C15.694 107.828 21.219 110.153 21.219 117.419C21.219 124.394 15.406 127.01 9.303 127.01H4.941V139.799H0V107.828ZM4.941 122.941H9.591C10.3968 123.042 11.2148 122.978 11.9947 122.751C12.7746 122.525 13.4999 122.141 14.126 121.624C14.7522 121.107 15.2659 120.467 15.6356 119.744C16.0054 119.021 16.2233 118.23 16.276 117.419C16.276 113.35 11.916 111.897 8.719 111.897H4.941V122.941Z" fill="#F04123"/>
<path d="M55.5137 107.828H63.6517C70.3367 107.828 76.7307 108.7 76.7307 116.547C76.6715 118.406 75.9261 120.177 74.638 121.519C73.35 122.861 71.6107 123.678 69.7557 123.813C70.5046 124.055 71.1854 124.471 71.7418 125.027C72.2982 125.583 72.7143 126.264 72.9557 127.013L79.3497 139.801H73.8227L68.5927 128.754C68.2244 127.637 67.4585 126.693 66.4405 126.103C65.4225 125.514 64.2233 125.318 63.0707 125.554H60.1637V139.799H55.2227V107.828H55.5137ZM60.1637 121.779H64.2327C68.8827 121.779 71.4987 119.744 71.4987 116.838C71.4987 113.932 69.1737 112.188 64.8137 112.188H60.1637V121.779Z" fill="#F04123"/>
<path d="M128.171 107.247C130.365 107.129 132.558 107.478 134.606 108.273C136.654 109.068 138.51 110.289 140.049 111.856C141.589 113.423 142.777 115.299 143.536 117.361C144.295 119.423 144.606 121.622 144.449 123.813C144.449 133.404 138.636 140.38 128.173 140.38C125.98 140.498 123.786 140.148 121.738 139.353C119.69 138.559 117.835 137.337 116.296 135.77C114.756 134.203 113.568 132.327 112.809 130.265C112.051 128.204 111.74 126.004 111.897 123.813C111.897 114.513 117.71 107.246 128.173 107.246M128.173 136.31C136.02 136.31 139.217 130.21 139.217 123.81C139.217 117.41 135.439 111.31 128.173 111.31C120.616 111.31 117.129 117.41 117.129 123.81C117.129 130.21 120.329 136.31 128.173 136.31Z" fill="#F04123"/>
<path d="M205.194 113.641C202.4 111.946 199.158 111.136 195.894 111.316C194.209 111.2 192.519 111.442 190.934 112.025C189.35 112.608 187.906 113.52 186.698 114.7C185.491 115.881 184.546 117.303 183.927 118.874C183.308 120.445 183.028 122.13 183.106 123.816C183.077 125.491 183.39 127.153 184.026 128.702C184.662 130.251 185.607 131.654 186.805 132.824C188.002 133.994 189.426 134.908 190.989 135.509C192.552 136.109 194.221 136.384 195.894 136.316C197.753 136.371 199.61 136.176 201.416 135.735V126.139H194.44V122.361H206.355V138.927C203.068 139.971 199.63 140.462 196.182 140.38C185.428 140.38 178.453 133.986 178.453 123.813C178.453 113.931 186.01 107.246 196.182 107.246C199.566 107.069 202.946 107.665 206.064 108.99L205.194 113.641Z" fill="#F04123"/>
<path d="M242.687 107.828H250.825C257.51 107.828 263.904 108.7 263.904 116.547C263.844 118.406 263.099 120.177 261.811 121.519C260.523 122.861 258.784 123.678 256.929 123.813C257.677 124.055 258.358 124.471 258.915 125.027C259.471 125.583 259.887 126.264 260.129 127.013L266.523 139.801H260.996L255.766 128.754C255.397 127.637 254.631 126.693 253.613 126.103C252.595 125.514 251.396 125.318 250.244 125.554H247.337V139.799H242.396V107.828H242.687ZM247.337 121.779H251.406C256.056 121.779 258.672 119.744 258.672 116.838C258.672 113.932 256.347 112.188 251.987 112.188H247.337V121.779Z" fill="#F04123"/>
<path d="M311.569 107.828H316.51L330.752 139.799H325.52L322.037 131.661H305.466L301.978 139.799H297.037L311.569 107.828ZM313.894 112.188L307.209 128.173H320.579L313.894 112.188Z" fill="#F04123"/>
<path d="M364.176 107.828H372.023L382.776 134.567L392.95 107.828H401.088V139.799H396.147V112.188L385.102 139.799H380.161L369.117 112.188V139.799H364.176V107.828Z" fill="#F04123"/>
<path d="M438.289 107.828H446.136L456.599 134.567L467.063 107.828H474.91V139.799H470.26V112.188H469.969L458.925 139.799H454.275L443.23 112.188H442.939V139.799H438.289V107.828Z" fill="#F04123"/>
<path d="M512.404 107.828H531.296V111.897H517.054V121.197H529.842V125.266H517.054V135.728H531.295V139.797H512.404V107.828Z" fill="#F04123"/>
<path d="M262.45 217.981C262.45 216.237 261.869 215.075 260.706 215.075C259.253 215.075 258.672 216.528 258.672 217.981H262.45ZM264.484 223.503C263.47 223.92 262.379 224.118 261.284 224.084C260.597 224.133 259.908 224.028 259.266 223.778C258.625 223.528 258.047 223.139 257.574 222.638C257.101 222.138 256.746 221.538 256.533 220.884C256.32 220.229 256.255 219.535 256.343 218.852C256.343 215.652 258.087 213.33 260.703 213.33C263.028 213.33 265.063 214.783 265.063 219.143V219.724H258.963C258.963 221.468 259.544 222.63 261.579 222.63C262.608 222.607 263.612 222.306 264.485 221.758L264.484 223.503Z" fill="#5491C8"/>
<path d="M60.163 245.303L61.035 245.884C60.744 246.175 60.454 246.465 60.454 246.756C60.454 247.047 60.163 247.337 60.454 247.628L60.745 247.919C61.1824 247.847 61.5877 247.644 61.908 247.338C62.1627 246.976 62.5209 246.698 62.9357 246.543C63.3506 246.387 63.8027 246.36 64.233 246.466C65.396 246.757 65.686 247.919 65.396 249.372C65.105 249.663 65.105 250.244 64.815 250.535L63.943 249.954C64.2587 249.64 64.4628 249.232 64.524 248.791C64.815 248.5 64.524 247.628 63.943 247.338C63.362 247.048 63.071 247.629 62.49 247.919C62.2354 248.282 61.8772 248.559 61.4623 248.714C61.0475 248.87 60.5953 248.897 60.165 248.791C59.5837 248.5 59.293 248.21 59.293 247.919C59.1497 247.651 59.0747 247.351 59.0747 247.047C59.0747 246.743 59.1497 246.443 59.293 246.175C59.584 246.175 59.874 245.594 60.165 245.303H60.163ZM57.838 250.535L63.36 253.735L62.488 254.607L56.966 251.407L57.838 250.535ZM55.513 253.735L60.163 257.804L59.291 258.676C59.291 258.676 54.931 257.513 54.35 257.223C54.931 257.804 57.55 260.711 57.55 260.711L56.678 261.583L52.318 257.223L53.481 256.351C53.481 256.351 57.841 257.514 58.422 257.804C57.841 257.223 54.934 254.898 54.934 254.898L55.513 253.735ZM49.991 263.326C50.282 263.326 50.572 263.035 50.863 262.745C51.154 262.455 51.444 262.454 51.735 262.164C51.444 261.873 49.7 260.711 49.41 260.42C49.7424 261.356 49.9381 262.335 49.991 263.326ZM49.41 258.966L54.642 263.035L53.77 263.616L52.607 262.744C52.1791 262.977 51.7873 263.271 51.444 263.616L50.281 264.197L50.572 265.65L49.409 266.231L48.537 259.546L49.41 258.966ZM43.31 262.744C43.4592 263.339 43.6535 263.922 43.891 264.488C44.1113 264.457 44.3155 264.355 44.472 264.197C44.763 264.197 45.053 263.906 45.344 263.616V263.035C45.344 262.744 45.053 262.744 45.053 262.454C44.762 262.163 44.181 262.454 43.89 262.454C44.181 262.454 43.599 262.745 43.309 262.745M45.634 261.582C45.9931 261.913 46.2886 262.308 46.506 262.745V263.326C46.506 264.198 45.925 264.779 44.762 265.36L44.181 265.651C44.181 265.942 44.762 267.976 44.762 267.976L43.599 268.267L41.855 262.167L43.599 261.586C43.9172 261.436 44.2647 261.358 44.6165 261.358C44.9684 261.358 45.3158 261.436 45.634 261.586M26.161 260.423C26.878 260.85 27.6653 261.145 28.486 261.295L31.102 262.167L30.811 263.039C30.0991 262.992 29.4053 262.794 28.776 262.458C28.776 262.749 27.032 267.399 27.032 267.399L25.869 267.108C25.869 267.108 27.613 262.458 27.613 262.167C26.954 261.833 26.2743 261.542 25.578 261.295L26.161 260.423ZM19.476 260.714C19.7899 260.87 20.0829 261.066 20.348 261.295C20.6132 261.525 20.9061 261.72 21.22 261.876C21.22 261.585 21.801 259.551 21.801 258.97C21.1779 259.73 20.3802 260.329 19.476 260.714ZM22.382 258.098L23.254 258.679L22.091 265.073L20.928 264.492L21.219 263.039C20.7911 262.806 20.3993 262.513 20.056 262.167C19.7127 261.822 19.3209 261.528 18.893 261.295L17.44 262.167L16.277 261.295L22.377 258.095L22.382 258.098ZM17.732 253.738L18.604 254.61L13.954 258.679L13.082 257.807L17.732 253.738ZM14.532 248.216L15.404 249.96C15.6275 250.573 15.9201 251.158 16.276 251.704L15.404 252.285L14.241 249.96C13.95 249.96 13.078 250.541 12.788 250.541C13.1167 251.344 13.5055 252.121 13.951 252.866L13.079 253.447C12.6334 252.702 12.2447 251.925 11.916 251.122C11.1129 251.451 10.3357 251.84 9.59102 252.285L9.01002 251.122L14.532 248.216ZM69.173 238.625C69.1305 234.01 68.1264 229.455 66.2249 225.251C64.3233 221.046 61.566 217.284 58.129 214.204L45.05 247.337C45.922 252.859 44.178 257.219 40.4 258.381C37.784 259.253 37.784 260.415 37.784 264.194V264.775C37.784 267.391 38.075 269.716 38.075 271.169C46.4502 270.783 54.3547 267.186 60.1464 261.124C65.9381 255.062 69.1716 247.001 69.175 238.617M36.914 237.745L37.205 236.582C37.786 233.676 39.821 233.966 41.274 231.35C42.727 228.734 48.249 215.95 51.447 209.842C46.9636 207.499 41.9703 206.302 36.912 206.357C31.8546 206.303 26.8623 207.501 22.38 209.844C25.286 216.238 32.262 231.352 32.553 231.352C34.006 234.258 36.041 233.677 36.622 236.584L36.914 237.745ZM36.623 241.523C35.3024 241.224 34.1002 240.539 33.1689 239.556C32.2375 238.573 31.6188 237.336 31.391 236.001C31.2404 234.843 31.2404 233.671 31.391 232.513L21.509 209.843C20.6714 210.221 19.8887 210.71 19.182 211.297C22.088 217.982 31.389 238.617 31.389 238.617C32.842 241.523 35.458 241.817 36.33 243.558C36.6661 244.187 36.8642 244.881 36.911 245.593H37.2C37.2154 244.876 37.4155 244.176 37.781 243.559C38.653 241.815 41.269 241.815 42.722 238.618C42.722 238.618 51.732 217.982 54.929 211.298C54.057 210.717 53.476 210.426 52.604 209.845L42.722 232.515C42.8726 233.673 42.8726 234.845 42.722 236.003C42.187 237.324 41.3605 238.506 40.3042 239.462C39.2479 240.419 37.9891 241.124 36.622 241.525L36.623 241.523ZM36.623 249.952C31.391 248.789 29.648 244.139 29.648 239.779L18.313 211.879C17.5748 212.387 16.8926 212.971 16.278 213.623C18.894 219.436 29.938 246.175 29.938 246.466C31.973 251.407 35.46 249.666 36.332 253.732C36.4994 254.2 36.5975 254.689 36.623 255.185H36.914C36.9667 254.693 37.0641 254.207 37.205 253.732C38.077 249.663 41.565 251.407 43.599 246.466C43.599 246.466 54.934 219.727 57.259 213.623C56.678 213.042 55.806 212.46 55.224 211.879L43.889 239.779C44.0798 242.061 43.454 244.336 42.1232 246.199C40.7925 248.062 38.8432 249.392 36.623 249.952ZM35.17 271.169C35.4414 269.049 35.5387 266.911 35.461 264.775V264.197C35.461 260.419 35.461 259.256 32.845 258.384C29.067 257.221 27.323 252.862 28.195 247.34L15.113 214.204C11.6769 217.283 8.92009 221.044 7.01856 225.247C5.11703 229.451 4.11249 234.005 4.06902 238.618C4.12106 246.988 7.37064 255.021 13.1524 261.072C18.9341 267.124 26.8106 270.736 35.169 271.17M57.258 233.386C57.258 230.48 57.839 228.154 59.874 228.154C61.909 228.154 62.49 230.479 62.49 233.386C62.49 236.293 61.909 238.618 59.874 238.618C57.839 238.327 57.258 236.002 57.258 233.386ZM53.48 233.386C53.48 237.746 55.515 240.943 59.874 240.943C64.233 240.943 66.268 237.743 66.268 233.386C66.268 229.029 64.233 225.829 59.874 225.829C55.514 225.538 53.48 229.029 53.48 233.386ZM38.08 218.854H34.88L36.333 212.46H36.624L38.08 218.854ZM39.533 224.667H43.021L38.946 209.844H34.586L30.227 224.667H33.427L34.299 221.467H38.659L39.533 224.667ZM9.01002 240.653H12.21V234.553H17.732V231.933H12.207V228.446H18.02V225.83H9.01002V240.653ZM36.621 224.086C38.0808 225.623 39.0866 227.534 39.527 229.608C39.5947 230.454 39.3284 231.293 38.7852 231.945C38.2421 232.597 37.4652 233.01 36.621 233.096C36.2007 233.059 35.7918 232.94 35.4179 232.744C35.044 232.548 34.7124 232.281 34.4424 231.957C34.1723 231.632 33.969 231.258 33.8441 230.855C33.7193 230.452 33.6754 230.028 33.715 229.608C34.1554 227.534 35.1612 225.623 36.621 224.086ZM36.621 275.239C29.3781 275.239 22.2978 273.091 16.2755 269.067C10.2532 265.043 5.55938 259.324 2.78762 252.632C0.0158672 245.941 -0.709351 238.577 0.703679 231.474C2.11671 224.37 5.60452 217.845 10.7261 212.723C15.8476 207.602 22.3728 204.114 29.4766 202.701C36.5804 201.288 43.9437 202.013 50.6353 204.785C57.3269 207.556 63.0463 212.25 67.0703 218.273C71.0942 224.295 73.242 231.375 73.242 238.618C73.242 248.331 69.3837 257.645 62.516 264.513C55.6482 271.381 46.3335 275.239 36.621 275.239Z" fill="#5491C8"/>
<path d="M86.9014 209.845H94.1674V211.88H89.5174V215.658H93.8774V217.983H89.5174V224.083H86.9014V209.845Z" fill="#5491C8"/>
<path d="M99.9811 222.341C101.725 222.341 102.016 220.306 102.016 218.563C102.016 216.82 101.725 214.785 99.9811 214.785C98.2371 214.785 97.9461 216.529 97.9461 218.563C97.9461 220.597 98.2371 222.341 99.9811 222.341ZM99.9811 213.331C102.016 213.331 104.631 214.494 104.631 218.853C104.631 223.212 102.015 224.375 99.9811 224.375C97.9471 224.375 95.3311 223.212 95.3311 218.853C95.3311 214.494 97.6561 213.331 99.9811 213.331Z" fill="#5491C8"/>
<path d="M111.026 222.341C112.77 222.341 113.061 220.306 113.061 218.563C113.061 216.82 112.77 214.785 111.026 214.785C109.282 214.785 108.991 216.529 108.991 218.563C108.991 220.597 109.282 222.341 111.026 222.341ZM111.026 213.331C113.061 213.331 115.676 214.494 115.676 218.853C115.676 223.212 113.06 224.375 111.026 224.375C108.992 224.375 106.376 223.212 106.376 218.853C106.376 214.494 108.701 213.331 111.026 213.331Z" fill="#5491C8"/>
<path d="M121.78 222.343C123.233 222.343 123.815 220.599 123.815 218.565C123.815 216.531 123.234 215.077 121.78 215.077C120.326 215.077 119.745 216.53 119.745 218.565C120.036 221.181 120.326 222.343 121.78 222.343ZM126.43 208.683V224.083H124.105V222.343C123.881 222.913 123.474 223.393 122.949 223.709C122.423 224.024 121.808 224.157 121.199 224.087C118.583 224.087 117.421 221.471 117.421 218.565C117.421 215.077 118.874 213.043 121.199 213.043C121.764 213.014 122.324 213.168 122.795 213.482C123.267 213.796 123.624 214.253 123.815 214.787V208.392H126.43V208.683Z" fill="#5491C8"/>
<path d="M139.508 218.853C137.183 218.853 135.73 219.434 135.73 220.888C135.721 221.12 135.759 221.351 135.843 221.567C135.927 221.783 136.056 221.979 136.22 222.143C136.383 222.306 136.58 222.434 136.796 222.519C137.012 222.603 137.243 222.641 137.474 222.631C138.927 222.631 139.509 221.468 139.509 219.725L139.508 218.853ZM134.567 214.203C135.64 213.629 136.839 213.33 138.055 213.331C141.255 213.331 142.124 215.075 142.124 217.691V222.341C142.124 223.213 142.124 223.794 142.415 224.085H140.093C139.968 223.607 139.871 223.122 139.802 222.632C139.512 223.151 139.09 223.585 138.58 223.891C138.069 224.196 137.488 224.363 136.893 224.375C136.467 224.397 136.042 224.329 135.644 224.176C135.246 224.022 134.884 223.788 134.582 223.486C134.281 223.184 134.046 222.823 133.893 222.425C133.74 222.027 133.672 221.601 133.693 221.175C133.693 218.269 136.018 217.687 139.215 217.687H139.796V217.396C139.828 217.121 139.797 216.843 139.706 216.581C139.615 216.32 139.466 216.083 139.27 215.887C139.075 215.691 138.837 215.542 138.576 215.451C138.315 215.36 138.036 215.329 137.761 215.361C136.684 215.386 135.652 215.802 134.858 216.531L134.567 214.203Z" fill="#5491C8"/>
<path d="M144.45 215.367V213.623H146.775V215.367C147.048 214.833 147.465 214.386 147.979 214.078C148.493 213.77 149.083 213.612 149.682 213.623C152.007 213.623 152.882 215.367 152.882 217.692V224.667H150.263V218.274C150.263 216.53 149.972 215.949 148.81 215.949C147.357 215.949 147.066 217.112 147.066 218.565V224.665H144.45V215.365V215.367Z" fill="#5491C8"/>
<path d="M159.272 222.343C160.725 222.343 161.307 220.599 161.307 218.565C161.307 216.531 160.726 215.077 159.272 215.077C157.818 215.077 157.237 216.53 157.237 218.565C157.237 221.181 157.818 222.343 159.272 222.343ZM163.922 208.683V224.083H161.597V222.343C161.373 222.913 160.966 223.393 160.441 223.709C159.915 224.024 159.3 224.157 158.691 224.087C156.075 224.087 154.913 221.471 154.913 218.565C154.913 215.077 156.366 213.043 158.691 213.043C159.257 213.014 159.816 213.168 160.288 213.482C160.759 213.796 161.116 214.253 161.307 214.787V208.392H163.922V208.683Z" fill="#5491C8"/>
<path d="M177.583 218.565L175.839 211.88L173.804 218.565H177.583ZM177.874 220.599H172.932L171.769 224.087H169.154L174.095 209.555H177.001L181.654 224.087H179.036L177.874 220.599Z" fill="#5491C8"/>
<path d="M187.173 222.341C188.917 222.341 189.498 221.178 189.498 218.853C189.498 216.528 188.626 215.365 187.463 215.365C186.01 215.365 185.719 216.528 185.719 218.853C185.428 221.178 186.301 222.341 187.173 222.341ZM183.394 225.831C184.377 226.372 185.474 226.67 186.594 226.703C188.919 226.703 189.5 224.959 189.5 223.215V222.341C189.276 222.912 188.87 223.392 188.344 223.708C187.819 224.023 187.203 224.156 186.594 224.085C185.141 224.085 182.816 223.213 182.816 218.853C182.816 215.947 183.979 213.331 186.594 213.331C187.189 213.343 187.77 213.511 188.279 213.817C188.789 214.123 189.21 214.556 189.5 215.075V213.331H191.823V222.922C191.823 226.122 190.951 228.735 186.882 228.735C185.599 228.756 184.322 228.559 183.104 228.154L183.394 225.831Z" fill="#5491C8"/>
<path d="M194.149 215.368V213.624H196.474V215.659C196.645 215.09 196.988 214.588 197.457 214.223C197.926 213.859 198.497 213.649 199.09 213.624H199.381V215.949H198.8C197.637 215.949 196.475 216.53 196.475 218.565V224.378H193.858V215.368H194.149Z" fill="#5491C8"/>
<path d="M201.707 213.623H204.323V224.373H201.707V213.623ZM201.707 208.973H204.323V211.589H201.707V208.973Z" fill="#5491C8"/>
<path d="M213.913 223.795C213.07 224.071 212.18 224.17 211.297 224.086C207.809 224.086 206.356 221.761 206.356 218.564C206.269 217.843 206.342 217.111 206.57 216.422C206.798 215.732 207.175 215.101 207.675 214.574C208.174 214.047 208.784 213.636 209.46 213.371C210.137 213.106 210.863 212.994 211.588 213.042C212.46 213.042 213.332 213.333 213.913 213.333L213.622 215.367C213.092 215.045 212.495 214.846 211.878 214.786C209.843 214.786 208.972 215.949 208.972 218.274C208.972 220.308 209.844 221.762 211.878 221.762C212.504 221.748 213.112 221.546 213.622 221.181L213.913 223.795Z" fill="#5491C8"/>
<path d="M223.796 222.342V224.086H221.467V222.342C221.209 222.885 220.796 223.341 220.28 223.651C219.764 223.961 219.168 224.112 218.567 224.086C216.242 224.086 215.367 222.342 215.367 220.017V213.042H217.983V219.727C217.983 221.471 218.564 222.052 219.436 222.052C220.889 222.052 221.18 220.889 221.18 219.436V213.336H223.796V222.342Z" fill="#5491C8"/>
<path d="M226.411 208.682H229.027V224.082H226.411V208.682Z" fill="#5491C8"/>
<path d="M232.515 211.298L235.131 210.426V213.332H237.165V215.076H235.131V220.598C235.131 221.761 235.422 222.051 236.294 222.051C236.875 222.051 237.166 222.051 237.166 221.76V223.504C236.875 223.795 236.294 223.795 235.422 223.795C233.387 223.795 232.516 222.923 232.516 220.595V214.786H230.771V213.042H232.515V211.298Z" fill="#5491C8"/>
<path d="M247.338 222.342V224.086H245.009V222.342C244.751 222.885 244.338 223.341 243.822 223.651C243.306 223.961 242.71 224.112 242.109 224.086C239.784 224.086 238.909 222.342 238.909 220.017V213.042H241.525V219.727C241.525 221.471 242.106 222.052 242.978 222.052C244.431 222.052 244.722 220.889 244.722 219.436V213.336H247.338V222.342Z" fill="#5491C8"/>
<path d="M249.662 215.368V213.624H251.987V215.659C252.157 215.09 252.501 214.588 252.97 214.223C253.439 213.859 254.01 213.649 254.603 213.624H254.894V215.949H254.313C253.15 215.949 251.988 216.53 251.988 218.565V224.378H249.371V215.368H249.662Z" fill="#5491C8"/>
<path d="M91.8442 245.594C93.5882 245.594 94.7502 244.141 94.7502 240.072C94.7502 236.003 93.2972 234.55 91.8442 234.55C90.1002 234.55 88.9382 236.003 88.9382 240.072C88.9382 244.141 90.3912 245.594 91.8442 245.594ZM91.8442 232.806C94.7502 232.806 97.6573 235.131 97.6573 240.072C97.6573 245.304 95.0412 247.338 91.8442 247.338C88.9382 247.338 86.0312 245.013 86.0312 240.072C86.3223 235.131 88.9372 232.806 91.8442 232.806Z" fill="#5491C8"/>
<path d="M99.9814 238.618V236.874H102.306V238.908C102.477 238.339 102.821 237.838 103.289 237.473C103.758 237.108 104.329 236.899 104.922 236.874H105.213V239.199H104.632C103.469 239.199 102.307 239.78 102.307 241.815V247.628H99.6904V238.618H99.9814Z" fill="#5491C8"/>
<path d="M111.026 245.594C112.77 245.594 113.351 244.431 113.351 242.106C113.351 239.781 112.479 238.618 111.316 238.618C109.863 238.618 109.572 239.781 109.572 242.106C109.281 244.431 110.153 245.594 111.025 245.594M107.247 249.084C108.229 249.624 109.326 249.923 110.447 249.956C112.772 249.956 113.353 248.212 113.353 246.468V245.594C113.129 246.164 112.722 246.645 112.197 246.96C111.671 247.276 111.056 247.408 110.447 247.338C108.994 247.338 106.669 246.466 106.669 242.106C106.669 239.2 107.832 236.584 110.447 236.584C111.041 236.596 111.622 236.764 112.132 237.07C112.642 237.376 113.062 237.809 113.353 238.328V236.584H115.676V246.175C115.676 249.375 114.804 251.988 110.735 251.988C109.452 252.009 108.175 251.812 106.957 251.407L107.247 249.084Z" fill="#5491C8"/>
<path d="M123.523 242.106C121.198 242.106 119.745 242.687 119.745 244.141C119.735 244.373 119.774 244.604 119.858 244.82C119.942 245.036 120.07 245.232 120.234 245.396C120.398 245.559 120.594 245.687 120.81 245.772C121.026 245.856 121.257 245.894 121.489 245.884C122.942 245.884 123.524 244.721 123.524 242.978L123.523 242.106ZM118.582 237.456C119.655 236.882 120.853 236.583 122.07 236.584C125.27 236.584 126.139 238.328 126.139 240.944V245.594C126.139 246.466 126.139 247.047 126.43 247.338H123.814V245.884C123.524 246.403 123.103 246.836 122.593 247.142C122.083 247.448 121.502 247.616 120.908 247.628C120.482 247.65 120.056 247.582 119.658 247.429C119.26 247.275 118.899 247.04 118.597 246.739C118.296 246.437 118.061 246.076 117.907 245.678C117.754 245.28 117.686 244.854 117.708 244.428C117.708 241.522 120.033 240.94 123.23 240.94H123.811V240.649C123.843 240.374 123.812 240.096 123.72 239.835C123.629 239.573 123.48 239.336 123.285 239.141C123.089 238.945 122.852 238.796 122.59 238.705C122.329 238.614 122.051 238.583 121.776 238.615C120.699 238.639 119.667 239.055 118.873 239.784L118.582 237.456Z" fill="#5491C8"/>
<path d="M128.173 238.618V236.874H130.498V238.618C130.77 238.084 131.187 237.637 131.701 237.329C132.215 237.021 132.806 236.863 133.405 236.874C135.73 236.874 136.605 238.618 136.605 240.943V247.918H133.986V241.525C133.986 239.781 133.695 239.2 132.533 239.2C131.08 239.2 130.789 240.363 130.789 241.816V247.916H128.173V238.616V238.618Z" fill="#5491C8"/>
<path d="M139.219 236.875H141.835V247.625H139.219V236.875ZM139.219 232.225H141.835V234.841H139.219V232.225Z" fill="#5491C8"/>
<path d="M143.868 245.303L148.228 238.618H143.868V236.874H150.843V238.908L146.483 245.593H151.133V247.337H143.868V245.303Z" fill="#5491C8"/>
<path d="M158.401 242.106C156.076 242.106 154.623 242.687 154.623 244.141C154.613 244.372 154.652 244.603 154.736 244.819C154.82 245.035 154.948 245.231 155.112 245.395C155.276 245.559 155.472 245.687 155.688 245.771C155.903 245.855 156.134 245.894 156.366 245.884C157.819 245.884 158.401 244.721 158.401 242.978V242.106ZM153.169 237.456C154.242 236.882 155.44 236.583 156.657 236.584C159.857 236.584 160.726 238.328 160.726 240.944V245.594C160.726 246.466 160.726 247.047 161.017 247.338H158.695C158.57 246.86 158.472 246.375 158.404 245.885C158.113 246.404 157.692 246.838 157.181 247.143C156.671 247.449 156.09 247.616 155.495 247.628C155.069 247.65 154.643 247.582 154.245 247.429C153.847 247.275 153.486 247.04 153.184 246.739C152.882 246.437 152.648 246.076 152.494 245.678C152.341 245.28 152.273 244.854 152.295 244.428C152.295 241.522 154.62 240.94 157.817 240.94H158.398V240.649C158.429 240.374 158.398 240.096 158.307 239.835C158.216 239.573 158.067 239.336 157.872 239.141C157.676 238.945 157.439 238.796 157.177 238.705C156.916 238.614 156.638 238.583 156.363 238.615C155.285 238.639 154.254 239.055 153.46 239.784L153.169 237.456Z" fill="#5491C8"/>
<path d="M163.923 234.55L166.539 233.678V236.584H168.574V238.328H166.539V243.85C166.539 245.013 166.83 245.303 167.702 245.303C168.283 245.303 168.574 245.303 168.574 245.012V246.756C168.283 247.047 167.702 247.047 166.83 247.047C164.795 247.047 163.924 246.175 163.924 243.847V238.038H162.179V236.294H163.923V234.55Z" fill="#5491C8"/>
<path d="M170.606 236.875H173.222V247.625H170.606V236.875ZM170.606 232.225H173.222V234.841H170.606V232.225Z" fill="#5491C8"/>
<path d="M180.199 245.884C181.943 245.884 182.234 243.849 182.234 242.106C182.234 240.363 181.943 238.328 180.199 238.328C178.455 238.328 178.164 240.072 178.164 242.106C178.164 244.14 178.455 245.884 180.199 245.884ZM180.199 236.584C182.234 236.584 184.849 237.747 184.849 242.106C184.849 246.465 182.233 247.628 180.199 247.628C178.165 247.628 175.549 246.465 175.549 242.106C175.258 237.746 177.874 236.584 180.199 236.584Z" fill="#5491C8"/>
<path d="M186.884 238.618V236.874H189.209V238.618C189.481 238.084 189.898 237.637 190.412 237.329C190.926 237.021 191.517 236.863 192.116 236.874C194.441 236.874 195.316 238.618 195.316 240.943V247.918H192.697V241.525C192.697 239.781 192.406 239.2 191.244 239.2C189.791 239.2 189.5 240.363 189.5 241.816V247.916H186.884V238.618Z" fill="#5491C8"/>
<path d="M207.228 245.884C208.972 245.884 209.263 243.849 209.263 242.106C209.263 240.363 208.972 238.328 207.228 238.328C205.484 238.328 205.194 240.072 205.194 242.106C205.194 244.14 205.484 245.884 207.228 245.884ZM207.228 236.584C209.263 236.584 211.878 237.747 211.878 242.106C211.878 246.465 209.262 247.628 207.228 247.628C205.194 247.628 202.578 246.465 202.578 242.106C202.578 237.747 205.194 236.584 207.228 236.584Z" fill="#5491C8"/>
<path d="M214.785 238.618H213.041V236.874H214.785V234.839C214.785 233.386 215.366 231.933 217.985 231.933C218.566 231.933 219.438 231.933 219.729 232.224V233.968C219.438 233.968 219.148 233.677 218.857 233.677C217.985 233.677 217.694 234.258 217.694 235.13V236.874H219.729V238.618H217.691V247.333H215.075V238.618H214.785Z" fill="#5491C8"/>
<path d="M226.992 234.55L229.608 233.678V236.584H231.643V238.328H229.608V243.85C229.608 245.013 229.899 245.303 230.771 245.303C231.352 245.303 231.643 245.303 231.643 245.012V246.756C231.352 247.047 230.771 247.047 229.899 247.047C227.865 247.047 226.993 246.175 226.993 243.847V238.038H225.248V236.294H226.992V234.55Z" fill="#5491C8"/>
<path d="M233.386 231.933H236.002V238.033C236.295 237.604 236.684 237.249 237.138 236.996C237.592 236.744 238.099 236.601 238.618 236.58C240.943 236.58 241.818 238.324 241.818 240.649V247.624H239.199V241.233C239.199 239.489 238.908 238.908 237.746 238.908C236.293 238.908 236.002 240.071 236.002 241.524V247.624H233.386V231.933Z" fill="#5491C8"/>
<path d="M249.953 241.234C249.953 239.49 249.372 238.328 248.209 238.328C246.756 238.328 246.175 239.781 246.175 241.234H249.953ZM251.988 247.047C250.974 247.464 249.883 247.662 248.788 247.628C248.101 247.677 247.412 247.572 246.77 247.322C246.129 247.072 245.551 246.683 245.078 246.182C244.605 245.682 244.249 245.082 244.037 244.428C243.824 243.773 243.759 243.079 243.847 242.396C243.847 239.196 245.591 236.874 248.207 236.874C250.532 236.874 252.567 238.327 252.567 242.687V243.268H246.467C246.467 245.012 247.048 246.174 249.083 246.174C250.112 246.151 251.116 245.85 251.989 245.302L251.988 247.047Z" fill="#5491C8"/>
<path d="M89.2283 256.348V265.648C89.2283 267.973 89.8093 268.848 91.5533 268.848C93.0063 268.848 93.8783 267.976 93.8783 265.648V256.348H96.4943V265.648C96.4943 266.958 95.9737 268.215 95.0471 269.141C94.1205 270.068 92.8637 270.589 91.5533 270.589C90.2429 270.589 88.9861 270.068 88.0595 269.141C87.1329 268.215 86.6123 266.958 86.6123 265.648V256.348H89.2283Z" fill="#5491C8"/>
<path d="M99.1094 261.869V260.125H101.434V261.869C101.707 261.335 102.124 260.888 102.638 260.58C103.152 260.272 103.742 260.114 104.341 260.125C106.666 260.125 107.541 261.869 107.541 264.194V271.169H104.922V264.776C104.922 263.032 104.631 262.451 103.469 262.451C102.016 262.451 101.725 263.614 101.725 265.067V271.167H99.1094V261.867V261.869Z" fill="#5491C8"/>
<path d="M109.864 260.126H112.48V270.876H109.864V260.126ZM109.864 255.476H112.48V258.092H109.864V255.476Z" fill="#5491C8"/>
<path d="M115.967 258.091L118.583 257.219V260.125H120.618V261.869H118.583V267.391C118.583 268.554 118.874 268.844 119.746 268.844C120.327 268.844 120.618 268.844 120.618 268.553V270.297C120.327 270.588 119.746 270.588 118.874 270.588C116.839 270.588 115.968 269.716 115.968 267.388V261.579H114.223V259.835H115.967V258.091Z" fill="#5491C8"/>
<path d="M128.172 264.486C128.172 262.742 127.591 261.58 126.428 261.58C124.975 261.58 124.393 263.033 124.393 264.486H128.172ZM130.207 270.299C129.194 270.716 128.103 270.914 127.007 270.88C126.321 270.929 125.631 270.824 124.99 270.574C124.348 270.324 123.77 269.935 123.298 269.434C122.825 268.934 122.469 268.334 122.256 267.68C122.043 267.025 121.978 266.331 122.066 265.648C122.066 262.448 123.81 260.126 126.426 260.126C128.751 260.126 130.786 261.579 130.786 265.939V266.226H124.686C124.686 267.97 125.267 269.132 127.302 269.132C128.332 269.109 129.336 268.807 130.208 268.26L130.207 270.299Z" fill="#5491C8"/>
<path d="M136.894 269.137C138.347 269.137 138.929 267.393 138.929 265.359C138.929 263.325 138.348 261.871 136.894 261.871C135.44 261.871 134.859 263.324 134.859 265.359C134.859 267.684 135.44 269.137 136.894 269.137ZM141.544 255.186V270.586H139.219V268.842C138.995 269.412 138.588 269.892 138.063 270.208C137.537 270.523 136.922 270.656 136.313 270.586C133.697 270.586 132.535 267.97 132.535 265.064C132.535 261.576 133.988 259.542 136.313 259.542C136.879 259.513 137.438 259.667 137.91 259.981C138.381 260.295 138.738 260.752 138.929 261.286V254.895H141.544V255.186Z" fill="#5491C8"/>
<path d="M149.39 256.348H152.59L157.531 267.683V256.348H159.856V270.88H156.656L152.006 259.548V270.883H149.39V256.348Z" fill="#5491C8"/>
<path d="M167.991 265.648C165.666 265.648 164.213 266.229 164.213 267.683C164.203 267.915 164.241 268.146 164.325 268.362C164.41 268.578 164.538 268.774 164.702 268.938C164.866 269.102 165.062 269.23 165.278 269.314C165.494 269.399 165.725 269.437 165.957 269.427C167.41 269.427 167.992 268.264 167.992 266.521L167.991 265.648ZM163.05 260.707C164.123 260.133 165.321 259.834 166.538 259.835C169.738 259.835 170.607 261.579 170.607 264.195V268.845C170.607 269.717 170.607 270.298 170.898 270.589H168.576C168.45 270.111 168.353 269.626 168.285 269.136C167.994 269.655 167.572 270.089 167.062 270.394C166.552 270.7 165.971 270.867 165.376 270.879C164.95 270.901 164.524 270.833 164.126 270.68C163.728 270.526 163.366 270.291 163.065 269.99C162.763 269.688 162.528 269.327 162.375 268.929C162.222 268.531 162.154 268.105 162.176 267.679C162.176 264.773 164.501 264.191 167.698 264.191H168.279V263.9C168.31 263.625 168.279 263.347 168.188 263.086C168.097 262.824 167.948 262.587 167.752 262.392C167.557 262.196 167.319 262.047 167.058 261.956C166.797 261.865 166.519 261.834 166.244 261.866C165.166 261.89 164.135 262.306 163.341 263.035L163.05 260.707Z" fill="#5491C8"/>
<path d="M173.805 258.091L176.421 257.219V260.125H178.456V261.869H176.421V267.391C176.421 268.554 176.712 268.844 177.584 268.844C178.165 268.844 178.456 268.844 178.456 268.553V270.297C178.165 270.588 177.584 270.588 176.712 270.588C174.677 270.588 173.806 269.716 173.806 267.388V261.579H172.061V259.835H173.805V258.091Z" fill="#5491C8"/>
<path d="M180.198 260.126H182.814V270.876H180.198V260.126ZM180.198 255.476H182.814V258.092H180.198V255.476Z" fill="#5491C8"/>
<path d="M189.79 269.135C191.534 269.135 191.825 267.1 191.825 265.357C191.825 263.614 191.534 261.579 189.79 261.579C188.046 261.579 187.756 263.323 187.756 265.357C187.756 267.101 188.337 269.135 189.79 269.135ZM189.79 259.835C191.825 259.835 194.44 260.998 194.44 265.357C194.44 269.716 191.824 270.879 189.79 270.879C187.756 270.879 185.14 269.716 185.14 265.357C185.14 260.998 187.756 259.835 189.79 259.835Z" fill="#5491C8"/>
<path d="M196.475 261.869V260.125H198.8V261.869C199.072 261.335 199.489 260.888 200.003 260.58C200.517 260.272 201.107 260.114 201.707 260.125C204.032 260.125 204.907 261.869 204.907 264.194V271.169H202.288V264.776C202.288 263.032 201.997 262.451 200.835 262.451C199.382 262.451 199.091 263.614 199.091 265.067V271.167H196.475V261.869Z" fill="#5491C8"/>
<path d="M206.937 268.264C207.739 268.696 208.644 268.897 209.553 268.845C210.425 268.845 211.297 268.554 211.297 267.682C211.297 267.391 211.006 266.81 210.134 266.229L208.971 265.648C208.347 265.436 207.796 265.05 207.383 264.535C206.971 264.02 206.716 263.398 206.646 262.742C206.646 261.289 208.099 259.836 210.424 259.836C211.303 259.861 212.178 259.959 213.04 260.127L212.749 262.161C212.027 261.798 211.233 261.6 210.424 261.58C209.261 261.58 208.971 261.871 208.971 262.743C208.971 263.324 209.552 263.615 210.134 264.196L211.297 265.068C212.75 265.94 213.332 266.521 213.332 267.684C213.332 269.719 211.588 270.884 209.263 270.884C208.261 270.925 207.264 270.724 206.356 270.298L206.937 268.264Z" fill="#5491C8"/>
<path d="M507.463 225.83C505.229 225.12 503.272 223.73 501.865 221.854C500.458 219.979 499.672 217.711 499.616 215.367C499.569 214.485 499.668 213.601 499.908 212.751L506.883 213.623C506.883 213.623 509.499 213.623 509.499 218.564C509.585 221.138 508.873 223.675 507.463 225.83Z" fill="#41AEEF"/>
<path d="M513.566 225.83C515.801 225.12 517.757 223.73 519.164 221.854C520.571 219.979 521.357 217.711 521.413 215.367C521.462 214.485 521.366 213.601 521.127 212.751L514.152 213.623C514.152 213.623 511.536 213.623 511.536 218.564C511.45 221.138 512.161 223.675 513.571 225.83" fill="#41AEEF"/>
<path d="M510.369 207.518C510.822 207.549 511.248 207.743 511.568 208.063C511.889 208.384 512.083 208.81 512.113 209.262C512.058 209.583 511.922 209.884 511.718 210.138C511.515 210.392 511.251 210.591 510.95 210.715V211.006C511.107 211.164 511.311 211.267 511.531 211.297L521.122 212.46C520.412 210.226 519.022 208.269 517.147 206.862C515.272 205.455 513.004 204.669 510.66 204.612C508.302 204.612 506.008 205.377 504.121 206.792C502.235 208.207 500.858 210.196 500.197 212.459L509.788 211.296C510.079 211.296 510.369 211.296 510.369 211.005V210.712C510.069 210.588 509.804 210.389 509.601 210.135C509.398 209.881 509.262 209.58 509.206 209.259C509.132 209.068 509.105 208.861 509.128 208.657C509.15 208.452 509.221 208.257 509.335 208.086C509.449 207.915 509.603 207.774 509.783 207.674C509.963 207.575 510.164 207.521 510.369 207.515" fill="#41AEEF"/>
<path d="M514.729 233.387L515.31 233.096C514.082 231.708 512.554 230.62 510.841 229.915C509.128 229.21 507.276 228.906 505.428 229.027C501.94 229.027 500.196 230.48 497.581 230.48C496.869 230.433 496.176 230.235 495.547 229.899C495.547 229.899 496.71 231.643 500.779 231.643C503.979 231.643 506.011 229.899 508.336 229.899C509.588 229.993 510.806 230.352 511.909 230.954C513.011 231.555 513.972 232.385 514.729 233.387Z" fill="#41AEEF"/>
<path d="M505.429 233.387L504.848 233.096C506.075 231.708 507.604 230.62 509.317 229.915C511.03 229.21 512.881 228.906 514.73 229.027C518.218 229.027 519.962 230.48 522.577 230.48C523.288 230.433 523.982 230.235 524.611 229.899C524.611 229.899 523.448 231.643 519.379 231.643C516.179 231.643 514.147 229.899 511.822 229.899C510.569 229.993 509.351 230.352 508.249 230.954C507.146 231.555 506.185 232.385 505.428 233.387" fill="#41AEEF"/>
<path d="M502.231 228.736C502.231 229.027 500.778 228.736 499.906 229.027C498.212 229.409 496.438 229.181 494.896 228.384C493.354 227.586 492.143 226.27 491.477 224.667C492.484 225.856 493.787 226.758 495.255 227.283C497.063 227.494 498.828 227.984 500.487 228.736H500.778C500.778 228.659 500.747 228.585 500.692 228.53C500.638 228.476 500.564 228.445 500.487 228.445C500.196 228.445 498.743 227.864 497.871 225.245C497.765 224.261 497.571 223.288 497.29 222.339C497.29 222.339 499.034 224.373 499.906 225.539C500.487 226.411 500.487 227.864 502.231 228.739" fill="#41AEEF"/>
<path d="M496.71 225.829H496.129C495.412 225.403 494.625 225.107 493.804 224.957C492.566 224.339 491.527 223.383 490.807 222.201C490.088 221.018 489.716 219.657 489.735 218.272C489.95 219.187 490.46 220.004 491.188 220.597C492.025 221.202 492.803 221.883 493.513 222.632C494.23 223.554 495.007 224.428 495.838 225.248V224.957C495.592 224.448 495.3 223.961 494.966 223.504C494.558 222.641 494.346 221.698 494.346 220.743C494.346 219.789 494.558 218.846 494.966 217.982C495.685 219.327 496.083 220.819 496.129 222.342C496.129 224.377 495.838 224.086 496.42 225.83C496.711 225.249 496.711 225.83 496.711 225.83" fill="#41AEEF"/>
<path d="M493.512 220.599C493.276 220.338 493.081 220.044 492.931 219.727C492.164 218.928 491.482 218.051 490.897 217.111C490.241 216.249 489.84 215.221 489.737 214.144C489.634 213.066 489.835 211.981 490.316 211.011V211.883C490.546 213.136 491.042 214.325 491.769 215.371C492.452 216.305 492.856 217.415 492.932 218.571C492.932 218.648 492.962 218.722 493.017 218.777C493.071 218.831 493.145 218.862 493.223 218.862V216.53C493.195 215.99 493.284 215.451 493.485 214.949C493.686 214.447 493.993 213.995 494.386 213.624C494.621 213.363 494.817 213.069 494.967 212.752C494.988 212.529 495.092 212.321 495.258 212.171C495.406 213.649 495.207 215.142 494.677 216.531C493.805 218.565 493.514 219.147 493.805 220.309C493.727 220.309 493.653 220.339 493.599 220.394C493.544 220.449 493.514 220.523 493.514 220.6" fill="#41AEEF"/>
<path d="M492.059 214.494C492.038 214.271 491.934 214.064 491.768 213.913C491.708 213.296 491.509 212.7 491.187 212.169C490.553 211.227 490.247 210.103 490.315 208.969C490.374 206.988 491.209 205.109 492.64 203.737C492.581 204.265 492.381 204.767 492.059 205.19C491.768 206.353 491.768 207.224 492.059 207.515C492.059 207.806 492.35 208.968 492.35 209.549C492.416 210.336 492.317 211.128 492.059 211.874V212.165L492.35 211.874C492.403 211.03 492.707 210.22 493.222 209.549C494.094 208.386 495.838 207.805 496.128 207.224C495.944 208.693 495.219 210.04 494.094 211.002C492.35 212.746 492.931 211.874 492.35 213.327C492.35 213.618 492.059 214.199 492.059 214.49" fill="#41AEEF"/>
<path d="M493.222 208.392C493.258 208.084 493.357 207.787 493.513 207.52C493.804 206.939 493.513 206.067 493.804 204.614C494.018 203.482 494.499 202.417 495.206 201.507C495.914 200.597 496.827 199.869 497.872 199.382C497.714 199.538 497.611 199.743 497.581 199.963C497.581 200.254 496.709 201.707 496.418 202.579C495.989 203.67 495.504 204.738 494.965 205.779L494.674 206.07C494.751 206.07 494.825 206.039 494.879 205.985C494.934 205.93 494.965 205.856 494.965 205.779C495.256 205.488 496.128 204.326 496.999 204.326C498.162 204.035 499.615 203.745 499.615 203.454C498.575 204.478 497.401 205.358 496.127 206.07C494.383 206.942 494.383 206.651 493.221 207.814C493.26 207.851 493.292 207.896 493.313 207.946C493.335 207.996 493.346 208.05 493.346 208.104C493.346 208.159 493.335 208.213 493.313 208.262C493.292 208.312 493.26 208.357 493.221 208.395" fill="#41AEEF"/>
<path d="M497 203.16C497.021 202.937 497.125 202.729 497.291 202.579C497.582 202.288 497.872 201.416 498.454 200.545C498.908 199.672 499.569 198.923 500.38 198.365C501.191 197.807 502.126 197.457 503.104 197.345C502.698 197.611 502.31 197.902 501.941 198.217C501.941 198.508 500.778 199.67 500.488 199.961C499.861 200.513 499.18 201 498.454 201.414L498.163 201.705H498.454C499.134 201.206 499.939 200.904 500.779 200.833H503.685C502.44 201.585 501.056 202.079 499.616 202.286C497 202.867 497.582 202.867 497 203.158" fill="#41AEEF"/>
<path d="M502.232 199.672C502.232 199.672 502.232 199.381 502.813 199.381C503.394 199.381 503.104 198.8 504.557 197.928C505.182 197.486 505.906 197.202 506.665 197.101C507.424 197 508.197 197.084 508.917 197.347H508.332C507.819 197.461 507.329 197.658 506.879 197.928C506.179 198.39 505.384 198.688 504.554 198.8C503.973 198.8 504.263 199.091 504.263 199.091H504.554C505.338 199.09 506.119 199.188 506.879 199.382C507.751 199.673 507.751 199.963 508.042 199.963C508.346 200.013 508.64 200.111 508.914 200.254H507.461C506.549 200.342 505.633 200.139 504.845 199.673C504.264 199.382 503.392 199.092 503.101 199.382C502.52 199.963 502.229 199.963 502.229 199.673" fill="#41AEEF"/>
<path d="M507.754 199.091L508.335 198.8C508.626 198.8 508.916 198.509 509.788 198.219C510.423 198.046 511.088 198.008 511.739 198.108C512.39 198.208 513.012 198.444 513.566 198.8H512.694C512.694 198.8 510.95 199.091 510.659 199.091C510.368 199.091 509.496 198.8 509.496 199.091C509.769 199.234 510.064 199.332 510.368 199.382C510.368 199.382 510.949 199.382 511.821 200.254L512.984 201.417C512.098 201.172 511.224 200.881 510.368 200.545C509.84 200.216 509.352 199.825 508.915 199.382C508.512 199.364 508.116 199.265 507.752 199.091" fill="#41AEEF"/>
<path d="M512.404 199.963C513.211 199.992 514.003 200.19 514.729 200.544C515.601 201.125 516.473 201.997 516.473 202.288C516.473 202.288 515.892 201.707 515.601 201.707C515.059 201.527 514.562 201.229 514.148 200.835C513.857 200.835 512.695 199.963 512.404 199.963Z" fill="#41AEEF"/>
<path d="M518.508 228.733C518.769 228.498 519.062 228.302 519.38 228.152C519.994 227.466 520.485 226.679 520.833 225.827C521.427 224.561 522.326 223.461 523.449 222.627C523.317 223.005 523.219 223.394 523.158 223.79C523.052 224.713 522.755 225.604 522.286 226.406C521.414 227.278 521.414 227.569 520.542 228.15L520.251 228.441H520.832C521.105 228.299 521.4 228.2 521.704 228.15C521.995 228.15 522.867 227.569 523.157 227.569C523.447 227.569 523.738 227.278 524.61 226.988C526.554 226.648 528.309 225.616 529.551 224.082C529.551 224.082 529.26 225.245 528.679 225.535C528.021 226.567 527.121 227.423 526.059 228.031C524.996 228.639 523.802 228.979 522.579 229.023C521.891 229.018 521.207 228.92 520.545 228.732H519.382C519.091 228.732 518.51 229.023 518.51 228.732" fill="#41AEEF"/>
<path d="M525.774 217.691C525.009 219.139 524.516 220.715 524.321 222.341C524.03 225.247 524.612 224.375 524.03 225.541C524.03 225.541 523.739 225.832 524.03 225.832C524.03 225.832 524.321 225.832 525.193 225.251C526.065 224.67 526.937 224.96 528.681 222.926C529.973 221.237 530.777 219.225 531.005 217.11C530.803 217.355 530.699 217.666 530.714 217.982C530.699 218.165 530.638 218.341 530.537 218.494C530.435 218.647 530.296 218.771 530.133 218.854C530.133 218.854 528.099 221.179 527.808 221.47C527.517 221.761 526.355 223.214 526.064 223.504L524.901 224.667V224.376C525.257 223.83 525.549 223.245 525.773 222.632C525.993 221.977 526.091 221.288 526.064 220.597C526.064 220.016 525.774 217.981 525.774 217.691Z" fill="#41AEEF"/>
<path d="M527.517 220.308V219.727C527.523 219.132 527.425 218.54 527.227 217.979C526.633 216.59 526.241 215.123 526.064 213.623C526.064 212.17 526.355 211.879 526.355 211.879C526.47 212.391 526.666 212.882 526.936 213.332C526.936 213.623 528.389 215.657 528.099 216.82C528.099 217.983 527.808 218.273 528.099 218.273C528.177 218.273 528.251 218.242 528.305 218.188C528.36 218.133 528.39 218.059 528.39 217.982L528.971 216.238C529.867 214.852 530.644 213.394 531.296 211.878C531.6 213.482 531.289 215.142 530.424 216.528C528.971 218.853 528.971 218.272 528.39 219.434L527.518 220.306" fill="#41AEEF"/>
<path d="M528.678 213.913C528.678 213.913 528.678 213.041 528.387 212.75C527.033 211.292 526.125 209.477 525.771 207.518C525.771 207.518 526.935 208.975 527.225 208.975C527.515 208.975 528.388 210.138 528.678 210.719C528.846 211.187 528.944 211.676 528.969 212.172V211.3C528.964 210.42 529.061 209.542 529.26 208.684C529.26 207.812 529.841 206.65 529.551 205.778C530.124 206.639 530.427 207.651 530.423 208.684C530.322 209.886 530.027 211.064 529.551 212.172C529.49 212.568 529.393 212.957 529.26 213.335C528.969 213.916 528.679 213.916 528.679 213.916" fill="#41AEEF"/>
<path d="M526.355 201.415C527.3 202.287 528.009 203.384 528.415 204.603C528.822 205.823 528.913 207.126 528.68 208.39C528.68 208.39 528.68 208.681 528.389 208.39C528.098 208.099 527.517 207.518 527.517 207.227C526.035 206.212 524.754 204.931 523.739 203.449C523.816 203.449 523.89 203.48 523.945 203.534C524 203.589 524.03 203.663 524.03 203.74C524.351 204.046 524.756 204.249 525.193 204.321C525.731 204.511 526.225 204.808 526.646 205.193C527.227 205.774 527.518 206.356 527.808 206.646C527.808 206.646 528.099 206.646 527.808 206.355C527.808 206.064 527.808 205.774 527.227 205.192C526.901 204.559 526.704 203.868 526.646 203.158C526.646 202.577 526.646 201.706 526.355 201.415Z" fill="#41AEEF"/>
<path d="M525.774 203.159C525.738 202.851 525.639 202.554 525.483 202.287C525.192 201.706 525.483 201.124 524.611 199.962C524.061 199.319 523.363 198.821 522.577 198.509L523.449 199.381C523.74 199.672 523.74 199.962 524.03 200.253C524.03 200.544 524.611 200.834 524.902 201.416V201.709H524.611C524.097 201.3 523.503 201.003 522.867 200.837C522.286 200.837 521.123 200.546 520.833 200.546C521.725 201.246 522.702 201.832 523.739 202.29C524.123 202.263 524.508 202.329 524.862 202.48C525.216 202.632 525.528 202.865 525.774 203.162" fill="#41AEEF"/>
<path d="M522.576 199.962C522.141 199.38 521.568 198.915 520.908 198.61C520.249 198.306 519.523 198.171 518.798 198.218L519.089 198.509C519.38 198.509 519.961 199.09 520.252 199.09C520.969 199.517 521.756 199.812 522.577 199.962" fill="#41AEEF"/>
<path d="M445.557 197.347V220.889C445.622 222.796 445.223 224.691 444.394 226.411C443.696 227.941 442.709 229.323 441.488 230.48C440.241 231.591 438.746 232.388 437.128 232.805C433.539 233.967 429.674 233.967 426.084 232.805C424.515 232.269 423.043 231.484 421.724 230.48C420.529 229.301 419.546 227.924 418.818 226.411C418.2 224.637 417.905 222.767 417.946 220.889V197.347H425.212V220.889C425.102 221.793 425.186 222.711 425.457 223.581C425.728 224.452 426.181 225.254 426.785 225.936C427.389 226.619 428.132 227.165 428.963 227.539C429.794 227.913 430.695 228.106 431.606 228.106C432.518 228.106 433.419 227.913 434.25 227.539C435.081 227.165 435.823 226.619 436.427 225.936C437.032 225.254 437.485 224.452 437.756 223.581C438.027 222.711 438.11 221.793 438 220.889V197.347H445.557Z" fill="#41AEEF"/>
<path d="M480.724 233.096H473.46L458.926 209.554V233.096H451.66V197.347H458.926L473.46 220.889V197.347H480.726L480.724 233.096Z" fill="#41AEEF"/>
<path d="M423.758 256.057C423.061 256.093 422.365 255.983 421.713 255.733C421.062 255.483 420.471 255.099 419.977 254.605C419.484 254.112 419.099 253.521 418.848 252.87C418.598 252.219 418.487 251.522 418.522 250.825V250.534C418.546 249.539 418.743 248.556 419.103 247.628C419.426 246.766 420.044 246.045 420.847 245.593C421.635 245.127 422.552 244.924 423.463 245.012C424.112 245.007 424.756 245.133 425.356 245.382C425.955 245.632 426.498 246 426.951 246.465C427.848 247.621 428.265 249.079 428.114 250.534V251.699H421.429C421.451 252.034 421.539 252.36 421.689 252.66C421.839 252.959 422.047 253.226 422.301 253.443C422.831 253.766 423.427 253.964 424.045 254.024C424.545 254.08 425.051 254.002 425.511 253.798C425.97 253.593 426.368 253.27 426.661 252.861L428.114 254.314C427.748 255.01 427.121 255.533 426.37 255.767C425.517 255.993 424.636 256.091 423.754 256.058M423.173 247.339C422.592 247.339 422.301 247.63 421.72 247.92C421.308 248.405 421.1 249.03 421.139 249.664H424.922V249.373C424.911 248.835 424.705 248.318 424.341 247.92C424.341 247.339 423.76 247.339 423.178 247.339" fill="#41AEEF"/>
<path d="M432.187 245.014V246.174C432.545 245.744 432.987 245.393 433.488 245.143C433.988 244.893 434.535 244.749 435.093 244.721C435.565 244.685 436.04 244.743 436.489 244.893C436.939 245.043 437.353 245.281 437.709 245.593C438.34 246.426 438.65 247.457 438.581 248.499V255.474H435.671V248.499C435.747 247.996 435.644 247.482 435.38 247.046C435.089 246.755 434.799 246.755 434.217 246.755C433.835 246.705 433.448 246.796 433.127 247.01C432.806 247.224 432.574 247.546 432.473 247.918V255.475H429.571V244.721H432.187V245.014Z" fill="#41AEEF"/>
<path d="M444.975 252.278L446.719 245.012H449.919L446.134 255.766H443.518L440.034 245.012H442.94L444.975 252.278Z" fill="#41AEEF"/>
<path d="M451.078 242.395C451.035 241.986 451.138 241.574 451.369 241.232C451.66 240.941 451.95 240.941 452.532 240.941C453.114 240.941 453.404 240.941 453.695 241.232C453.986 241.523 453.986 241.813 453.986 242.395C453.986 242.686 453.695 243.267 453.695 243.558C453.404 243.849 453.114 243.849 452.532 243.849C451.95 243.849 451.66 243.849 451.369 243.558C451.369 243.267 451.078 242.686 451.078 242.395ZM453.984 255.765H451.078V245.011H453.984V255.765Z" fill="#41AEEF"/>
<path d="M462.413 247.918H461.541C460.378 247.918 459.797 248.209 459.507 249.081V256.056H456.6V245.303H459.216V246.466C459.458 246.054 459.795 245.707 460.2 245.454C460.605 245.201 461.065 245.05 461.541 245.013H462.413V247.918Z" fill="#41AEEF"/>
<path d="M462.994 250.534C463.018 249.539 463.215 248.556 463.575 247.628C463.899 246.766 464.516 246.046 465.319 245.594C466.107 245.128 467.024 244.925 467.935 245.013C469.244 245.019 470.498 245.541 471.423 246.466C472.349 247.392 472.871 248.646 472.876 249.954V250.826C472.887 252.312 472.372 253.753 471.423 254.895C470.967 255.356 470.423 255.721 469.825 255.971C469.226 256.22 468.584 256.348 467.936 256.348C467.287 256.348 466.645 256.22 466.047 255.971C465.448 255.721 464.905 255.356 464.448 254.895C463.496 253.642 462.986 252.109 462.995 250.535L462.994 250.534ZM465.9 250.534C465.88 251.348 466.081 252.151 466.481 252.859C466.652 253.162 466.909 253.407 467.22 253.562C467.531 253.717 467.881 253.776 468.225 253.731C468.559 253.71 468.886 253.621 469.185 253.472C469.485 253.322 469.751 253.114 469.969 252.859C470.364 252.045 470.563 251.149 470.55 250.243C470.531 249.435 470.332 248.641 469.969 247.918C469.798 247.616 469.541 247.371 469.23 247.216C468.92 247.061 468.57 247.002 468.225 247.046C467.891 247.068 467.565 247.156 467.265 247.306C466.966 247.456 466.699 247.664 466.481 247.918C466.086 248.733 465.887 249.629 465.9 250.534Z" fill="#41AEEF"/>
<path d="M477.527 245.014V246.174C477.884 245.744 478.327 245.393 478.828 245.143C479.328 244.893 479.875 244.749 480.433 244.721C480.905 244.685 481.38 244.743 481.829 244.893C482.278 245.043 482.693 245.281 483.049 245.593C483.68 246.426 483.99 247.457 483.921 248.499V255.474H481.011V248.499C481.087 247.996 480.984 247.482 480.72 247.046C480.429 246.755 480.139 246.755 479.557 246.755C479.175 246.705 478.788 246.796 478.467 247.01C478.146 247.224 477.914 247.546 477.813 247.918V255.475H474.911V244.721H477.527V245.014Z" fill="#41AEEF"/>
<path d="M488.861 245.01V246.173C489.218 245.742 489.661 245.391 490.161 245.141C490.662 244.891 491.209 244.747 491.767 244.72C492.373 244.67 492.979 244.811 493.501 245.124C494.022 245.437 494.432 245.905 494.673 246.464C495.007 245.918 495.478 245.47 496.04 245.163C496.601 244.857 497.234 244.704 497.873 244.72C498.373 244.664 498.879 244.742 499.339 244.947C499.799 245.151 500.196 245.474 500.489 245.883C501.161 246.807 501.471 247.945 501.361 249.083V256.058H498.455V249.081C498.531 248.577 498.428 248.063 498.164 247.628C497.873 247.337 497.583 247.337 497.001 247.337C496.619 247.287 496.232 247.377 495.911 247.591C495.59 247.805 495.358 248.128 495.257 248.5V255.766H492.345V248.791C492.421 248.287 492.318 247.773 492.054 247.338C491.763 247.047 491.473 247.047 490.891 247.047C490.547 247.002 490.197 247.061 489.886 247.216C489.575 247.372 489.318 247.616 489.147 247.919V255.476H486.245V244.722H488.861V245.01Z" fill="#41AEEF"/>
<path d="M508.335 256.057C507.639 256.093 506.943 255.982 506.292 255.731C505.641 255.481 505.05 255.097 504.557 254.604C504.064 254.111 503.68 253.52 503.429 252.869C503.179 252.218 503.068 251.522 503.103 250.825V250.534C503.127 249.539 503.324 248.556 503.684 247.628C504.007 246.766 504.625 246.045 505.428 245.593C506.216 245.127 507.133 244.924 508.044 245.012C508.693 245.007 509.337 245.133 509.937 245.382C510.536 245.632 511.079 246 511.532 246.465C512.429 247.621 512.846 249.079 512.695 250.534V251.699H506.01C506.032 252.034 506.12 252.36 506.27 252.66C506.42 252.959 506.628 253.226 506.882 253.443C507.412 253.766 508.009 253.964 508.626 254.024C509.126 254.08 509.632 254.002 510.092 253.798C510.552 253.593 510.949 253.27 511.242 252.861L512.695 254.314C512.329 255.01 511.702 255.533 510.951 255.767C510.101 256.007 509.217 256.105 508.335 256.057ZM508.044 247.339C507.463 247.339 507.172 247.63 506.591 247.92C506.01 248.21 506.01 248.792 506.01 249.664H509.788V249.373C509.777 248.835 509.571 248.318 509.207 247.92C509.207 247.339 508.626 247.339 508.044 247.339Z" fill="#41AEEF"/>
<path d="M517.054 245.014V246.174C517.412 245.744 517.855 245.393 518.355 245.143C518.855 244.893 519.402 244.749 519.96 244.721C520.433 244.685 520.907 244.743 521.357 244.893C521.806 245.043 522.221 245.281 522.576 245.593C523.207 246.426 523.517 247.457 523.448 248.499V255.474H520.538V248.499C520.614 247.996 520.511 247.482 520.247 247.046C519.956 246.755 519.666 246.755 519.084 246.755C518.702 246.705 518.315 246.796 517.994 247.01C517.674 247.224 517.441 247.546 517.34 247.918V255.475H514.438V244.721H517.054V245.014Z" fill="#41AEEF"/>
<path d="M529.261 242.396V245.012H531.001V247.046H529.261V252.278C529.242 252.436 529.258 252.597 529.308 252.747C529.358 252.898 529.442 253.036 529.552 253.15C529.843 253.441 529.843 253.441 530.424 253.441H531.296V255.476C530.747 255.714 530.149 255.813 529.552 255.767C527.517 255.767 526.646 254.895 526.646 252.861V247.046H524.901V245.012H526.354V242.396H529.261Z" fill="#41AEEF"/>
<path d="M428.117 270.007C428.223 271.458 427.811 272.9 426.954 274.076C426.597 274.507 426.154 274.858 425.654 275.108C425.154 275.358 424.607 275.502 424.048 275.529C423.548 275.585 423.042 275.507 422.583 275.302C422.123 275.098 421.726 274.775 421.432 274.366V279.307H418.526V264.485H421.142V265.648C421.436 265.24 421.833 264.917 422.293 264.712C422.752 264.508 423.258 264.429 423.758 264.485C424.323 264.481 424.881 264.61 425.386 264.863C425.891 265.115 426.329 265.484 426.664 265.938C427.826 266.81 428.117 267.973 428.117 270.007ZM425.501 269.716C425.482 268.908 425.283 268.114 424.92 267.391C424.75 267.101 424.5 266.865 424.2 266.711C423.901 266.557 423.564 266.491 423.228 266.522C422.893 266.552 422.573 266.678 422.306 266.883C422.039 267.089 421.836 267.366 421.72 267.682V272.042C421.871 272.381 422.115 272.67 422.424 272.876C422.733 273.082 423.093 273.196 423.464 273.205C424.627 273.205 425.498 272.042 425.498 269.717" fill="#41AEEF"/>
<path d="M435.964 267.1H435.092C433.929 267.1 433.348 267.391 433.058 268.263V275.238H430.151V264.485H432.767V265.648C433.009 265.237 433.347 264.89 433.752 264.637C434.157 264.384 434.616 264.232 435.092 264.195H435.964V267.1Z" fill="#41AEEF"/>
<path d="M436.837 269.716C436.861 268.721 437.058 267.738 437.418 266.81C437.741 265.948 438.359 265.227 439.162 264.776C439.95 264.31 440.867 264.106 441.778 264.195C443.087 264.2 444.341 264.723 445.266 265.648C446.192 266.574 446.714 267.827 446.719 269.136V270.008C446.73 271.493 446.215 272.934 445.266 274.077C444.855 274.594 444.319 274.999 443.709 275.253C443.099 275.507 442.435 275.602 441.778 275.53C441.129 275.536 440.485 275.41 439.886 275.16C439.286 274.91 438.743 274.542 438.29 274.077C437.759 273.491 437.355 272.8 437.105 272.049C436.855 271.299 436.764 270.504 436.837 269.716ZM439.453 270.007C439.433 270.82 439.634 271.624 440.034 272.332C440.205 272.635 440.462 272.879 440.773 273.035C441.084 273.19 441.434 273.249 441.778 273.204C442.112 273.182 442.438 273.094 442.738 272.944C443.037 272.794 443.303 272.586 443.521 272.332C443.916 271.517 444.115 270.621 444.102 269.716C444.082 268.908 443.884 268.114 443.521 267.391C443.35 267.089 443.093 266.844 442.782 266.689C442.472 266.533 442.122 266.474 441.777 266.519C441.443 266.541 441.116 266.629 440.817 266.779C440.517 266.929 440.251 267.137 440.033 267.391C439.638 268.206 439.439 269.102 439.452 270.007" fill="#41AEEF"/>
<path d="M448.171 269.717C448.066 268.266 448.478 266.824 449.334 265.648C449.73 265.187 450.221 264.819 450.774 264.568C451.326 264.317 451.927 264.19 452.534 264.195C453.034 264.139 453.54 264.218 454 264.422C454.46 264.627 454.857 264.95 455.15 265.358V264.483H457.76V274.946C457.741 275.755 457.542 276.549 457.179 277.271C456.813 277.967 456.186 278.489 455.435 278.724C454.6 279.055 453.717 279.251 452.819 279.305C452.016 279.25 451.229 279.053 450.494 278.724C449.813 278.512 449.208 278.109 448.75 277.561L449.913 275.817C450.207 276.226 450.604 276.549 451.064 276.753C451.524 276.958 452.029 277.036 452.529 276.98C452.845 277.025 453.167 276.996 453.47 276.895C453.773 276.795 454.048 276.625 454.273 276.399C454.499 276.173 454.669 275.898 454.77 275.596C454.871 275.293 454.9 274.971 454.854 274.655V274.074C454.561 274.483 454.164 274.806 453.704 275.01C453.244 275.215 452.738 275.293 452.238 275.237C451.023 275.188 449.875 274.667 449.038 273.784C448.38 272.534 448.078 271.126 448.166 269.715L448.171 269.717ZM451.077 270.008C451.097 270.817 451.295 271.611 451.658 272.333C451.795 272.6 452.003 272.823 452.26 272.977C452.517 273.132 452.812 273.21 453.111 273.205C453.456 273.25 453.806 273.191 454.117 273.036C454.427 272.88 454.685 272.636 454.855 272.333V267.683C454.685 267.381 454.427 267.136 454.117 266.981C453.806 266.825 453.456 266.766 453.111 266.811C452.812 266.806 452.517 266.885 452.26 267.039C452.003 267.193 451.795 267.416 451.658 267.683C451.077 267.974 451.077 268.846 451.077 270.008Z" fill="#41AEEF"/>
<path d="M465.901 267.1H465.029C463.866 267.1 463.285 267.391 462.995 268.263V275.238H460.088V264.485H462.704V265.648C462.946 265.237 463.284 264.89 463.688 264.637C464.093 264.384 464.553 264.232 465.029 264.195H465.901V267.1Z" fill="#41AEEF"/>
<path d="M473.166 275.239C473.166 274.948 472.875 274.658 472.875 274.367C472.582 274.775 472.185 275.098 471.725 275.303C471.265 275.507 470.759 275.585 470.259 275.53C469.312 275.552 468.387 275.244 467.643 274.658C467.061 274.026 466.748 273.192 466.771 272.333C466.716 271.833 466.794 271.327 466.998 270.867C467.203 270.407 467.526 270.01 467.934 269.717C468.985 269.088 470.199 268.784 471.422 268.845H472.585V268.264C472.585 267.683 472.585 267.392 472.294 267.101C472.156 266.923 471.98 266.779 471.779 266.679C471.577 266.578 471.356 266.524 471.131 266.52C470.55 266.52 470.259 266.52 469.968 266.811C469.858 266.925 469.775 267.063 469.724 267.214C469.674 267.365 469.658 267.525 469.677 267.683H466.771C466.832 267.065 467.03 266.469 467.352 265.939C467.696 265.402 468.207 264.994 468.805 264.776C469.528 264.413 470.322 264.214 471.13 264.195C472.259 264.171 473.37 264.474 474.33 265.067C474.745 265.421 475.067 265.87 475.27 266.376C475.472 266.883 475.549 267.43 475.493 267.973V272.623C475.493 273.495 475.784 274.367 475.784 274.948V275.239H473.166ZM470.841 273.205C471.251 273.248 471.663 273.145 472.004 272.914L472.876 272.042V270.294H471.713C470.26 270.294 469.678 270.875 469.388 271.747V272.038C469.369 272.195 469.385 272.356 469.435 272.507C469.486 272.657 469.569 272.795 469.679 272.91C470.033 273.112 470.435 273.213 470.842 273.201" fill="#41AEEF"/>
<path d="M480.432 264.483V265.646C480.79 265.216 481.233 264.865 481.733 264.615C482.233 264.364 482.78 264.221 483.338 264.193C483.944 264.143 484.551 264.285 485.072 264.598C485.593 264.911 486.003 265.379 486.244 265.937C486.578 265.392 487.049 264.943 487.611 264.637C488.173 264.331 488.805 264.178 489.444 264.193C489.944 264.137 490.45 264.216 490.91 264.42C491.37 264.625 491.767 264.948 492.06 265.356C492.732 266.281 493.043 267.419 492.932 268.556V275.531H490.026V268.554C490.102 268.051 489.999 267.537 489.735 267.101C489.444 266.81 489.154 266.81 488.572 266.81C488.19 266.76 487.803 266.851 487.482 267.064C487.161 267.278 486.929 267.601 486.828 267.973V275.239H483.916V268.264C483.992 267.761 483.889 267.247 483.625 266.811C483.334 266.52 483.044 266.52 482.462 266.52C482.118 266.475 481.768 266.534 481.457 266.69C481.146 266.845 480.889 267.09 480.718 267.392V274.949H477.816V264.195H480.432V264.483Z" fill="#41AEEF"/>
<path d="M497.872 264.483V265.646C498.229 265.216 498.672 264.865 499.172 264.615C499.672 264.364 500.219 264.221 500.778 264.193C501.384 264.143 501.99 264.285 502.511 264.598C503.033 264.911 503.443 265.379 503.684 265.937C504.018 265.392 504.489 264.943 505.05 264.637C505.612 264.331 506.244 264.178 506.884 264.193C507.384 264.137 507.89 264.216 508.35 264.42C508.809 264.625 509.206 264.948 509.5 265.356C510.172 266.281 510.482 267.419 510.372 268.556V275.531H507.466V268.554C507.542 268.051 507.439 267.537 507.175 267.101C506.884 266.81 506.594 266.81 506.012 266.81C505.63 266.76 505.242 266.851 504.922 267.064C504.601 267.278 504.369 267.601 504.268 267.973V275.239H501.356V268.264C501.432 267.761 501.329 267.247 501.065 266.811C500.774 266.52 500.484 266.52 499.902 266.52C499.557 266.475 499.207 266.534 498.897 266.69C498.586 266.845 498.329 267.09 498.158 267.392V274.949H495.256V264.195H497.872V264.483Z" fill="#41AEEF"/>
<path d="M517.636 275.529C516.939 275.565 516.243 275.454 515.593 275.203C514.942 274.953 514.351 274.569 513.858 274.075C513.364 273.582 512.98 272.991 512.73 272.34C512.48 271.69 512.368 270.994 512.404 270.297V270.006C512.428 269.011 512.625 268.028 512.985 267.1C513.308 266.238 513.926 265.517 514.729 265.066C515.517 264.6 516.433 264.397 517.345 264.485C517.994 264.479 518.638 264.605 519.237 264.855C519.837 265.105 520.38 265.473 520.833 265.938C521.73 267.094 522.147 268.552 521.996 270.007V271.171H515.311C515.333 271.505 515.421 271.832 515.571 272.131C515.72 272.431 515.929 272.697 516.183 272.915C516.713 273.237 517.309 273.436 517.927 273.496C518.427 273.552 518.933 273.474 519.393 273.269C519.852 273.065 520.249 272.742 520.543 272.333L521.996 273.786C521.629 274.482 521.002 275.004 520.252 275.239C519.089 275.239 518.508 275.529 517.636 275.529ZM517.055 266.52C516.474 266.52 516.183 266.811 515.602 267.101C515.19 267.585 514.982 268.21 515.021 268.845H518.8V268.554C518.789 268.015 518.582 267.499 518.219 267.101C518.219 266.81 517.927 266.52 517.055 266.52Z" fill="#41AEEF"/>
<path d="M337.842 230.633H305.505V262.972H337.842V230.633Z" fill="#0063AC"/>
<path d="M313.706 235.932V248.652C313.706 255.382 317.036 257.88 321.461 257.88C326.135 257.88 329.63 255.18 329.63 248.555V235.932H326.811V248.746C326.811 253.497 324.729 255.606 321.555 255.606C318.671 255.606 316.529 253.553 316.529 248.746V235.932H313.706Z" fill="white"/>
<path d="M372.174 230.633H339.837V262.972H372.174V230.633Z" fill="#0063AC"/>
<path d="M350.53 257.605C350.53 257.605 350.497 242.195 350.33 239.471L350.43 239.44C351.492 241.777 361.29 257.605 361.29 257.605H364.11V236.005H361.488C361.488 236.005 361.55 251.031 361.804 253.918L361.704 253.947C360.71 251.708 350.976 236.006 350.976 236.006H347.898V257.606H350.53V257.605Z" fill="white"/>
<path d="M372.174 264.958H339.837V297.295H372.174V264.958Z" fill="#0063AC"/>
<path d="M361.469 271.904C360.182 270.75 358.169 270.104 355.409 270.104C353.616 270.087 351.825 270.238 350.06 270.555V291.861H352.848V283.211C353.586 283.361 354.34 283.425 355.093 283.401C356.296 283.469 357.5 283.294 358.634 282.887C359.768 282.48 360.808 281.849 361.693 281.031C362.273 280.416 362.723 279.69 363.015 278.897C363.307 278.103 363.436 277.259 363.393 276.415C363.421 275.568 363.264 274.725 362.933 273.946C362.601 273.166 362.104 272.468 361.475 271.901" fill="white"/>
<path d="M355.158 281.289C354.382 281.307 353.606 281.232 352.848 281.066V272.673C353.714 272.516 354.593 272.441 355.474 272.449C358.549 272.449 360.574 273.818 360.574 276.708C360.574 279.62 358.552 281.288 355.161 281.288" fill="#0063AC"/>
<path d="M337.809 264.99H305.47V297.328H337.809V264.99Z" fill="#0063AC"/>
<path d="M328.209 272.738C326.319 270.977 323.471 270.075 319.465 270.075C317.469 270.078 315.477 270.23 313.504 270.528V291.768C315.196 291.962 316.9 292.046 318.604 292.018C322.798 292.018 326.131 290.939 328.187 288.918C329.235 287.794 330.049 286.473 330.581 285.032C331.113 283.591 331.353 282.058 331.287 280.523C331.287 277.031 330.167 274.499 328.214 272.737" fill="white"/>
<path d="M319.144 289.785C318.202 289.817 317.26 289.772 316.326 289.652V272.577C317.401 272.371 318.496 272.276 319.591 272.293C325.485 272.293 328.373 275.465 328.338 280.618C328.338 286.448 325.1 289.818 319.143 289.784" fill="#0063AC"/>
<path d="M372.206 161.888H305.505V228.605H372.206V161.888Z" fill="#0063AC"/>
<path d="M362.723 196.624C361.789 197.945 360.661 199.185 359.797 200.536C359.99 199.402 359.921 198.239 359.597 197.136C358.813 194.946 358.294 192.67 358.049 190.357L358.069 189.442C358.612 191.885 361.014 193.568 360.86 196.306C360.861 196.92 360.769 197.531 360.587 198.117L360.63 198.16L360.739 198.038C360.996 196.675 361.359 195.334 361.824 194.027C362.612 192.227 363.59 190.404 363.191 188.227C363.737 189.575 363.979 191.027 363.897 192.479C363.816 193.932 363.414 195.348 362.721 196.627" fill="white"/>
<path d="M361.245 182.785C362.035 183.941 362.521 185.278 362.656 186.672C362.791 188.066 362.572 189.471 362.019 190.758C361.59 191.814 361.29 192.918 361.125 194.047C361.042 193.847 361.025 193.585 360.956 193.362C360.33 190.971 358.066 189.262 357.131 187.007C356.826 186.265 356.597 185.494 356.448 184.707C357.44 186.546 359.893 187.499 360.564 189.526C360.761 190.079 360.904 190.65 360.989 191.232C361.006 191.233 361.024 191.227 361.037 191.215C361.051 191.203 361.059 191.187 361.061 191.17C360.797 189.064 360.825 186.931 361.142 184.833C361.214 183.757 360.953 182.686 360.394 181.765C360.794 181.996 360.976 182.442 361.246 182.788" fill="white"/>
<path d="M360.137 182.376C360.552 184.243 359.952 186.065 360.337 187.95L360.318 187.965C359.303 185.965 357.145 185.026 355.66 183.425C354.863 182.478 354.36 181.319 354.214 180.091C355.065 182.144 357.357 182.598 358.673 184.322C359.032 184.745 359.325 185.219 359.544 185.73L359.59 185.682C358.954 184.001 358.441 182.275 358.056 180.52C357.77 179.728 357.246 179.045 356.556 178.564C357.438 178.825 358.235 179.315 358.865 179.985C359.494 180.656 359.935 181.481 360.141 182.378" fill="white"/>
<path d="M355.514 178.091C356.695 179.234 357.491 180.716 357.792 182.333L358.003 182.833C356.088 181.446 354.453 179.709 353.185 177.714L351.708 176.21C353.074 176.614 354.361 177.248 355.514 178.086" fill="white"/>
<path d="M330.787 176.642C333.305 175.408 336.068 174.753 338.873 174.725C342.226 174.743 345.507 175.704 348.34 177.498C351.172 179.293 353.443 181.848 354.893 184.872C356.803 188.754 357.221 193.202 356.068 197.372C355.306 200.103 353.907 202.614 351.987 204.7C350.067 206.786 347.679 208.388 345.021 209.373C342.362 210.358 339.507 210.699 336.692 210.367C333.876 210.036 331.178 209.042 328.821 207.467C326.238 205.716 324.158 203.321 322.785 200.519C321.412 197.717 320.794 194.606 320.993 191.492C321.191 188.378 322.199 185.371 323.917 182.766C325.635 180.161 328.003 178.05 330.787 176.642Z" fill="white"/>
<path d="M325.647 176.464C324.437 177.652 323.369 178.977 322.465 180.412C321.54 181.384 320.547 182.29 319.494 183.122C320.029 182.022 320.049 180.704 320.804 179.692C321.88 177.814 323.872 177.158 325.646 176.466" fill="white"/>
<path d="M318.502 180.454C319.09 179.687 319.914 179.135 320.847 178.884C319.093 180.09 319.202 182.26 318.647 184.066C318.468 184.731 318.159 185.347 318.007 186.028L318.054 186.065C318.379 185.26 318.871 184.533 319.498 183.932C320.753 182.777 322.603 182.057 323.217 180.348C323.191 182.722 321.206 184.585 319.317 185.922C318.514 186.568 317.846 187.364 317.35 188.267C317.305 187.672 317.441 187.067 317.396 186.429C317.191 184.357 317.041 181.992 318.507 180.454" fill="white"/>
<path d="M314.941 187.54C314.948 185.559 315.675 183.648 316.986 182.163C317.015 182.144 317.045 182.109 317.086 182.116C315.736 184.17 316.852 186.757 316.793 189.095L316.615 191.486C316.637 191.503 316.637 191.574 316.703 191.548C316.767 191.275 316.817 190.999 316.852 190.722C317.172 188.792 318.845 187.422 320.311 186.091C320.623 185.769 320.876 185.394 321.058 184.984C320.927 185.957 320.651 186.906 320.24 187.799C319.103 190.021 316.994 191.841 316.615 194.384C316.429 191.95 314.763 190.127 314.939 187.54" fill="white"/>
<path d="M313.912 190.527C314.028 189.863 314.214 189.214 314.467 188.59C313.922 191.365 315.79 193.363 316.403 195.772C316.575 196.688 316.804 197.593 317.089 198.482C317.125 198.501 317.154 198.463 317.178 198.437C316.263 195.878 317.578 193.504 318.901 191.504C319.205 190.949 319.43 190.355 319.568 189.738C319.615 190.975 319.507 192.214 319.248 193.426C318.93 194.954 318.448 196.402 318.032 197.89C317.8 198.853 317.779 199.856 317.97 200.829L317.836 200.723C316.862 198.937 314.946 197.542 314.38 195.587C313.826 193.961 313.666 192.227 313.912 190.527Z" fill="white"/>
<path d="M313.824 195.949C314.039 198.893 317.203 200.449 318.672 202.882C318.984 203.411 319.356 203.903 319.781 204.347C319.709 204.037 319.418 203.77 319.31 203.447C318.792 202.366 318.592 201.161 318.733 199.972C318.878 198.472 319.505 197.072 319.267 195.491C320.554 198.275 320.167 201.743 320.883 204.754C321.071 205.412 321.452 205.998 321.701 206.63C319.05 204.824 315.441 203.108 314.266 199.803C313.814 198.57 313.662 197.248 313.823 195.945" fill="white"/>
<path d="M315.406 202.703C316.884 206.045 320.578 206.322 323.062 208.357C323.496 208.753 323.983 209.086 324.51 209.346L324.536 209.317C323.912 208.807 323.364 208.212 322.908 207.548C321.46 205.531 321.969 202.703 320.883 200.535C321.88 201.664 322.715 202.926 323.365 204.285C324.254 206.473 324.589 208.943 326.647 210.597C324.418 209.868 321.818 210.074 319.861 208.704C318.746 208.063 317.775 207.2 317.009 206.167C316.242 205.135 315.697 203.956 315.406 202.704" fill="white"/>
<path d="M319.203 208.935C321.565 211.63 325.437 210.735 328.59 211.435C329.021 211.559 329.468 211.616 329.917 211.604C329.542 211.365 329.017 211.392 328.609 211.178C326.138 210.305 325.773 207.63 324.43 205.828C326.122 207.08 327.708 208.471 329.17 209.986C330.307 210.906 331.667 211.511 333.113 211.738C332.769 211.861 332.313 211.826 331.941 211.923C329.355 212.565 326.474 213.604 323.726 212.668C321.798 212.044 320.181 210.709 319.203 208.935Z" fill="white"/>
<path d="M351.328 215.205C348.662 216.205 345.877 215.161 343.797 213.581C342.955 213.045 342.209 212.272 341.114 212.347C340.74 212.325 340.366 212.36 340.004 212.453C342.084 213.429 343.986 214.747 345.63 216.353C345.315 216.687 344.974 216.996 344.61 217.277C343.045 215.453 341.165 213.927 339.06 212.771C338.653 212.865 338.267 213.029 337.917 213.256C336.16 214.331 334.612 215.714 333.348 217.34L332.277 216.46C333.907 214.792 335.821 213.428 337.93 212.432C335.907 211.794 334.584 213.489 333.046 214.353C331.582 215.418 329.77 215.888 327.973 215.67C326.176 215.452 324.529 214.562 323.363 213.178C324.282 213.74 325.319 214.082 326.393 214.175C327.467 214.268 328.547 214.11 329.55 213.714C332.156 212.584 334.85 211.154 337.991 211.835C338.484 211.846 338.963 212.335 339.426 211.917C341.781 211.358 344.259 211.67 346.402 212.796L348.471 213.622C349.463 213.987 350.525 214.117 351.576 214.002C352.627 213.888 353.637 213.532 354.527 212.962C353.687 213.99 352.58 214.765 351.327 215.203" fill="white"/>
<path d="M354.191 212.456C351.191 213.585 348.181 212.2 345.311 211.735L344.759 211.663V211.649C346.154 211.422 347.464 210.832 348.559 209.938C350.043 208.354 351.658 206.897 353.386 205.583C352.059 207.283 351.921 209.699 349.732 210.791C349.152 211.059 348.555 211.289 347.945 211.479C348.725 211.41 349.5 211.293 350.266 211.129C353.201 210.67 356.558 211.14 358.612 208.641C357.681 210.43 356.1 211.795 354.194 212.456" fill="white"/>
<path d="M355.849 209.406C354.324 209.815 352.689 209.948 351.201 210.454C353.717 208.296 353.578 204.954 355.256 202.41C355.749 201.661 356.283 200.94 356.856 200.251C355.837 202.304 356.277 204.96 355.105 206.951C354.62 207.769 354.007 208.505 353.289 209.13C353.529 209.07 353.75 208.95 353.931 208.782C355.842 206.882 358.331 206.345 360.394 204.798C361.241 204.16 361.912 203.317 362.343 202.348C361.95 205.501 358.813 208.461 355.85 209.405" fill="white"/>
<path d="M359.629 204.028C358.447 204.8 357.247 205.518 356.11 206.398V206.298C357.855 203.398 356.999 199.423 358.072 196.243L358.472 195.176C358.25 197.157 359.11 198.837 359.053 200.828C358.988 201.982 358.612 203.096 357.965 204.054H358.07C358.852 202.886 359.692 201.759 360.589 200.677C362.135 199.186 363.707 197.657 363.912 195.586C364.436 199.042 362.498 202.07 359.626 204.029" fill="white"/>
<path d="M346.252 203.799L346.376 203.627C346.939 203.231 347.468 202.788 347.958 202.303H348.023C347.912 202.269 347.778 202.375 347.658 202.323C347.405 202.208 347.364 201.984 347.364 201.723L346.271 200.593L346.212 200.425C346.115 200.618 345.979 200.788 345.812 200.925C345.82 201.07 345.767 201.285 345.938 201.38C346.292 201.496 346.754 201.729 346.838 202.145C346.694 202.538 345.948 202.892 346.409 203.319C346.559 203.531 346.199 203.611 346.259 203.792" fill="#0063AC"/>
<path d="M339.896 189.371C340.102 189.485 340.215 189.271 340.39 189.229C340.626 189.291 340.834 189.432 340.98 189.629C341.138 189.699 341.291 189.603 341.433 189.55C341.533 188.812 342.457 188.918 342.733 188.227L342.564 188.29C342.494 188.19 342.317 188.234 342.327 188.076C342.473 187.899 342.654 187.754 342.858 187.648C342.08 187.132 341.225 186.742 340.326 186.494C339.966 186.443 339.609 186.371 339.257 186.279C339.335 186.89 339.377 187.504 339.384 188.12L340.019 188.331C340.211 188.021 340.619 187.962 340.795 187.666C340.909 187.566 341.043 187.666 341.135 187.772C341.149 188.014 341.112 188.256 341.026 188.482C340.786 188.963 340.216 189.022 339.897 189.372" fill="#0063AC"/>
<path d="M349.366 195.343C349.033 196.553 348.506 197.701 347.807 198.743C347.516 199.116 347.228 199.634 346.851 199.827L347.657 200.539C347.7 200.495 347.674 200.423 347.686 200.362C347.686 200.256 347.735 200.131 347.869 200.146C348.259 200.138 348.269 200.556 348.49 200.77C348.443 201.108 348.739 201.37 348.64 201.686C350.806 199.381 352.072 196.375 352.208 193.215L352.33 193.073C351.53 193.151 350.686 193.096 349.861 193.108L349.661 193.048C349.665 193.583 349.624 194.119 349.539 194.648L349.827 194.966C349.867 195.03 349.883 195.106 349.872 195.18C349.861 195.255 349.824 195.324 349.768 195.374C349.707 195.415 349.633 195.435 349.56 195.43C349.486 195.425 349.416 195.396 349.361 195.348" fill="#0063AC"/>
<path d="M347.227 187.476C346.882 186.912 346.484 186.383 346.038 185.895L345.995 186.005C345.175 186.855 344.277 187.735 343.495 188.605C343.546 188.713 343.63 188.803 343.736 188.861C343.768 188.649 343.886 188.461 343.906 188.239C344.116 187.947 344.439 188.133 344.712 188.195C345.135 188.18 345.558 188.211 345.974 188.287C346.296 188.443 346.323 188.853 346.617 189.012C346.648 189.069 346.655 189.136 346.639 189.199C346.622 189.262 346.581 189.317 346.526 189.351C346.617 190.017 346.934 189.172 347.273 189.334C347.413 189.387 347.592 189.368 347.697 189.518C347.751 189.794 348.09 189.744 348.107 190.007C348.079 190.139 347.938 190.176 347.844 190.249C347.93 190.513 347.576 190.682 347.697 190.967C348.213 191.067 348.231 190.467 348.469 190.203C348.371 189.733 348.205 189.281 347.975 188.86C347.683 188.8 347.506 188.451 347.21 188.39C346.641 188.165 347.299 187.812 347.225 187.472" fill="#0063AC"/>
<path d="M339.295 206.039C339.997 205.883 340.711 205.782 341.43 205.739C341.278 205.705 341.14 205.625 341.037 205.509C340.62 205.481 340.422 205.049 340.293 204.716C340.229 204.48 340.393 204.284 340.493 204.078C340.317 203.715 339.764 203.978 339.442 203.848C339.354 203.776 339.291 203.668 339.169 203.648L339.3 203.848C339.345 204.58 339.345 205.315 339.3 206.048" fill="#0063AC"/>
<path d="M339.872 199.103C340.102 199.147 339.939 199.403 340.109 199.488C340.472 199.369 340.752 199.796 341.042 199.53C341.027 199.112 341.5 199.147 341.755 199.041C342.155 198.802 342.609 198.481 342.565 197.948L342.497 197.87C342.223 197.87 342.082 198.082 341.882 198.25C341.628 198.395 341.502 197.983 341.301 198.082C341.31 198.126 341.355 198.146 341.393 198.161C341.421 198.198 341.436 198.244 341.436 198.291C341.436 198.338 341.421 198.384 341.393 198.422C341.088 198.696 340.946 198.285 340.66 198.311V198.422C340.671 198.481 340.643 198.58 340.56 198.543C340.378 198.25 340.015 198.358 339.836 198.102C339.724 198.039 339.614 198.119 339.536 198.189C339.474 198.324 339.189 198.172 339.26 198.405C339.041 198.482 339.015 198.721 338.854 198.865C338.574 198.818 338.454 199.132 338.193 199.125C338.219 199.177 338.193 199.267 338.271 199.273C338.435 199.342 338.615 199.364 338.791 199.336C339.055 198.911 339.502 199.266 339.876 199.104" fill="#0063AC"/>
<path d="M342.498 195.63C342.498 195.783 342.549 195.931 342.643 196.052C342.99 196.001 342.843 196.48 343.159 196.438C343.339 196.384 343.171 196.233 343.221 196.118C343.172 195.85 342.911 195.818 342.732 195.663C342.712 195.611 342.752 195.563 342.774 195.524C342.645 195.452 342.583 195.533 342.5 195.63" fill="#0063AC"/>
<path d="M342.095 183.361C341.16 183.071 340.201 182.87 339.229 182.761L339.319 182.955L339.3 185.362L339.534 185.317C340.989 185.475 342.371 186.038 343.523 186.943L343.587 187.132C344.049 186.581 344.539 186.056 345.057 185.558L345.505 185.299L345.291 185.211C344.342 184.409 343.259 183.783 342.091 183.361" fill="#0063AC"/>
<path d="M325.561 193.283L325.755 194.92C325.913 195.529 326.025 196.15 326.091 196.776C326.191 196.643 326.127 196.376 326.37 196.348C326.27 196.154 326.555 195.986 326.394 195.816C326.41 195.375 326.591 194.957 326.901 194.644C327.357 194.624 327.39 194.026 327.844 194C328.074 193.991 328.217 194.3 328.319 194.409C328.198 194.216 328.118 194.001 328.084 193.776C328.049 193.552 328.061 193.323 328.119 193.103L327.919 193.194C327.095 193.22 326.27 193.198 325.448 193.13L325.561 193.283Z" fill="#0063AC"/>
<path d="M341.499 197.446C341.71 197.224 342.159 197.234 342.178 196.915C341.868 196.866 341.709 197.037 341.499 197.207C341.469 197.274 341.373 197.399 341.499 197.446Z" fill="#0063AC"/>
<path d="M347.155 192.983L347.427 193.256C347.701 193.443 347.518 193.841 347.809 194.002C348.154 194.179 348.281 194.58 348.435 194.882C348.472 194.8 348.499 194.713 348.514 194.624C348.637 194.136 348.614 193.586 348.77 193.106C348.229 193.181 347.679 193.139 347.156 192.983" fill="#0063AC"/>
<path d="M343.567 199.209C343.867 199.288 344.076 199.664 344.455 199.548C344.777 199.369 345.31 199.654 345.523 199.317C345.489 198.988 345.773 198.748 345.917 198.465L346.017 198.437C346.196 198.622 346.186 198.901 346.267 199.103C346.513 198.838 346.709 198.542 346.933 198.269C347.539 197.446 347.98 196.514 348.233 195.524C347.995 195.531 347.759 195.571 347.533 195.645C347.274 195.631 346.961 195.78 346.739 195.601C346.662 195.532 346.606 195.638 346.618 195.71C346.526 195.843 346.436 196.01 346.232 195.949C346.073 195.878 346.073 195.71 346.019 195.585C346.018 195.678 346.003 195.771 345.974 195.86C345.824 196.042 345.696 196.242 345.593 196.455C345.406 196.66 345.105 196.588 344.907 196.755C344.871 197.183 344.4 197.092 344.133 197.229C344.116 197.281 344.177 197.288 344.203 197.334C344.268 197.36 344.34 197.365 344.409 197.349C344.477 197.333 344.54 197.296 344.587 197.244C344.96 197.344 344.88 196.873 345.097 196.711C345.282 196.685 345.46 196.526 345.651 196.652C345.837 196.912 345.914 197.235 345.866 197.552C345.651 197.764 345.766 198.112 345.609 198.361C345.643 198.661 345.287 198.788 345.334 199.082C345.267 199.14 345.189 199.184 345.105 199.21C345.021 199.236 344.932 199.245 344.844 199.235C344.13 198.964 343.382 198.792 342.622 198.725C342.587 198.736 342.558 198.76 342.538 198.791C342.519 198.822 342.512 198.859 342.517 198.896C342.839 199.065 343.228 199.073 343.564 199.214" fill="#0063AC"/>
<path d="M338.266 206.997L338.358 206.862L338.082 206.934C334.685 206.774 331.463 205.383 329.018 203.021L328.989 203.129L327.159 204.969C329.807 207.353 333.104 208.898 336.632 209.407C337.225 209.44 337.816 209.51 338.401 209.619L338.266 209.407V206.997Z" fill="#0063AC"/>
<path d="M334.685 197.415C335.603 198.18 336.707 198.69 337.885 198.892C337.947 198.653 337.85 198.351 337.974 198.146C338.063 197.946 338.3 197.957 338.481 197.991C338.506 197.987 338.53 197.978 338.55 197.963C338.571 197.948 338.587 197.928 338.598 197.904C338.608 197.881 338.613 197.856 338.611 197.83C338.608 197.805 338.6 197.781 338.586 197.76C338.329 197.711 338.448 197.425 338.355 197.26C338.368 197.172 338.517 197.19 338.481 197.072C338.3 196.93 338.568 196.772 338.418 196.621C338.461 196.59 338.494 196.538 338.539 196.508C338 196.734 337.428 196.408 336.953 196.194C336.718 196.057 336.383 195.929 336.332 195.641C335.835 196.277 335.283 196.87 334.683 197.411" fill="#0063AC"/>
<path d="M333.771 194.642C333.684 194.596 333.671 194.607 333.602 194.684C333.559 194.684 333.502 194.695 333.47 194.669C333.47 194.162 332.901 194.469 332.689 194.2C332.937 194.658 333.071 195.184 333.325 195.644C333.487 196.053 333.841 196.375 334.003 196.775C334.224 196.461 334.474 196.169 334.751 195.903C334.761 195.842 334.758 195.78 334.743 195.721C334.728 195.662 334.701 195.606 334.664 195.558C334.588 195.369 334.664 195.105 334.514 194.946C334.288 195.026 334.599 195.256 334.499 195.391C334.478 195.403 334.455 195.409 334.431 195.41C334.408 195.41 334.384 195.405 334.363 195.394C334.342 195.383 334.324 195.367 334.311 195.347C334.298 195.327 334.29 195.304 334.288 195.281C334.187 195.258 334.095 195.208 334.019 195.138C333.944 195.068 333.888 194.979 333.858 194.881C334.029 194.775 333.815 194.73 333.77 194.643" fill="#0063AC"/>
<path d="M335.481 194.901C335.412 195.122 335.285 195.321 335.114 195.477L335.142 195.494C335.356 195.341 335.511 195.069 335.784 195.052L335.481 194.901Z" fill="#0063AC"/>
<path d="M338.057 203.54C335.971 203.421 333.971 202.67 332.323 201.386C332.376 201.599 332.659 201.737 332.58 202.001C332.429 202.243 332.118 202.248 331.871 202.243C331.361 202.161 330.987 202.543 330.512 202.595C330.074 202.73 329.923 202.195 329.524 202.243C331.883 204.421 334.919 205.722 338.124 205.928L338.373 206.097L338.263 205.797V203.449L338.057 203.54Z" fill="#0063AC"/>
<path d="M328.458 202.383C328.15 202.131 327.872 201.844 327.632 201.528C327.476 201.487 327.33 201.417 327.201 201.319C327.073 201.222 326.965 201.101 326.884 200.962C326.796 200.862 326.878 200.688 326.784 200.615L326.672 200.748C326.362 200.898 326.251 200.578 326.037 200.448C325.758 200.299 325.895 199.772 325.519 199.869C325.379 199.863 325.332 199.702 325.244 199.615C324.9 199.648 324.809 199.266 324.622 199.081C324.586 199.161 324.622 199.266 324.517 199.319C324.159 199.4 324.039 198.965 323.795 198.785C323.731 198.813 323.69 198.885 323.595 198.867C323.487 198.773 323.4 198.659 323.337 198.531C323.275 198.402 323.238 198.263 323.231 198.121C322.939 197.787 323.073 197.266 323.131 196.865C323.185 196.759 323.337 196.698 323.307 196.565C323.389 196.377 323.586 196.359 323.772 196.35C323.845 196.389 323.906 196.448 323.948 196.521C324.064 196.449 324.324 196.527 324.224 196.27C324.395 196.148 324.595 196.074 324.804 196.056C324.918 196.253 325.052 196.437 325.204 196.607L325.08 196.413C324.851 195.528 324.706 194.624 324.649 193.713C324.659 193.66 324.539 193.634 324.606 193.582L324.623 193.607C324.62 193.44 324.628 193.273 324.649 193.107L324.41 193.197L321.939 193.18C322.067 195.911 322.812 198.577 324.118 200.98C324.827 202.141 325.616 203.251 326.479 204.303L328.248 202.471L328.458 202.383Z" fill="#0063AC"/>
<path d="M331.302 181.63C330.75 182.012 330.244 182.51 329.676 182.848C330.322 183.348 330.925 183.903 331.476 184.508L331.539 184.678C333.024 183.287 334.875 182.351 336.875 181.978C337.333 181.87 337.805 181.835 338.275 181.873C338.209 181.019 338.202 180.163 338.256 179.309C335.77 179.435 333.365 180.238 331.302 181.63Z" fill="#0063AC"/>
<path d="M329.185 190.909C329.152 191.355 329.08 191.798 328.971 192.233C329.331 192.123 329.714 192.108 330.082 192.188C329.882 192.082 330.05 191.825 329.931 191.68C329.905 191.462 329.867 191.185 330.082 191.04C330.058 190.676 330.445 190.489 330.482 190.16C330.582 189.788 331.003 190.039 331.209 189.842C331.343 189.77 331.226 189.642 331.226 189.549C331.404 189.305 331.68 189.318 331.891 189.182C332.04 188.932 332.246 188.721 332.491 188.564C333.025 188.581 333.035 187.832 333.54 187.813C332.847 187.244 332.191 186.633 331.576 185.981C330.357 187.382 329.531 189.082 329.184 190.907" fill="#0063AC"/>
<path d="M329.525 194.516C329.55 194.356 329.313 194.316 329.335 194.154C329.506 193.824 329.344 193.292 329.782 193.149C329.643 193.198 329.495 193.216 329.348 193.202C329.201 193.189 329.059 193.143 328.932 193.07L329.058 193.283C329.174 193.855 329.217 194.441 329.186 195.025C329.286 194.856 329.313 194.625 329.525 194.516Z" fill="#0063AC"/>
<path d="M331.974 200.932L331.941 200.872L331.974 200.982V200.932Z" fill="#0063AC"/>
<path d="M329.017 183.592L328.055 184.814C326.534 186.986 325.653 189.541 325.513 192.189L327.955 192.148L328.185 192.239C328.085 192.173 328.111 192.069 328.079 191.981C328.221 189.494 329.222 187.134 330.912 185.304C330.241 184.726 329.613 184.1 329.035 183.43L329.017 183.592Z" fill="#0063AC"/>
<path d="M336.525 200.215C336.71 200.02 336.938 199.871 337.192 199.78C336.403 199.941 335.706 199.372 335.034 199.06C334.601 198.828 334.223 198.506 333.923 198.118C333.392 198.776 332.801 199.383 332.157 199.931C332.428 199.948 332.583 200.253 332.813 200.386C334.153 201.395 335.705 202.087 337.352 202.411L336.931 202.211C336.609 201.849 336.154 201.421 336.138 200.916C336.457 200.806 336.421 200.453 336.526 200.216" fill="#0063AC"/>
<path d="M330.446 193.146L330.377 193.616C330.268 193.894 329.923 193.686 329.765 193.876C329.65 194.053 329.765 194.239 329.865 194.376C329.617 194.945 330.429 195.125 330.417 195.639C330.667 195.959 330.383 196.42 330.739 196.706C330.817 197.284 330.659 198.068 331.166 198.52L331.256 199.073C331.356 199.454 330.8 199.354 330.872 199.694C330.983 199.64 331.004 199.784 331.015 199.818V199.801C331.721 198.973 332.483 198.196 333.297 197.474L332.961 197.135C332.316 196.213 331.851 195.179 331.592 194.085L331.335 193.953C331.278 194.213 331.236 194.477 331.21 194.743L331.121 194.849C330.936 194.843 330.821 194.69 330.659 194.591C330.621 194.491 330.523 194.335 330.676 194.255C330.752 194.248 330.828 194.269 330.891 194.314C330.969 194.214 330.935 194.077 330.982 193.952C331.003 193.738 330.816 193.543 330.949 193.352C331.12 193.335 331.249 193.54 331.314 193.652C331.485 193.705 331.619 193.566 331.759 193.502C331.759 193.351 331.97 193.145 331.739 193.059C331.824 192.713 331.817 192.351 331.719 192.01C331.626 191.716 331.295 191.769 331.056 191.796C330.335 192.025 331.172 192.57 330.994 193.013C330.894 193.272 330.627 193.032 330.44 193.138" fill="#0063AC"/>
<path d="M353.227 193.105L353.079 192.997L353.166 193.237C353.037 196.093 352.055 198.845 350.346 201.137C350.051 201.564 349.699 201.948 349.3 202.28C350.01 202.877 350.673 203.528 351.282 204.229L351.351 204.095C354.062 201.112 355.633 197.268 355.788 193.24L355.897 193.027L355.764 193.092L353.227 193.105Z" fill="#0063AC"/>
<path d="M329.142 182.222L329.185 182.099C331.654 179.773 334.877 178.415 338.266 178.272L338.188 178.06L338.16 175.924L338.234 175.677C334.779 175.825 331.448 177.008 328.673 179.072C328.128 179.446 327.648 180.014 327.098 180.336H327.174C327.886 180.904 328.545 181.537 329.142 182.226" fill="#0063AC"/>
<path d="M338.147 182.829C335.953 183.018 333.876 183.899 332.216 185.347C332.88 185.898 333.512 186.487 334.11 187.111C334.154 187.052 334.2 186.989 334.244 186.917C335.053 186.285 335.973 185.81 336.957 185.517C337.392 185.391 337.845 185.339 338.297 185.363C338.201 184.492 338.201 183.613 338.297 182.743L338.147 182.829Z" fill="#0063AC"/>
<path d="M338.267 186.348C336.83 186.473 335.486 187.107 334.475 188.135H334.667C334.883 188.349 335.227 188.304 335.39 188.59C335.47 188.75 335.237 188.732 335.246 188.863C335.292 188.901 335.356 188.908 335.39 188.969C335.558 189.028 335.522 188.869 335.59 188.802C335.808 188.58 335.847 189.015 336.059 189.015C336.093 188.987 336.133 188.966 336.176 188.954C336.218 188.942 336.263 188.939 336.307 188.944C336.351 188.95 336.393 188.965 336.432 188.988C336.47 189.01 336.503 189.041 336.529 189.077C336.674 188.952 336.977 189.066 337.021 188.839C337.3 188.539 337.146 188.093 337.554 187.905C337.697 187.982 337.545 188.118 337.599 188.243C337.872 188.357 338.184 188.009 338.405 188.288C338.249 187.653 338.203 186.997 338.27 186.347" fill="#0063AC"/>
<path d="M338.359 190.334C338.224 190.514 338.056 190.666 337.862 190.78C337.669 190.894 337.454 190.969 337.232 191C337.115 191.142 337.142 191.454 336.868 191.425C336.779 191.625 336.476 191.738 336.592 192.025C336.505 192.359 336.455 192.702 336.441 193.048C335.917 193.377 336.063 192.611 335.803 192.448L335.709 192.599C335.609 192.625 335.537 192.563 335.463 192.494C335.384 192.461 335.248 192.437 335.178 192.511C335.063 192.711 334.885 192.867 334.93 193.132C334.877 193.29 334.61 193.237 334.647 193.408C334.95 193.394 335.251 193.352 335.547 193.283C335.754 193.336 335.921 193.183 336.126 193.178C336.193 193.213 336.281 193.283 336.25 193.39H336.322C336.389 193.344 336.439 193.278 336.464 193.201C336.489 193.124 336.488 193.041 336.461 192.965C336.481 192.776 336.685 192.776 336.806 192.723C336.921 192.777 336.85 192.891 336.872 192.984C337.272 193.132 336.772 193.426 336.717 193.638C336.612 193.808 336.717 194.191 336.381 194.138C336.349 194.128 336.323 194.107 336.307 194.078C336.29 194.049 336.286 194.016 336.294 193.984H336.248C336.248 194.066 336.27 194.146 336.313 194.216C336.355 194.287 336.415 194.344 336.487 194.384C336.733 194.184 336.743 193.833 337.104 193.784C337.286 193.59 337.021 193.284 337.304 193.128C337.765 193.116 338.256 192.923 338.625 193.295C338.597 193.455 338.538 193.531 338.671 193.662C338.603 193.88 338.494 194.084 338.351 194.262C338.372 194.32 338.374 194.384 338.358 194.445C338.341 194.505 338.305 194.558 338.257 194.598C338.136 195.141 337.515 194.881 337.151 195.071C337.716 195.485 338.415 195.674 339.113 195.603C339.495 195.586 339.328 195.114 339.523 194.903C339.646 194.281 340.218 194.703 340.565 194.536C340.714 194.281 340.815 194.001 340.865 193.711C340.76 193.639 340.68 193.536 340.637 193.416C340.594 193.297 340.591 193.167 340.627 193.045C340.477 192.84 340.492 192.466 340.161 192.43C340.143 192.395 340.138 192.356 340.144 192.318C340.151 192.28 340.17 192.245 340.199 192.219C340.193 192.019 340.384 191.96 340.439 191.809C340.239 191.676 340.29 191.382 340.305 191.209C339.956 191.309 339.923 190.857 339.665 190.759C339.602 190.553 339.381 190.518 339.204 190.484C338.776 190.684 338.704 190.162 338.387 190.039C338.352 189.939 338.276 189.799 338.387 189.72C338.547 189.584 338.758 189.701 338.944 189.691L338.787 189.611C338.645 189.452 338.333 189.551 338.147 189.611C338.326 189.789 338.247 190.111 338.36 190.333" fill="#0063AC"/>
<path d="M324.663 192.217L324.603 191.868C324.747 189.128 325.67 186.486 327.263 184.253C327.6 183.75 328 183.293 328.453 182.891C327.875 182.35 327.274 181.718 326.663 181.123L326.603 180.882C324.106 183.56 322.514 186.956 322.053 190.589C321.953 191.123 322.02 191.673 321.913 192.217C322.826 192.144 323.743 192.144 324.656 192.217" fill="#0063AC"/>
<path d="M348.708 202.839C348.371 203.297 347.958 203.693 347.487 204.012C346.91 204.59 345.969 204.712 345.673 205.55C345.363 205.831 345.258 206.276 344.824 206.435C344.659 206.863 344.206 206.835 343.95 207.146C343.205 207.813 342.723 206.721 342.05 206.59L340.691 206.829C340.232 206.91 339.763 206.916 339.302 206.846C339.367 207.775 339.367 208.707 339.302 209.637L339.471 209.529C343.633 209.359 347.594 207.693 350.626 204.836L348.75 203.046L348.708 202.839Z" fill="#0063AC"/>
<path d="M339.255 178.044C339.258 177.967 339.287 177.893 339.338 177.836C339.463 177.761 339.564 177.871 339.616 177.957C339.629 178.083 339.683 178.298 339.576 178.37C339.682 178.385 339.739 178.306 339.832 178.306C341.805 178.447 343.722 179.028 345.443 180.006V179.963C345.791 179.793 346.233 179.571 346.588 179.873C347.016 179.714 347.094 180.237 347.442 180.299C347.675 180.421 347.879 180.591 348.041 180.798C348.204 181.005 348.321 181.244 348.385 181.499C348.462 181.661 348.713 181.773 348.749 181.944C349.115 181.359 349.569 180.834 350.094 180.387L350.394 180.261C347.811 177.798 344.503 176.233 340.961 175.801C340.38 175.766 339.802 175.695 339.23 175.587C339.32 176.401 339.328 177.222 339.256 178.038" fill="#0063AC"/>
<path d="M339.256 181.87C339.596 181.819 339.943 181.831 340.279 181.906C342.008 182.133 343.652 182.793 345.059 183.825C344.862 183.656 344.72 183.433 344.651 183.184C344.664 183.168 344.681 183.156 344.7 183.15C344.719 183.144 344.74 183.143 344.76 183.149C344.779 182.873 344.485 182.731 344.444 182.482C344.464 182.45 344.494 182.426 344.528 182.411C344.563 182.397 344.601 182.394 344.638 182.403C344.926 182.681 345.188 182.987 345.418 183.316C345.618 183.238 345.774 183.363 345.918 183.467C346.174 183.618 346.018 183.95 346.218 184.127C346.251 184.653 346.891 184.947 346.856 185.469C346.856 185.593 347.014 185.495 347.068 185.56L347.601 186.215C347.582 186.244 347.57 186.277 347.565 186.312C347.559 186.346 347.561 186.381 347.57 186.415C347.578 186.449 347.594 186.481 347.615 186.509C347.636 186.536 347.662 186.559 347.693 186.577C347.93 186.689 348.065 186.384 348.3 186.429C348.647 186.629 348.249 186.856 348.283 187.069C348.418 187.077 348.589 186.964 348.696 187.097C348.741 187.297 348.536 187.417 348.451 187.542C348.451 187.736 348.614 187.693 348.757 187.736C348.794 187.739 348.829 187.751 348.861 187.77C348.893 187.789 348.92 187.814 348.941 187.845C348.961 187.876 348.975 187.911 348.98 187.948C348.985 187.985 348.982 188.022 348.971 188.058C349.415 188.52 348.836 189.017 349.05 189.507C349.097 189.659 349.1 189.821 349.058 189.975C349.017 190.129 348.933 190.268 348.816 190.377C348.827 190.769 348.469 191.007 348.332 191.337L347.877 191.425C347.635 191.664 348.083 191.959 347.84 192.111L348.84 192.13L348.731 192.025C348.658 191.817 348.632 191.596 348.656 191.377C348.679 191.159 348.751 190.948 348.866 190.761C348.96 190.407 349.12 190.075 349.338 189.782C349.4 189.765 349.515 189.649 349.568 189.782C349.6 190.094 349.549 190.41 349.419 190.697C349.642 191.145 349.736 191.646 349.692 192.145C350.573 192.091 351.435 192.076 352.299 192.083L352.22 191.913C352.125 190.32 351.732 188.76 351.062 187.313C350.875 187.324 350.742 187.472 350.529 187.419C350.493 187.406 350.464 187.381 350.444 187.349C350.425 187.317 350.417 187.279 350.423 187.242C350.117 186.862 349.791 186.5 349.447 186.155C348.987 186.201 348.784 185.676 348.375 185.623C348.013 185.472 348.263 184.885 347.737 185.047C347.601 185.001 347.478 184.922 347.381 184.818C347.283 184.713 347.213 184.585 347.177 184.447C347.201 184.211 347.169 183.974 347.081 183.754C346.994 183.534 346.856 183.338 346.677 183.184C346.355 183.069 346.225 183.494 345.9 183.425C345.724 183.334 345.8 183.105 345.746 182.954C345.686 182.819 345.535 182.723 345.562 182.544C345.979 181.994 345.055 182.004 345.262 181.46C345.207 181.068 344.812 180.916 344.606 180.608C343.241 179.974 341.787 179.557 340.294 179.373C339.933 179.386 339.573 179.336 339.23 179.223L339.316 179.389C339.297 180.216 339.355 181.096 339.272 181.871" fill="#0063AC"/>
<path d="M348.983 182.785C349.173 182.829 349.227 183.05 349.353 183.185C349.998 183.532 350.167 184.226 350.738 184.616C351.058 185.286 351.796 185.799 351.822 186.564C352.641 188.294 353.101 190.173 353.172 192.086L353.104 192.186C353.18 192.182 353.254 192.155 353.315 192.108L355.877 192.061C355.709 191.813 355.777 191.45 355.733 191.147C355.357 187.281 353.712 183.648 351.053 180.817C350.503 181.486 349.912 182.12 349.284 182.717L348.983 182.785Z" fill="#0063AC"/>
<path d="M339.616 177.622C339.694 177.48 339.898 177.531 340.004 177.576L341.282 177.026C341.538 177.009 341.794 177.048 342.034 177.14C342.274 177.232 342.491 177.375 342.67 177.559V177.622C342.524 177.774 342.339 177.883 342.135 177.936C341.931 177.989 341.716 177.984 341.515 177.922C340.927 178.038 340.108 178.376 339.636 177.773C339.616 177.729 339.564 177.664 339.616 177.622Z" fill="white"/>
<path d="M347.256 179.237C347.344 179.253 347.427 179.291 347.497 179.348C347.567 179.405 347.621 179.478 347.656 179.561C347.607 179.761 347.844 179.932 347.699 180.091C347.217 180.216 347.173 179.675 346.799 179.541C346.747 179.465 346.725 179.373 346.735 179.282C346.905 179.082 347.063 179.417 347.251 179.237" fill="white"/>
</g>
<defs>
<clipPath id="clip0_237_569">
<rect width="531.409" height="297.327" fill="white"/>
</clipPath>
</defs>
</svg>
