<svg width="652" height="214" viewBox="0 0 652 214" fill="none" xmlns="http://www.w3.org/2000/svg">
<g clip-path="url(#clip0_89_780)">
<path d="M108.3 147.1H116L121.9 161.7H122L127.5 147.1H135.2V168.3H130.1V153.3H130L123.9 168.3H119.7L113.6 153.4H113.5V168.3H108.4V147.1H108.3ZM142.1 152.9H147.1V168.3H142.1V152.9ZM142.1 147.1H147.1V150.6H142.1V147.1ZM153.4 168.3H158.4V160.2C158.4 157.1 159.6 155.8 162.3 155.8C164.6 155.8 165.5 157 165.5 159.6V168.3H170.5V158.8C170.5 155 169.2 152.5 163.9 152.5C161.8 152.5 159.6 153.3 158.4 155.1H158.1V153H153.4V168.3ZM181.7 147.1H176.7V150.6H181.7V147.1ZM176.7 168.3H181.7V152.9H176.7V168.3ZM187.2 163.3C187.4 167.4 191.5 168.7 195.7 168.7C199.8 168.7 204 167.4 204 163.3C204 160.4 201.2 159.6 198.3 159C195.5 158.4 192.7 158.2 192.7 156.7C192.7 155.5 194.3 155.3 195.5 155.3C197.3 155.3 198.8 155.8 198.9 157.4H203.6C203.2 153.6 199.6 152.5 195.6 152.5C191.7 152.5 187.7 153.5 187.7 157.4C187.7 160.1 190.6 161 193.4 161.5C197 162.2 199 162.6 199 163.9C199 165.4 197.2 165.9 195.7 165.9C193.7 165.9 191.9 165.2 191.9 163.3H187.2ZM215.5 148.3H210.5V152.9H207.5V155.7H210.5V164.8C210.5 167.9 213.2 168.5 216.2 168.5C217.2 168.5 218.3 168.5 219.1 168.3V165C218.6 165.1 218.1 165.1 217.6 165.1C215.9 165.1 215.5 164.7 215.5 163.3V155.7H219.1V152.9H215.5V148.3ZM224 168.3H229V161.4C229 158.7 230.3 156.5 233.9 156.5C234.5 156.5 235.2 156.6 235.7 156.7V152.8C235.4 152.7 235 152.6 234.6 152.6C232.2 152.6 229.7 153.9 228.8 155.9H228.7V153H224V168.3ZM256.5 152.9H251.4L247.4 163.4H247.3L243.2 152.9H237.9L244.3 167.3C244.9 168.5 244.3 170 242.6 170.2C241.6 170.2 240.6 170.1 239.7 170V173.5C240.7 173.6 241.7 173.7 242.7 173.7C246.1 173.7 247.8 172.7 248.9 170.2L256.5 152.9ZM281.5 152.5C275.8 152.5 272.2 155.7 272.2 160.6C272.2 165.5 275.9 168.7 281.5 168.7C287.2 168.7 290.9 165.5 290.9 160.6C290.9 155.7 287.2 152.5 281.5 152.5ZM281.5 165.6C278.1 165.6 277.1 163.1 277.1 160.7C277.1 158.2 278.1 155.8 281.5 155.8C284.9 155.8 285.9 158.3 285.9 160.7C285.9 163.1 284.9 165.6 281.5 165.6ZM297.6 168.3H302.6V155.7H306V152.9H302.6V152C302.6 150.7 303.2 150.2 304.5 150.2C305.1 150.2 305.7 150.2 306.3 150.3V147.1C305.5 147.1 304.6 147 303.7 147C299.6 147 297.6 149 297.6 151.7V152.9H294.6V155.7H297.6V168.3ZM320.6 168.3H326.2L328.2 163.6H337.5L339.4 168.3H345.1L335.8 147.1H330.2L320.6 168.3ZM332.8 152.3L336 160.1H329.5L332.8 152.3ZM366.6 152.9H361.9V155H361.8C360.6 153.2 358.8 152.5 356.4 152.5C351.3 152.5 348.6 156.1 348.6 160.1C348.6 164.3 350.9 167.8 356.3 167.8C358.5 167.8 360.6 167 361.7 165.4H361.8V167.4C361.8 169.6 360.6 171.2 357.8 171.2C356.1 171.2 354.5 170.7 354.1 169.1H349.2C349.4 172.6 353.6 174 357.2 174C365.5 174 366.6 169.7 366.6 167.2V152.9ZM361.8 160.4C361.8 162.6 360.4 164.7 357.6 164.7C354.6 164.7 353.6 162.3 353.6 160.1C353.6 157.8 354.8 155.7 357.6 155.7C360.8 155.7 361.8 157.9 361.8 160.4ZM373 168.3H378V161.4C378 158.7 379.3 156.5 382.9 156.5C383.5 156.5 384.2 156.6 384.7 156.7V152.8C384.4 152.7 384 152.6 383.6 152.6C381.2 152.6 378.7 153.9 377.8 155.9H377.7V153H373V168.3ZM394.1 147.1H389.1V150.6H394.1V147.1ZM389.1 168.3H394.1V152.9H389.1V168.3ZM417.6 158.4C417.3 154.5 413.4 152.6 409.1 152.6C403.2 152.6 399.9 156.1 399.9 160.9C399.9 165.5 403.6 168.8 409 168.8C413.8 168.8 417.1 166.6 417.7 162.5H412.9C412.6 164.4 411.3 165.6 408.9 165.6C405.8 165.6 404.8 163 404.8 160.8C404.8 158.5 405.8 155.8 409 155.8C411.1 155.8 412.4 156.7 412.7 158.5H417.6V158.4ZM439.9 152.9H434.9V161C434.9 164.1 433.7 165.4 431 165.4C428.7 165.4 427.8 164.2 427.8 161.6V152.9H422.8V162.4C422.8 166.2 424.1 168.7 429.4 168.7C431.5 168.7 433.7 167.9 434.9 166.1H435V168.2H439.7V152.9H439.9ZM446.3 168.3H451.3V147.1H446.3V168.3ZM463.9 148.3H458.9V152.9H455.9V155.7H458.9V164.8C458.9 167.9 461.6 168.5 464.6 168.5C465.6 168.5 466.7 168.5 467.5 168.3V165C467 165.1 466.5 165.1 466 165.1C464.3 165.1 463.9 164.7 463.9 163.3V155.7H467.5V152.9H463.9V148.3ZM489.3 152.9H484.3V161C484.3 164.1 483.1 165.4 480.4 165.4C478.1 165.4 477.2 164.2 477.2 161.6V152.9H472.2V162.4C472.2 166.2 473.5 168.7 478.8 168.7C480.9 168.7 483.1 167.9 484.3 166.1H484.4V168.2H489.1V152.9H489.3ZM495.5 168.3H500.5V161.4C500.5 158.7 501.8 156.5 505.4 156.5C506 156.5 506.7 156.6 507.2 156.7V152.8C506.9 152.7 506.5 152.6 506.1 152.6C503.7 152.6 501.2 153.9 500.3 155.9H500.2V153H495.5V168.3ZM528 161.7C528.4 157 525.4 152.6 519.2 152.6C513.7 152.6 510 156.1 510 160.7C510 165.5 513.5 168.8 519.2 168.8C523.3 168.8 526.3 167.3 527.7 163.6H523.3C523 164.5 521.4 165.6 519.4 165.6C516.6 165.6 515.1 164.4 515 161.7H528ZM515 159C515.1 157.8 516 155.7 519.1 155.7C521.5 155.7 522.6 156.8 523.1 159H515ZM533.6 168.3H536.1C536.2 169.6 535.1 170.9 533.6 171.1V173.2C536.6 172.8 539.1 171 539.1 168.3V163.7H533.6V168.3ZM109.3 208.1H114.8V199.3H125.3V195.7H114.8V190.8H126.9V186.9H109.3V208.1ZM140.7 192.3C135 192.3 131.4 195.5 131.4 200.4C131.4 205.3 135.1 208.5 140.7 208.5C146.4 208.5 150.1 205.3 150.1 200.4C150.1 195.5 146.4 192.3 140.7 192.3ZM140.7 205.3C137.3 205.3 136.3 202.8 136.3 200.4C136.3 197.9 137.3 195.5 140.7 195.5C144.1 195.5 145.1 198 145.1 200.4C145.1 202.9 144.1 205.3 140.7 205.3ZM155.7 208.1H160.7V201.2C160.7 198.5 162 196.3 165.6 196.3C166.2 196.3 166.9 196.4 167.4 196.5V192.6C167.1 192.5 166.7 192.4 166.3 192.4C163.9 192.4 161.4 193.7 160.5 195.7V192.8H155.7V208.1ZM188.3 201.4C188.7 196.7 185.7 192.3 179.5 192.3C174 192.3 170.3 195.8 170.3 200.4C170.3 205.2 173.8 208.5 179.5 208.5C183.6 208.5 186.6 207 188 203.3H183.6C183.3 204.3 181.7 205.3 179.7 205.3C176.9 205.3 175.4 204.1 175.3 201.4H188.3ZM175.2 198.8C175.3 197.6 176.2 195.5 179.3 195.5C181.7 195.5 182.8 196.6 183.3 198.8H175.2ZM192.8 203.1C193 207.2 197.1 208.5 201.3 208.5C205.4 208.5 209.6 207.2 209.6 203.1C209.6 200.2 206.8 199.4 203.9 198.8C201.1 198.2 198.3 198 198.3 196.5C198.3 195.3 199.9 195.1 201.1 195.1C202.9 195.1 204.4 195.6 204.5 197.2H209.2C208.8 193.4 205.2 192.3 201.2 192.3C197.3 192.3 193.3 193.3 193.3 197.2C193.3 199.9 196.2 200.8 199.1 201.3C202.7 202 204.7 202.4 204.7 203.7C204.7 205.2 202.9 205.7 201.4 205.7C199.4 205.7 197.6 205 197.6 203.1H192.8ZM221.2 188.1H216.2V192.7H213.2V195.5H216.2V204.6C216.2 207.7 218.9 208.3 221.9 208.3C222.9 208.3 224 208.3 224.8 208.2V204.9C224.3 205 223.8 205 223.3 205C221.6 205 221.2 204.6 221.2 203.2V195.6H224.8V192.8H221.2V188.1ZM229.6 208.1H234.6V201.2C234.6 198.5 235.9 196.3 239.5 196.3C240.1 196.3 240.8 196.4 241.3 196.5V192.6C241 192.5 240.6 192.4 240.2 192.4C237.8 192.4 235.3 193.7 234.4 195.7H234.3V192.8H229.6V208.1ZM262.1 192.7H257L253 203.2L248.9 192.7H243.6L250 207.1C250.6 208.3 250 209.8 248.3 210C247.3 210 246.3 209.9 245.4 209.8V213.3C246.4 213.4 247.4 213.5 248.4 213.5C251.8 213.5 253.5 212.5 254.6 210L262.1 192.7ZM283.1 197.4C283.3 195.7 284.5 195.1 286.4 195.1C288.1 195.1 289.6 195.4 289.6 197.2C289.6 198.9 286.8 198.8 283.7 199.2C280.6 199.6 277.5 200.4 277.5 203.9C277.5 207.1 280.2 208.5 283.7 208.5C285.9 208.5 288.2 208 289.8 206.6C289.8 207.1 290 207.6 290.2 208.1H295.2C294.7 207.5 294.6 206.1 294.6 204.7V196.7C294.6 193 290.3 192.3 286.6 192.3C282.5 192.3 278.4 193.5 278.1 197.4H283.1ZM289.6 202.1C289.6 203 289.5 205.6 285.6 205.6C284 205.6 282.6 205.2 282.6 203.6C282.6 202.1 284 201.6 285.5 201.3C287 201.1 288.8 201 289.6 200.4V202.1ZM300.9 208.1H305.9V200C305.9 196.9 307.1 195.6 309.8 195.6C312.1 195.6 313 196.9 313 199.4V208.1H318V198.6C318 194.8 316.7 192.3 311.4 192.3C309.3 192.3 307.1 193.1 305.9 194.9H305.8V192.8H301.1V208.1H300.9ZM337 208.1H341.7V186.9H336.7V194.6H336.6C335.4 193.1 333.3 192.3 331.2 192.3C325.9 192.3 323.2 196.1 323.2 200.3C323.2 204.6 325.9 208.5 331.3 208.5C333.6 208.5 335.6 207.8 336.8 206.1H336.9V208.1H337ZM332.6 195.5C335.8 195.5 336.9 197.9 336.9 200.4C336.9 202.9 335.9 205.4 332.6 205.4C329.5 205.4 328.2 202.9 328.2 200.5C328.2 197.9 329.4 195.5 332.6 195.5ZM360.5 208.1H366V199.3H376.5V195.7H366V190.8H378.1V186.9H360.5V208.1ZM388.3 186.9H383.3V190.4H388.3V186.9ZM383.3 208.1H388.3V192.7H383.3V208.1ZM393.7 203.1C393.9 207.2 398 208.5 402.2 208.5C406.3 208.5 410.5 207.2 410.5 203.1C410.5 200.2 407.7 199.4 404.8 198.8C402 198.2 399.2 198 399.2 196.5C399.2 195.3 400.8 195.1 402 195.1C403.8 195.1 405.3 195.6 405.4 197.2H410.1C409.7 193.4 406.1 192.3 402.1 192.3C398.2 192.3 394.2 193.3 394.2 197.2C394.2 199.9 397.1 200.8 400 201.3C403.6 202 405.6 202.4 405.6 203.7C405.6 205.2 403.8 205.7 402.3 205.7C400.3 205.7 398.5 205 398.5 203.1H393.7ZM415.8 208.1H420.8V200C420.8 196.9 422 195.6 424.7 195.6C427 195.6 427.9 196.8 427.9 199.4V208.1H432.9V198.6C432.9 194.8 431.6 192.3 426.3 192.3C424.4 192.3 422.3 193.1 421 194.9H420.9V186.9H415.9V208.1H415.8ZM456.2 201.4C456.6 196.7 453.6 192.3 447.4 192.3C441.9 192.3 438.2 195.8 438.2 200.4C438.2 205.2 441.7 208.5 447.4 208.5C451.5 208.5 454.5 207 455.9 203.3H451.5C451.2 204.3 449.6 205.3 447.6 205.3C444.8 205.3 443.3 204.1 443.2 201.4H456.2ZM443.1 198.8C443.2 197.6 444.1 195.5 447.2 195.5C449.6 195.5 450.7 196.6 451.2 198.8H443.1ZM461.5 208.1H466.5V201.2C466.5 198.5 467.8 196.3 471.4 196.3C472 196.3 472.7 196.4 473.2 196.5V192.6C472.9 192.5 472.5 192.4 472.1 192.4C469.7 192.4 467.2 193.7 466.3 195.7H466.2V192.8H461.5V208.1ZM482.7 186.9H477.7V190.4H482.7V186.9ZM477.7 208.1H482.7V192.7H477.7V208.1ZM506.1 201.4C506.5 196.7 503.5 192.3 497.3 192.3C491.8 192.3 488.1 195.8 488.1 200.4C488.1 205.2 491.6 208.5 497.3 208.5C501.4 208.5 504.4 207 505.8 203.3H501.4C501.1 204.3 499.5 205.3 497.5 205.3C494.7 205.3 493.2 204.1 493.1 201.4H506.1ZM493.1 198.8C493.2 197.6 494.1 195.5 497.2 195.5C499.6 195.5 500.7 196.6 501.2 198.8H493.1ZM510.6 203.1C510.8 207.2 514.9 208.5 519.1 208.5C523.2 208.5 527.4 207.2 527.4 203.1C527.4 200.2 524.6 199.4 521.7 198.8C518.9 198.2 516.1 198 516.1 196.5C516.1 195.3 517.7 195.1 518.9 195.1C520.7 195.1 522.2 195.6 522.3 197.2H527C526.6 193.4 523 192.3 519 192.3C515.1 192.3 511.1 193.3 511.1 197.2C511.1 199.9 514 200.8 516.8 201.3C520.4 202 522.4 202.4 522.4 203.7C522.4 205.2 520.6 205.7 519.1 205.7C517.1 205.7 515.3 205 515.3 203.1H510.6ZM538.5 41.8999C538.6 37.5999 538.5 33.3 538.8 29C538.8 28.8 538.8 26.7 539.1 26.7H539.2C539.2 26.5 539.3 26.3 539.3 26.1H539.4C539.6 25.7 539.8 25.5 540.1 25.2C541.6 23.7 544.2 24.3 546.1 24.1C548.5 23.8 550.9 24.3 553.3 24.2C556.7 24.1 558 24.1 561.4 24C568.3 23.9 574.2 23.7999 581.1 23.8999C595.2 24.1999 605.8 23.8 621.9 25.5C624.2 25.8 626.6 25.2 626.3 22.3C626 19.5 625.9 16.7999 626 13.8999C626.1 11.1999 626.1 8.59995 626 5.89995C626 4.59995 626.4 2.39995 625.7 1.19995C625.4 0.699951 624.8 0.499954 624.1 0.499954C623.1 0.399954 621.9 0.59996 621.2 0.59996C609.5 0.59996 597.9 1.19996 586.2 1.29996C573.6 1.39996 564.3 1.29995 551.7 1.19995C542.4 1.09995 529.1 1.29996 520.7 0.59996L515.2 0.199951C513.9 0.0999512 512.5 -5.18784e-05 511.2 -0.100052C510 -0.200052 508.7 -0.300049 507.5 -0.300049C503.6 -0.200049 505.2 6.89995 505.3 9.39995C505.5 15.3999 505.6 21.3 505.9 27.3C506 30.4 506 33.4 506 36.5C506 41.1 506 45.7 506 50.3C506 55.6 505.9 61 505.8 66.3C505.7 71.6 505.6 76.8 505.5 82.1C505.4 86.5 505.2 90.8 505 95.2C504.9 96.6 504.9 97.9999 504.8 99.3999C504.6 102 504 104.5 503.4 107C502.5 111.4 506.9 111.5 510 111.5C512 111.5 539.3 111.4 539.3 112.1V112L539.6 111.9L539.7 111.7H539.9L540.3 111.2L540.5 111V110.8L540.7 110.6C542.2 109.6 541.5 106.5 541.4 105.1C541.1 102 540.9 98.8999 540.8 95.8999C540.6 89.9999 540.4 74 541 72.2C541.5 70.6 543 70.8999 544.3 70.8999C547.3 70.7999 550.3 70.7 553.3 70.8C556.6 71 557.8 70.8999 561.1 70.8999C565 70.8999 567.9 70.8999 571.8 70.8999C587.1 70.7999 602.9 72 617.9 72V72.1H618.4C619.1 72.3 619.6 71.9 619.7 71.2C621.1 64.2 620.7 56.6 620.5 49.5C620.5 49 620.5 48.2999 620.1 47.8999C619.5 47.2999 618 47.9 617.3 47.8C616.4 47.8 615.7 47.7 614.8 47.7C612.7 47.7 551.8 49.8 548.3 49.8C545.8 49.9 541 50.9 539.3 48.3C538.1 46.4 538.4 43.7 538.5 41.6V41.8999ZM401 41.8999C401.1 37.5999 401 33.3 401.3 29C401.3 28.8 401.3 26.7 401.6 26.7H401.7C401.7 26.5 401.8 26.3 401.8 26.1H401.9C402.1 25.7 402.3 25.5 402.6 25.2C404.1 23.7 406.7 24.3 408.6 24.1C411 23.8 413.4 24.3 415.8 24.2C419.2 24.1 420.5 24.1 423.9 24C430.8 23.9 436.7 23.7999 443.6 23.8999C457.7 24.1999 468.3 23.8 484.4 25.5C486.7 25.8 489.1 25.2 488.8 22.3C488.5 19.5 488.4 16.7999 488.5 13.8999C488.6 11.1999 488.6 8.59995 488.5 5.89995C488.5 4.59995 488.9 2.39995 488.2 1.19995C487.9 0.699951 487.3 0.499954 486.6 0.499954C485.6 0.399954 484.4 0.59996 483.7 0.59996C472 0.59996 460.4 1.19996 448.7 1.29996C436.1 1.39996 426.8 1.29995 414.2 1.19995C404.9 1.09995 391.6 1.29996 383.2 0.59996L377.7 0.199951C376.4 0.0999512 375 -5.18784e-05 373.7 -0.100052C372.5 -0.200052 371.2 -0.300049 370 -0.300049C366.1 -0.200049 367.7 6.89995 367.8 9.39995C368 15.3999 368.1 21.3 368.4 27.3C368.5 30.4 368.5 33.4 368.6 36.5C368.6 41.1 368.6 45.7 368.6 50.3C368.6 55.6 368.5 61 368.4 66.3C368.3 71.6 368.2 76.8 368.1 82.1C368 86.5 367.8 90.8 367.6 95.2C367.5 96.6 367.5 97.9999 367.4 99.3999C367.2 102 366.6 104.5 366 107C365.1 111.4 369.5 111.5 372.6 111.5C374.6 111.5 402 111.4 402 112.1V112L402.3 111.9L402.4 111.7H402.6L403 111.2L403.2 111V110.8L403.4 110.6C404.9 109.6 404.2 106.5 404.1 105.1C403.8 102 403.6 98.8999 403.5 95.8999C403.3 89.9999 403.1 74 403.7 72.2C404.2 70.6 405.7 70.8999 407 70.8999C410 70.7999 413 70.7 416 70.8C419.3 71 420.5 70.8999 423.8 70.8999C427.7 70.8999 430.6 70.8999 434.5 70.8999C449.8 70.7999 465.7 72 480.6 72V72.1H481.1C481.8 72.3 482.3 71.9 482.5 71.2C483.9 64.2 483.5 56.6 483.3 49.5C483.3 49 483.3 48.2999 482.9 47.8999C482.3 47.2999 480.8 47.9 480.1 47.8C479.2 47.8 478.5 47.7 477.6 47.7C475.5 47.7 414.6 49.8 411.1 49.8C408.6 49.9 403.8 50.9 402.1 48.3C400.9 46.4 401.2 43.7 401.2 41.6L401 41.8999ZM352.3 108.2C351.4 105.8 349.3 102.6 349 102C347.3 99.1 345.5 96.3 343.6 93.5C338.5 85.7 333.9 77.4 329.4 69.2C324.9 60.9 320.6 52.4 316.6 43.8C314.3 39 312.2 34.1 310.1 29.2C307.7 23.6 305.4 17.9 303.6 12C302.8 9.39995 302.3 6.69995 301 4.19995C300.4 2.99995 299.6 1.59995 298.5 0.899948C296.9 -0.100052 294.5 0.799954 292.8 0.999954C290.9 1.19995 289 1.29995 287.1 1.39995C284.9 1.49995 282.7 1.89995 280.5 1.89995C276.5 1.99995 272.6 1.89995 268.6 1.39995C266.5 1.19995 264.4 0.799951 262.2 0.699951C260.4 0.599951 257.5 -0.400043 256 0.799957C253.5 2.69996 253 6.09995 252.3 8.99995C251.5 12.3 250.4 15.2999 249 18.3999C246.1 24.9999 242.7 31.4 240.3 38.2C237.3 46.5 233 54.3 229 62.1C224.6 70.5 220.1 78.9 215.1 87C213.7 89.3 212.3 91.5 210.9 93.7C209.1 96.5 207.2 99.3 205.5 102.2C205.2 102.7 203.1 105.9 202.2 108.4C201.9 109.3 201.5 110.4 202.4 111.1C203.7 112 205.4 112.1 206.9 112.1C213.8 112.1 220.8 112 227.7 112.1C229.8 112.1 231.9 112.2 234 112.3C234.6 112.3 235.3 112.4 235.9 112.4C238.2 112.6 239.9 108.2 240.5 106.5C241.9 103.2 243.4 99.9 244.9 96.6C246.2 93.7 247.6 88.6999 249.1 85.8999C249.8 84.4999 250.6 82 251.4 80.6C251.8 79.8 252.1 79 252.6 78.2C252.8 77.8 253.7 76.2 254.2 76.2H254.4L254.6 76H254.8L254.9 75.8L255.4 75.6V75.5H255.6V75.3999H255.8V75.3H256.1V75.2H256.5V75.1L264.1 74.7C266.9 74.6 297.9 73.9 297.9 75.1V75.2H298.3V75.3H298.6V75.3999H298.8V75.5H299V75.6L299.5 75.8L299.6 76H299.8L300 76.2H300.2C300.4 76.4 300.5 76.6 300.7 76.8L301 77L301.1 77.3999C304.2 82.4999 306.9 91.2 309.5 96.6C311 99.9 312.6 103.1 313.9 106.5C314.6 108.2 316.2 112.6 318.6 112.4C319.2 112.3 319.9 112.3 320.5 112.3C322.6 112.2 324.7 112.2 326.8 112.1C333.8 112 340.7 112.1 347.7 112.1C349.2 112.1 350.9 112 352.2 111.1C353 110.3 352.6 109.1 352.3 108.2ZM290.1 50.8C290.1 51.9 288.4 52.3 287.6 52.6C285.7 53.2 283.6 53.4 281.6 53.6C279.2 53.8 276.7 53.8 274.3 53.7C272.2 53.6 269.9 53.4999 267.9 52.8999C266.4 52.4999 263.8 51.6 264.7 49.7C265.3 48.3 265.9 46.7999 266.4 45.3999C268.2 40.6999 270.1 35.8 272.2 31.2C272.9 29.7 273.5 27.9 274.6 26.5C275.1 25.8 276.2 24.7 277.1 24.6H277.4C278.3 24.8 279 25.7999 279.7 26.3999C281.6 28.8999 289.9 50 289.9 50H290V50.8H290.1ZM47.7 2.89995C47.3 3.39995 47.1 4.09995 47 4.89995L46.9 5.39995C46.4 8.09995 46.1 10.8 45.8 13.5L45.4 17.1L44.2 26.6L41.7 45.5L40.2 55.1C38.5 65.5 36.2 76.2 33.3 87L29.2 101.2L28.4 103.3C27.7 105 26.1 108.7 26.1 109.9L26.2 110.2L26.3 110.3H26.4L26.5 110.5H26.6L26.7 110.6C28.1 111.7 30.8 111.7 32.4 111.7H34.6C55 111.7 59.3 111.9 60.3 112.2L60.6 112.1L60.7 112H60.6L60.9 111.6L61.1 111.5L61.2 111.4L61.4 111.2C61.7 111 61.9 110.7 62 110.3L62.1 110.2L62.4 109.6C64.8 101.4 70.5 64.9 70.5 55.3L70.7 54.3L70.9 53.8999V53.8L71.1 53.6L71.2 53.5L71.3 53.3999C71.9 52.9999 72.5 53 73.1 53L73.5 53.1L73.7 53.2H73.9L74.2 53.8L74.5 54L74.6 54.3999L74.9 54.8999L75 55.2V55.1C75.7 57.4 98.7 105.9 100.3 108.4H100.4L100.5 108.5L100.6 108.6C100.9 108.8 101.4 108.8 102.1 108.8L104.5 108.7L106.3 108.6H107.1L108.9 108.5L108.7 108.6L109.1 108.5L109.7 108.6L109.5 108.5L111.4 108.6H112L113.9 108.7L116.3 108.8C117 108.8 117.5 108.8 117.8 108.6L117.9 108.4H118.1C119.7 105.9 142.7 57.4 143.4 55.1L143.5 54.8999L143.6 54.5L143.8 54.2V54L144.4 53.6L144.1 53.8L144.4 53.3L144.8 53.2L145.1 53.1C145.8 53.1 146.5 53.1 147.1 53.5L147.2 53.7L147.5 54L147.7 54.3L148 55.3C148 65 153.7 101.5 156.2 109.7L156.3 109.8C156.4 109.9 156.5 110.1 156.5 110.3L156.6 110.7V110.8L156.9 110.9L157 111.3L157.8 111.8L157.9 111.9L158.2 112.2L158.5 112.3C158.7 112.2 159 112.2 159.3 112.2L161.3 112.1C167 111.9 179 111.9 184.2 111.9H186.4C188 111.9 190.8 111.9 192.1 110.8L192.2 110.7H192.3L192.4 110.5L192.5 110.4V110.1C192.5 108.9 191 105.1 190.2 103.5L189.4 101.4L185.5 87C182.6 76.2 180.3 65.5 178.6 55.1L177.1 45.5L174.6 26.6L173.4 17.1L173 13.5C172.7 10.8 172.4 8.09995 171.9 5.39995L171.8 4.89995C171.7 4.19995 171.5 3.39995 171.1 2.89995C170.5 2.09995 169 2.39996 167.7 2.59996L166.2 2.79996H162.5L156.3 2.99995H152H149.8C145.6 2.99995 141.2 2.99995 136.8 3.49995C135.9 3.59995 135.5 5.19995 135.2 6.49995C133.6 13.5 114.2 59.6 111.2 60.3L110.6 60.5L110.2 60.6L110.5 60.3999C110.2 60.6999 109.7 60.6 109.7 60.6H109.5C109.3 60.6 109.2 60.6 109.1 60.5L108.7 60.3999L108 60.2C105 59.4 85.6 13.3999 84 6.39995C83.7 5.09995 83.2 3.49995 82.4 3.39995C78 2.89995 73.6 2.79995 69.4 2.89995H67.2H62.9L56.7 2.59996H53L51.5 2.39995C49.8 2.39995 48.3 2.19995 47.7 2.89995Z" fill="black"/>
</g>
<defs>
<clipPath id="clip0_89_780">
<rect width="652" height="214" fill="white"/>
</clipPath>
</defs>
</svg>
