<svg width="531" height="140" viewBox="0 0 531 140" fill="none" xmlns="http://www.w3.org/2000/svg">
<g clip-path="url(#clip0_89_587)">
<path d="M70.045 50.281C70.045 74.404 57.257 87.193 35.168 87.193C13.079 87.193 0.291016 74.4 0.291016 50.281V0H13.079V48.537C13.079 65.104 18.601 76.148 35.168 76.148C51.735 76.148 57.257 64.813 57.257 48.537V0H70.045V50.281Z" fill="#5494CF"/>
<path d="M90.3896 0H107.829L147.647 69.173H147.938V0H160.726V85.74H144.45L103.469 15.4H103.178V85.74H90.3896V0Z" fill="#5494CF"/>
<path d="M174.386 47.9561H207.519V57.2561H174.386V47.9561Z" fill="#5494CF"/>
<path d="M220.599 0H242.688C260.417 0 277.565 2.616 277.565 23.251C277.565 33.714 269.427 40.98 258.965 42.724V43.015C263.034 44.468 264.778 46.215 267.684 51.734L284.831 85.74H270.008L256.057 56.094C251.988 47.665 247.919 47.665 240.944 47.665H233.096V85.74H220.308V0H220.599ZM233.678 36.912H244.722C256.929 36.912 264.195 31.68 264.195 23.542C264.195 15.695 258.095 11.042 246.175 11.042H233.678V36.912Z" fill="#F04123"/>
<path d="M298.49 0H348.771V11.044H311.278V36.044H345.578V46.794H311.278V74.986H348.771V85.74H298.49V0Z" fill="#F04123"/>
<path d="M366.21 0H392.659C419.398 0 440.61 15.695 440.61 42.143C440.61 70.917 422.299 85.743 392.654 85.743H366.21V0ZM378.998 74.986H392.658C414.747 74.986 427.245 64.813 427.245 42.725C427.245 22.671 413.004 11.045 394.402 11.045H379.289V74.986H378.998Z" fill="#F04123"/>
<path d="M456.6 0H483.049C509.788 0 531 15.695 531 42.143C531 70.917 512.689 85.743 483.044 85.743H456.6V0ZM469.679 74.986H483.339C505.428 74.986 517.926 64.813 517.926 42.725C517.926 22.671 503.685 11.045 485.083 11.045H469.683L469.679 74.986Z" fill="#F04123"/>
<path d="M0 107.828H8.719C15.694 107.828 21.219 110.153 21.219 117.419C21.219 124.394 15.406 127.01 9.303 127.01H4.941V139.799H0V107.828ZM4.941 122.941H9.591C10.3968 123.042 11.2148 122.978 11.9947 122.751C12.7746 122.525 13.4999 122.141 14.126 121.624C14.7522 121.107 15.2659 120.467 15.6356 119.744C16.0054 119.021 16.2233 118.23 16.276 117.419C16.276 113.35 11.916 111.897 8.719 111.897H4.941V122.941Z" fill="#F04123"/>
<path d="M55.5137 107.828H63.6517C70.3367 107.828 76.7307 108.7 76.7307 116.547C76.6715 118.406 75.9261 120.177 74.638 121.519C73.35 122.861 71.6107 123.678 69.7557 123.813C70.5046 124.055 71.1854 124.471 71.7418 125.027C72.2982 125.583 72.7143 126.264 72.9557 127.013L79.3497 139.801H73.8227L68.5927 128.754C68.2244 127.637 67.4585 126.693 66.4405 126.103C65.4225 125.514 64.2233 125.318 63.0707 125.554H60.1637V139.799H55.2227V107.828H55.5137ZM60.1637 121.779H64.2327C68.8827 121.779 71.4987 119.744 71.4987 116.838C71.4987 113.932 69.1737 112.188 64.8137 112.188H60.1637V121.779Z" fill="#F04123"/>
<path d="M128.171 107.247C130.365 107.129 132.558 107.478 134.606 108.273C136.654 109.068 138.51 110.289 140.049 111.856C141.589 113.423 142.777 115.299 143.536 117.361C144.295 119.423 144.606 121.622 144.449 123.813C144.449 133.404 138.636 140.38 128.173 140.38C125.98 140.498 123.786 140.148 121.738 139.353C119.69 138.559 117.835 137.337 116.296 135.77C114.756 134.203 113.568 132.327 112.809 130.265C112.051 128.204 111.74 126.004 111.897 123.813C111.897 114.513 117.71 107.246 128.173 107.246M128.173 136.31C136.02 136.31 139.217 130.21 139.217 123.81C139.217 117.41 135.439 111.31 128.173 111.31C120.616 111.31 117.129 117.41 117.129 123.81C117.129 130.21 120.329 136.31 128.173 136.31Z" fill="#F04123"/>
<path d="M205.194 113.641C202.4 111.946 199.158 111.136 195.894 111.316C194.209 111.2 192.519 111.442 190.934 112.025C189.35 112.608 187.906 113.52 186.698 114.7C185.491 115.881 184.546 117.303 183.927 118.874C183.308 120.445 183.028 122.13 183.106 123.816C183.077 125.491 183.39 127.153 184.026 128.702C184.662 130.251 185.607 131.654 186.805 132.824C188.002 133.994 189.426 134.908 190.989 135.509C192.552 136.109 194.221 136.384 195.894 136.316C197.753 136.371 199.61 136.176 201.416 135.735V126.139H194.44V122.361H206.355V138.927C203.068 139.971 199.63 140.462 196.182 140.38C185.428 140.38 178.453 133.986 178.453 123.813C178.453 113.931 186.01 107.246 196.182 107.246C199.566 107.069 202.946 107.665 206.064 108.99L205.194 113.641Z" fill="#F04123"/>
<path d="M242.687 107.828H250.825C257.51 107.828 263.904 108.7 263.904 116.547C263.844 118.406 263.099 120.177 261.811 121.519C260.523 122.861 258.784 123.678 256.929 123.813C257.677 124.055 258.358 124.471 258.915 125.027C259.471 125.583 259.887 126.264 260.129 127.013L266.523 139.801H260.996L255.766 128.754C255.397 127.637 254.631 126.693 253.613 126.103C252.595 125.514 251.396 125.318 250.244 125.554H247.337V139.799H242.396V107.828H242.687ZM247.337 121.779H251.406C256.056 121.779 258.672 119.744 258.672 116.838C258.672 113.932 256.347 112.188 251.987 112.188H247.337V121.779Z" fill="#F04123"/>
<path d="M311.569 107.828H316.51L330.752 139.799H325.52L322.037 131.661H305.466L301.978 139.799H297.037L311.569 107.828ZM313.894 112.188L307.209 128.173H320.579L313.894 112.188Z" fill="#F04123"/>
<path d="M364.176 107.828H372.023L382.776 134.567L392.95 107.828H401.088V139.799H396.147V112.188L385.102 139.799H380.161L369.117 112.188V139.799H364.176V107.828Z" fill="#F04123"/>
<path d="M438.289 107.828H446.136L456.599 134.567L467.063 107.828H474.91V139.799H470.26V112.188H469.969L458.925 139.799H454.275L443.23 112.188H442.939V139.799H438.289V107.828Z" fill="#F04123"/>
<path d="M512.404 107.828H531.296V111.897H517.054V121.197H529.842V125.266H517.054V135.728H531.295V139.797H512.404V107.828Z" fill="#F04123"/>
</g>
<defs>
<clipPath id="clip0_89_587">
<rect width="531" height="140" fill="white"/>
</clipPath>
</defs>
</svg>
