<svg width="648" height="130" viewBox="0 0 648 130" fill="none" xmlns="http://www.w3.org/2000/svg">
<path d="M18.581 130C14.4098 130 10.9969 129.372 8.3425 128.116C5.81447 126.734 3.85525 124.599 2.46483 121.71C1.20081 118.821 0.568807 114.865 0.568807 109.841V83.6522H18.581V109.087C18.581 109.966 18.7074 110.72 18.9602 111.348C19.213 111.85 19.529 112.227 19.9082 112.478C20.4138 112.729 21.1091 112.855 21.9939 112.855H22.1835C23.4475 112.855 24.3323 112.604 24.8379 112.101C25.3435 111.473 25.5963 110.469 25.5963 109.087V77.8116C25.5963 76.5556 25.4067 75.6135 25.0275 74.9855C24.7747 74.2319 24.3323 73.7295 23.7003 73.4783C23.0683 73.1014 22.1835 72.913 21.0459 72.913H18.581C14.0306 72.913 10.3649 72.285 7.58409 71.029C4.92966 69.7729 2.97044 67.7633 1.70642 65C0.568807 62.2367 0 58.5942 0 54.0725V20.1594C0 15.2609 0.695209 11.3672 2.08563 8.47826C3.47604 5.46377 5.43527 3.32851 7.9633 2.07247C10.6177 0.690824 13.9042 0 17.8226 0H25.7859C29.7044 0 32.9276 0.690824 35.4556 2.07247C38.1101 3.32851 40.1325 5.46377 41.5229 8.47826C42.9133 11.3672 43.6085 15.2609 43.6085 20.1594V44.8406H25.5963V21.2899C25.5963 19.9082 25.3435 18.9034 24.8379 18.2754C24.3323 17.5217 23.4475 17.1449 22.1835 17.1449H21.9939C21.2355 17.1449 20.6035 17.3333 20.0978 17.7102C19.5922 17.9614 19.213 18.401 18.9602 19.029C18.7074 19.5314 18.581 20.285 18.581 21.2899V50.8696C18.581 52.7536 18.897 54.0725 19.529 54.8261C20.161 55.4541 21.3619 55.7681 23.1315 55.7681H25.5963C30.1468 55.7681 33.7492 56.3961 36.4036 57.6522C39.1845 58.9082 41.1437 60.9179 42.2813 63.6812C43.5453 66.4444 44.1773 70.087 44.1773 74.6087V109.841C44.1773 114.739 43.4821 118.696 42.0917 121.71C40.8277 124.599 38.8685 126.734 36.214 128.116C33.686 129.372 30.4628 130 26.5443 130H18.581Z" fill="#3D600A"/>
<path d="M68.5516 130C64.6332 130 61.3467 129.372 58.6923 128.116C56.1643 126.734 54.205 124.599 52.8146 121.71C51.5506 118.696 50.9186 114.739 50.9186 109.841V20.1594C50.9186 15.2609 51.5506 11.3672 52.8146 8.47826C54.205 5.46377 56.1643 3.32851 58.6923 2.07247C61.3467 0.690824 64.6332 0 68.5516 0H77.8421C81.7606 0 84.9838 0.690824 87.5118 2.07247C90.1663 3.32851 92.1255 5.46377 93.3895 8.47826C94.7799 11.3672 95.4751 15.2609 95.4751 20.1594V109.841C95.4751 114.739 94.7799 118.696 93.3895 121.71C92.1255 124.599 90.1663 126.734 87.5118 128.116C84.9838 129.372 81.7606 130 77.8421 130H68.5516ZM73.2917 112.855C74.1765 112.855 74.8717 112.729 75.3773 112.478C75.8829 112.101 76.2621 111.662 76.5149 111.159C76.7677 110.531 76.8941 109.715 76.8941 108.71V21.2899C76.8941 20.285 76.7677 19.5314 76.5149 19.029C76.2621 18.401 75.8829 17.9614 75.3773 17.7102C74.8717 17.3333 74.1765 17.1449 73.2917 17.1449H73.1021C72.2173 17.1449 71.522 17.3333 71.0164 17.7102C70.5108 17.9614 70.1316 18.401 69.8788 19.029C69.626 19.5314 69.4996 20.285 69.4996 21.2899V108.71C69.4996 109.715 69.626 110.531 69.8788 111.159C70.1316 111.662 70.5108 112.101 71.0164 112.478C71.522 112.729 72.2173 112.855 73.1021 112.855H73.2917Z" fill="#3D600A"/>
<path d="M103.151 0.942039H121.732V111.913H139.744V129.058H103.151V0.942039Z" fill="#3D600A"/>
<path d="M162.991 130C158.82 130 155.407 129.372 152.753 128.116C150.225 126.86 148.266 124.85 146.875 122.087C145.611 119.324 144.979 115.681 144.979 111.159V0.942039H163.56V108.71C163.56 109.715 163.687 110.531 163.939 111.159C164.192 111.662 164.571 112.101 165.077 112.478C165.583 112.729 166.215 112.855 166.973 112.855H167.163C167.921 112.855 168.553 112.729 169.059 112.478C169.564 112.101 169.943 111.662 170.196 111.159C170.449 110.531 170.575 109.715 170.575 108.71V0.942039H189.156V111.159C189.156 115.681 188.461 119.324 187.071 122.087C185.68 124.85 183.658 126.86 181.004 128.116C178.476 129.372 175.315 130 171.523 130H162.991Z" fill="#3D600A"/>
<path d="M207.843 18.2754H194.76V0.942039H239.506V18.2754H226.424V129.058H207.843V18.2754Z" fill="#3D600A"/>
<path d="M244.391 111.913H252.924V18.087H244.391V0.942039H279.657V18.087H271.125V111.913H279.657V129.058H244.391V111.913Z" fill="#3D600A"/>
<path d="M302.407 130C298.488 130 295.202 129.372 292.547 128.116C290.019 126.734 288.06 124.599 286.67 121.71C285.406 118.696 284.774 114.739 284.774 109.841V20.1594C284.774 15.2609 285.406 11.3672 286.67 8.47826C288.06 5.46377 290.019 3.32851 292.547 2.07247C295.202 0.690824 298.488 0 302.407 0H311.697C315.616 0 318.839 0.690824 321.367 2.07247C324.021 3.32851 325.981 5.46377 327.245 8.47826C328.635 11.3672 329.33 15.2609 329.33 20.1594V109.841C329.33 114.739 328.635 118.696 327.245 121.71C325.981 124.599 324.021 126.734 321.367 128.116C318.839 129.372 315.616 130 311.697 130H302.407ZM307.147 112.855C308.032 112.855 308.727 112.729 309.232 112.478C309.738 112.101 310.117 111.662 310.37 111.159C310.623 110.531 310.749 109.715 310.749 108.71V21.2899C310.749 20.285 310.623 19.5314 310.37 19.029C310.117 18.401 309.738 17.9614 309.232 17.7102C308.727 17.3333 308.032 17.1449 307.147 17.1449H306.957C306.072 17.1449 305.377 17.3333 304.872 17.7102C304.366 17.9614 303.987 18.401 303.734 19.029C303.481 19.5314 303.355 20.285 303.355 21.2899V108.71C303.355 109.715 303.481 110.531 303.734 111.159C303.987 111.662 304.366 112.101 304.872 112.478C305.377 112.729 306.072 112.855 306.957 112.855H307.147Z" fill="#3D600A"/>
<path d="M337.006 0.942039H358.242L375.306 126.797H369.049V0.942039H384.028V129.058H361.844L344.97 3.39131H351.985V129.058H337.006V0.942039Z" fill="#3D600A"/>
<path d="M410.191 130C406.02 130 402.607 129.372 399.953 128.116C397.425 126.734 395.466 124.599 394.075 121.71C392.811 118.821 392.179 114.865 392.179 109.841V83.6522H410.191V109.087C410.191 109.966 410.318 110.72 410.57 111.348C410.823 111.85 411.139 112.227 411.518 112.478C412.024 112.729 412.719 112.855 413.604 112.855H413.794C415.058 112.855 415.943 112.604 416.448 112.101C416.954 111.473 417.207 110.469 417.207 109.087V77.8116C417.207 76.5556 417.017 75.6135 416.638 74.9855C416.385 74.2319 415.943 73.7295 415.311 73.4783C414.679 73.1014 413.794 72.913 412.656 72.913H410.191C405.641 72.913 401.975 72.285 399.194 71.029C396.54 69.7729 394.581 67.7633 393.317 65C392.179 62.2367 391.61 58.5942 391.61 54.0725V20.1594C391.61 15.2609 392.305 11.3672 393.696 8.47826C395.086 5.46377 397.046 3.32851 399.574 2.07247C402.228 0.690824 405.514 0 409.433 0H417.396C421.315 0 424.538 0.690824 427.066 2.07247C429.72 3.32851 431.743 5.46377 433.133 8.47826C434.524 11.3672 435.219 15.2609 435.219 20.1594V44.8406H417.207V21.2899C417.207 19.9082 416.954 18.9034 416.448 18.2754C415.943 17.5217 415.058 17.1449 413.794 17.1449H413.604C412.846 17.1449 412.214 17.3333 411.708 17.7102C411.203 17.9614 410.823 18.401 410.57 19.029C410.318 19.5314 410.191 20.285 410.191 21.2899V50.8696C410.191 52.7536 410.507 54.0725 411.139 54.8261C411.771 55.4541 412.972 55.7681 414.742 55.7681H417.207C421.757 55.7681 425.359 56.3961 428.014 57.6522C430.795 58.9082 432.754 60.9179 433.892 63.6812C435.156 66.4444 435.788 70.087 435.788 74.6087V109.841C435.788 114.739 435.092 118.696 433.702 121.71C432.438 124.599 430.479 126.734 427.824 128.116C425.296 129.372 422.073 130 418.155 130H410.191Z" fill="#3D600A"/>
<path d="M477.248 18.2754H464.166V0.942039H508.912V18.2754H495.829V129.058H477.248V18.2754Z" fill="#3D600A"/>
<path d="M515.314 0.942039H540.531C544.702 0.942039 548.178 1.63286 550.959 3.0145C553.866 4.39614 556.015 6.5314 557.406 9.42029C558.796 12.1836 559.491 15.6377 559.491 19.7826V63.8696C559.491 66.7585 559.238 69.2705 558.733 71.4058C558.354 73.4155 557.658 75.1111 556.647 76.4928C555.762 77.7488 554.625 78.8792 553.234 79.8841L560.25 129.058H541.858L535.981 82.7101H533.895V129.058H515.314V0.942039ZM536.739 65.5652C537.75 65.5652 538.572 65.4396 539.204 65.1884C539.836 64.8116 540.278 64.3092 540.531 63.6812C540.784 62.9275 540.91 61.9227 540.91 60.6667V22.9855C540.91 21.7295 540.784 20.7874 540.531 20.1594C540.278 19.4058 539.836 18.9034 539.204 18.6522C538.572 18.2754 537.75 18.087 536.739 18.087H533.895V65.5652H536.739Z" fill="#3D600A"/>
<path d="M567.529 0.942039H603.932V18.087H586.11V56.5217H601.278V73.4783H586.11V111.913H603.932V129.058H567.529V0.942039Z" fill="#3D600A"/>
<path d="M611.596 0.942039H648V18.087H630.177V56.5217H645.346V73.4783H630.177V111.913H648V129.058H611.596V0.942039Z" fill="#3D600A"/>
</svg>
